<svg width="20" height="20" viewBox="0 0 20 20" fill="none" xmlns="http://www.w3.org/2000/svg">
<path fill-rule="evenodd" clip-rule="evenodd" d="M1.60827 6.54939C1.0594 6.82382 0.391981 6.60135 0.117547 6.05248C-0.156887 5.50362 0.0655858 4.8362 0.614453 4.56177L9.50338 0.117304C9.81619 -0.0391012 10.1844 -0.0391012 10.4972 0.117304L19.3861 4.56177C19.935 4.8362 20.1575 5.50362 19.883 6.05248C19.6086 6.60135 18.9412 6.82382 18.3923 6.54939L10.0003 2.35338L1.60827 6.54939ZM9.24325 4.62775C9.71892 4.38516 10.282 4.38516 10.7577 4.62775L16.8688 7.74443C17.4269 8.02907 17.7783 8.60265 17.7783 9.22916V16.6667C17.7783 18.5076 16.2859 20 14.4449 20H13.4889C12.7896 20 12.2227 19.4331 12.2227 18.7339V15.5556C12.2227 14.3282 11.2278 13.3333 10.0005 13.3333C8.77316 13.3333 7.77823 14.3282 7.77823 15.5556V18.7339C7.77823 19.4331 7.21136 20 6.51208 20H5.556C3.71505 20 2.22266 18.5076 2.22266 16.6667V9.22916C2.22266 8.60265 2.574 8.02907 3.13212 7.74443L9.24325 4.62775Z" fill="black"/>
</svg>
