<svg width="20" height="20" viewBox="0 0 20 20" fill="none" xmlns="http://www.w3.org/2000/svg">
<g clip-path="url(#clip0_5_1713)">
<path d="M17.0676 2.92973C13.1616 -0.976283 6.8395 -0.97687 2.93294 2.92973C-0.208072 6.0707 -0.801614 10.7411 1.05536 14.4605L0.0258584 18.9889C-0.107956 19.5775 0.41956 20.1053 1.00837 19.9714L5.53682 18.9419C12.1211 22.2293 19.9951 17.47 19.9951 9.99708C19.9951 7.32745 18.9554 4.81755 17.0676 2.92973ZM12.0852 12.486H5.83036C5.37697 12.486 5.00942 12.1184 5.00942 11.665C5.00942 11.2116 5.37697 10.8441 5.83036 10.8441H12.0852C12.5386 10.8441 12.9061 11.2116 12.9061 11.665C12.9061 12.1184 12.5386 12.486 12.0852 12.486ZM14.1701 9.15006H5.83036C5.37697 9.15006 5.00942 8.78252 5.00942 8.32912C5.00942 7.87572 5.37697 7.50818 5.83036 7.50818H14.1701C14.6235 7.50818 14.9911 7.87572 14.9911 8.32912C14.9911 8.78252 14.6235 9.15006 14.1701 9.15006Z" fill="#9BB5CE"/>
</g>
<defs>
<clipPath id="clip0_5_1713">
<rect width="20" height="20" fill="white"/>
</clipPath>
</defs>
</svg>
