<svg width="15" height="20" viewBox="0 0 15 20" fill="none" xmlns="http://www.w3.org/2000/svg">
<path d="M5.46874 19.9999H8.5937C9.02518 19.9999 9.37494 19.6502 9.37494 19.2187C9.37494 18.7872 9.02518 18.4374 8.5937 18.4374H5.46874C5.03726 18.4374 4.6875 18.7872 4.6875 19.2187C4.6875 19.6502 5.03726 19.9999 5.46874 19.9999Z" fill="#ADC5D8"/>
<path d="M7.03117 0C6.59969 0 6.24993 0.349761 6.24993 0.781241V1.61854C3.60328 1.99877 1.56248 4.28096 1.56248 7.03117V11.8341C1.56248 12.1094 1.43846 12.3599 1.25393 12.4573C0.480463 12.8657 0 13.6603 0 14.5311C0 15.8234 1.05139 16.8748 2.34372 16.8748H11.7186C13.0109 16.8748 14.0623 15.8234 14.0623 14.5311C14.0623 13.6603 13.5819 12.8657 12.8084 12.4573C12.6238 12.3599 12.4999 12.1094 12.4999 11.8341V7.03117C12.4999 4.28096 10.4591 1.99877 7.81241 1.61854V0.781241C7.81241 0.349761 7.46265 0 7.03117 0Z" fill="#ADC5D8"/>
</svg>
