<svg width="21" height="21" viewBox="0 0 21 21" fill="none" xmlns="http://www.w3.org/2000/svg">
<path d="M19.6785 18.0044L15.829 14.1548C17.0028 12.6245 17.638 10.749 17.6356 8.8203C17.6356 6.46403 16.7181 4.24962 15.0521 2.58361C14.235 1.76198 13.263 1.11057 12.1925 0.667096C11.122 0.223622 9.97412 -0.00310681 8.81537 3.21522e-05C6.4597 3.21522e-05 4.24528 0.91761 2.57869 2.58361C-0.859562 6.02246 -0.859562 11.6181 2.57869 15.057C3.39574 15.8786 4.36768 16.5301 5.43821 16.9735C6.50875 17.417 7.65662 17.6437 8.81537 17.6406C10.7704 17.6406 12.6228 17.0002 14.1505 15.8333L18.0001 19.6835C18.2315 19.9149 18.5354 20.0312 18.8393 20.0312C19.1432 20.0312 19.4471 19.9149 19.6785 19.6835C19.7888 19.5732 19.8763 19.4423 19.936 19.2983C19.9956 19.1542 20.0264 18.9998 20.0264 18.8439C20.0264 18.688 19.9956 18.5336 19.936 18.3895C19.8763 18.2455 19.7888 18.1146 19.6785 18.0044ZM4.25775 13.3785C1.7442 10.865 1.74479 6.77563 4.25775 4.26208C4.85504 3.66179 5.56544 3.18589 6.34785 2.86193C7.13026 2.53796 7.96914 2.37236 8.81596 2.3747C9.66269 2.37237 10.5015 2.53798 11.2838 2.86195C12.0661 3.18592 12.7764 3.66181 13.3736 4.26208C13.974 4.85929 14.4501 5.56966 14.7742 6.35208C15.0982 7.1345 15.2639 7.97342 15.2616 8.8203C15.2616 10.5421 14.5909 12.1606 13.3736 13.3785C12.1563 14.5964 10.5378 15.2659 8.81537 15.2659C7.09417 15.2659 5.47505 14.5952 4.25715 13.3785H4.25775Z" fill="#ADC5D8"/>
</svg>
