<svg width="18" height="18" viewBox="0 0 18 18" fill="none" xmlns="http://www.w3.org/2000/svg">
<circle cx="9" cy="9" r="9" fill="white"/>
<path d="M7.22206 5.21047C7.15167 5.27676 7.09582 5.35549 7.05772 5.44216C7.01961 5.52884 7 5.62175 7 5.71559C7 5.80942 7.01961 5.90234 7.05772 5.98901C7.09582 6.07569 7.15167 6.15442 7.22206 6.2207L10.1682 9.00062L7.22206 11.7805C7.08008 11.9145 7.00032 12.0962 7.00032 12.2857C7.00032 12.4751 7.08008 12.6568 7.22206 12.7908C7.36403 12.9247 7.55659 13 7.75737 13C7.95816 13 8.15072 12.9247 8.29269 12.7908L11.7779 9.50216C11.8483 9.43587 11.9042 9.35714 11.9423 9.27047C11.9804 9.18379 12 9.09088 12 8.99704C12 8.90321 11.9804 8.81029 11.9423 8.72362C11.9042 8.63694 11.8483 8.55821 11.7779 8.49193L8.29269 5.20331C8.00415 4.93105 7.51819 4.93105 7.22206 5.21047Z" fill="#3B8EE8"/>
</svg>
