<svg width="18" height="18" viewBox="0 0 18 18" fill="none" xmlns="http://www.w3.org/2000/svg">
<path d="M8.54514 1.71281C8.48292 1.65058 8.40696 1.60382 8.32336 1.57632C8.23977 1.54881 8.15088 1.54133 8.06387 1.55446C7.97685 1.5676 7.89413 1.60098 7.82238 1.65194C7.75063 1.70289 7.69185 1.76998 7.65077 1.84781L4.11096 8.53425L2.18158 10.4636C1.58758 11.0576 1.40646 11.9014 1.61627 12.6574C0.921581 13.5399 0.971081 14.8208 1.78389 15.6347C1.99282 15.8436 2.24093 16.0093 2.514 16.1221C2.78708 16.2349 3.07974 16.2928 3.37521 16.2923C3.86739 16.2923 4.35396 16.1224 4.76064 15.8023C4.95808 15.8569 5.16002 15.8946 5.36364 15.8946C5.75796 15.8946 6.15002 15.7838 6.49989 15.5779L7.94946 17.0263C8.22339 17.3002 8.58339 17.4369 8.94339 17.4369C9.30339 17.4369 9.66339 17.3002 9.93789 17.0263C10.2011 16.7624 10.3489 16.4048 10.3489 16.0321C10.3489 15.6593 10.2011 15.3018 9.93789 15.0379L8.54571 13.6457L8.88377 13.3076L15.5708 9.76725C15.6485 9.72609 15.7155 9.66727 15.7664 9.59551C15.8173 9.52376 15.8506 9.44107 15.8637 9.3541C15.8769 9.26712 15.8694 9.17827 15.842 9.0947C15.8145 9.01112 15.7679 8.93515 15.7058 8.87288L8.54514 1.71281ZM2.57927 14.8387C2.4408 14.6992 2.34141 14.5257 2.29106 14.3357C2.24072 14.1457 2.24118 13.9457 2.29239 13.7559L3.66208 15.1262C3.47228 15.1774 3.27235 15.1779 3.08232 15.1275C2.89229 15.0772 2.71881 14.9778 2.57927 14.8393V14.8387ZM4.56827 14.4411L2.97696 12.8497C2.76646 12.6386 2.64827 12.3525 2.64827 12.0544C2.64827 11.7562 2.76646 11.4702 2.97696 11.259L4.56883 9.66769L7.75033 12.8497L6.15902 14.4411C5.72027 14.8798 5.00702 14.8798 4.56827 14.4411ZM9.14252 15.8333C9.21283 15.9036 9.22352 15.9879 9.22352 16.0318C9.22352 16.0757 9.21283 16.1601 9.14252 16.2304C9.08929 16.2821 9.01801 16.3111 8.94379 16.3112C8.86956 16.3113 8.79821 16.2825 8.74483 16.2309L7.35208 14.8387L7.75033 14.4411L9.14252 15.8333ZM8.64977 12.1584L5.26014 8.76825L8.28864 3.04706L14.3715 9.12937L8.64977 12.1584ZM10.6877 2.25V1.125C10.6877 0.975816 10.747 0.832742 10.8525 0.727252C10.9579 0.621763 11.101 0.5625 11.2502 0.5625C11.3994 0.5625 11.5425 0.621763 11.648 0.727252C11.7534 0.832742 11.8127 0.975816 11.8127 1.125V2.25C11.8127 2.39918 11.7534 2.54226 11.648 2.64775C11.5425 2.75324 11.3994 2.8125 11.2502 2.8125C11.101 2.8125 10.9579 2.75324 10.8525 2.64775C10.747 2.54226 10.6877 2.39918 10.6877 2.25ZM16.8752 6.1875C16.8752 6.33668 16.8159 6.47976 16.7105 6.58525C16.605 6.69074 16.4619 6.75 16.3127 6.75H15.1877C15.0385 6.75 14.8954 6.69074 14.79 6.58525C14.6845 6.47976 14.6252 6.33668 14.6252 6.1875C14.6252 6.03832 14.6845 5.89524 14.79 5.78975C14.8954 5.68426 15.0385 5.625 15.1877 5.625H16.3127C16.4619 5.625 16.605 5.68426 16.7105 5.78975C16.8159 5.89524 16.8752 6.03832 16.8752 6.1875ZM13.1025 4.33519C12.9971 4.2297 12.9378 4.08665 12.9378 3.9375C12.9378 3.78835 12.9971 3.6453 13.1025 3.53981L14.2275 2.41481C14.2794 2.36109 14.3415 2.31824 14.4101 2.28876C14.4787 2.25928 14.5525 2.24376 14.6272 2.24311C14.7019 2.24246 14.776 2.25669 14.8451 2.28498C14.9142 2.31326 14.9771 2.35503 15.0299 2.40784C15.0827 2.46065 15.1244 2.52346 15.1527 2.59259C15.181 2.66172 15.1952 2.73579 15.1946 2.81048C15.1939 2.88516 15.1784 2.95898 15.149 3.0276C15.1195 3.09623 15.0766 3.1583 15.0229 3.21019L13.8979 4.33519C13.8458 4.3876 13.7838 4.4292 13.7156 4.45759C13.6473 4.48597 13.5741 4.50058 13.5002 4.50058C13.4263 4.50058 13.3531 4.48597 13.2849 4.45759C13.2166 4.4292 13.1546 4.3876 13.1025 4.33519Z" fill="black"/>
</svg>
