<svg width="51" height="51" viewBox="0 0 51 51" fill="none" xmlns="http://www.w3.org/2000/svg">
<circle cx="25.5" cy="25.5" r="25.5" fill="#44515E"/>
<g clip-path="url(#clip0_5_2433)">
<path d="M34.5833 16.031C30.8855 15.9647 26.6683 17.8976 23.9989 20.8961C21.4201 20.9502 18.9615 21.9971 17.1353 23.8188C17.083 23.8704 17.0461 23.9356 17.0288 24.0071C17.0115 24.0785 17.0145 24.1534 17.0375 24.2232C17.0605 24.293 17.1025 24.3551 17.1588 24.4023C17.2152 24.4495 17.2836 24.4801 17.3563 24.4905L20.3982 24.9262L20.0225 25.3469C19.9553 25.4222 19.9195 25.5203 19.9225 25.6212C19.9254 25.722 19.9669 25.8179 20.0383 25.8891L25.1111 30.9619C25.1823 31.0334 25.2783 31.0748 25.3792 31.0776C25.4801 31.0804 25.5782 31.0443 25.6533 30.9769L26.074 30.6012L26.5097 33.6431C26.531 33.7915 26.6478 33.9004 26.7891 33.9477C26.8255 33.9594 26.8636 33.9653 26.9019 33.9651C27.0163 33.9635 27.1256 33.918 27.2074 33.838C29.0109 32.0345 30.0567 29.5506 30.1049 26.9997C33.1065 24.3248 35.0553 20.1092 34.9692 16.4161C34.9664 16.3147 34.9248 16.2182 34.853 16.1466C34.7812 16.0749 34.6847 16.0335 34.5833 16.031ZM30.9462 22.8441C30.5619 23.2284 30.0567 23.421 29.5508 23.421C29.0449 23.421 28.5397 23.2284 28.1553 22.8441C27.7861 22.4735 27.5788 21.9717 27.5788 21.4486C27.5788 20.9255 27.7861 20.4237 28.1553 20.0531C28.9249 19.2836 30.1767 19.2836 30.9462 20.0531C31.7158 20.8227 31.7158 22.0753 30.9462 22.8441ZM18.1788 29.3715C17.3342 30.216 16.1748 34.0314 16.0453 34.4631C16.0253 34.5314 16.024 34.6038 16.0416 34.6727C16.0592 34.7416 16.095 34.8045 16.1453 34.8548C16.1956 34.9051 16.2586 34.941 16.3275 34.9586C16.3964 34.9762 16.4688 34.9749 16.537 34.9549C16.9688 34.8254 20.7842 33.666 21.6287 32.8214C22.0856 32.3636 22.3422 31.7432 22.3422 31.0964C22.3422 30.4497 22.0856 29.8293 21.6287 29.3715C21.1708 28.9148 20.5505 28.6583 19.9037 28.6583C19.257 28.6583 18.6367 28.9148 18.1788 29.3715Z" fill="white"/>
</g>
<defs>
<clipPath id="clip0_5_2433">
<rect width="18.9429" height="18.9429" fill="white" transform="translate(16.0283 16.0286)"/>
</clipPath>
</defs>
</svg>
