<svg width="20" height="24" viewBox="0 0 20 24" fill="none" xmlns="http://www.w3.org/2000/svg">
<path d="M12.1358 13.3321C12.2306 13.3519 12.5495 13.4732 12.617 13.5056C12.8096 13.5982 13.0145 13.6699 13.1988 13.7795C13.3334 13.8597 13.4826 13.9203 13.6195 13.9975C13.7309 14.0595 13.837 14.1287 13.9369 14.2047C14.1059 14.3344 14.2677 14.4733 14.4306 14.6101C14.4645 14.6384 14.51 14.6677 14.484 14.7099C14.5172 14.7249 14.5528 14.7322 14.5731 14.7518C14.6214 14.8004 14.6666 14.8514 14.7084 14.9046C14.7676 14.9772 14.8318 15.0479 14.8804 15.1268C14.9473 15.2344 15.0034 15.3476 15.0603 15.4602C15.0952 15.5294 15.1335 15.5994 15.1522 15.6728C15.1812 15.7865 15.2353 15.8969 15.2238 16.0178C15.2215 16.0443 15.2238 16.071 15.2307 16.0969C15.2685 16.2354 15.2685 16.38 15.2307 16.5186C15.2262 16.5329 15.224 16.5476 15.2243 16.5625C15.2353 16.7349 15.1742 16.8958 15.1085 17.0521C15.0695 17.1447 15.0435 17.2472 14.9631 17.3262C14.9255 17.3633 14.9143 17.4188 14.8835 17.4627C14.8237 17.5464 14.7589 17.6281 14.6947 17.7089C14.6605 17.7517 14.6227 17.7921 14.5816 17.8298C14.5019 17.902 14.4323 17.9828 14.3531 18.0544C14.2345 18.1618 14.1007 18.2565 13.9694 18.3524C13.9087 18.3965 13.8387 18.4302 13.773 18.4689C13.6376 18.5487 13.6382 18.5591 13.7803 18.6239C13.9037 18.6795 14.0306 18.7313 14.1487 18.7954C14.2496 18.851 14.3356 18.9251 14.4364 18.9819C14.5877 19.0677 14.698 19.1897 14.8089 19.3088C14.8945 19.4027 14.9683 19.5047 15.029 19.6129C15.0923 19.7229 15.1441 19.8378 15.1839 19.9562C15.2495 20.1415 15.2831 20.3345 15.2837 20.5287C15.2818 20.7033 15.2837 20.8782 15.2791 21.0528C15.277 21.1088 15.2701 21.1645 15.2583 21.2195C15.2168 21.421 15.18 21.623 15.1129 21.8193C15.0934 21.8698 15.0708 21.9193 15.0452 21.9675C14.96 22.1458 14.8533 22.3153 14.7269 22.4729C14.6505 22.5632 14.5663 22.648 14.4751 22.7266C14.4414 22.7568 14.4075 22.7938 14.356 22.8057C14.2754 22.9448 14.1106 22.9959 13.982 23.0853C13.9253 23.1252 13.8499 23.1433 13.7867 23.177C13.7492 23.198 13.7099 23.2166 13.6693 23.2326C13.5808 23.2657 13.4894 23.2948 13.4038 23.3309C13.2702 23.3865 13.1302 23.4219 12.9916 23.4606C12.8734 23.4935 12.7479 23.5061 12.6255 23.5276C12.6123 23.5278 12.5992 23.5299 12.5867 23.5339C12.4959 23.5837 12.3945 23.5687 12.2958 23.575C12.2472 23.5782 12.1992 23.5902 12.1504 23.5976C12.1022 23.608 12.0531 23.6148 12.0037 23.6182C11.6655 23.6206 11.3272 23.6208 10.989 23.6208H6.55279C6.5478 23.5758 6.53991 23.5359 6.53949 23.4959C6.53506 23.0515 6.53146 22.607 6.52869 22.1625C6.52495 21.4609 6.52183 20.7591 6.51934 20.0574C6.51934 19.9151 6.52453 19.7723 6.51144 19.6314C6.47862 19.2766 6.5023 18.9213 6.49565 18.5663C6.48734 18.1163 6.48042 17.6662 6.47488 17.216C6.4728 17.0679 6.47114 16.9197 6.47488 16.7716C6.47903 16.5412 6.48797 16.3108 6.49212 16.0804C6.49212 16.0434 6.47571 16.0063 6.47301 15.9693C6.46675 15.9256 6.46759 15.8813 6.4755 15.8378C6.49739 15.7545 6.49739 15.6678 6.4755 15.5844C6.46033 15.525 6.46407 15.4617 6.45888 15.3944C6.36663 15.3737 6.27542 15.3539 6.18484 15.3326C6.16302 15.3262 6.14166 15.3188 6.12085 15.3102L6.04023 15.2815C6.01052 15.2705 5.9806 15.2596 5.9511 15.2481C5.93926 15.2433 5.92825 15.2318 5.91682 15.232C5.82624 15.2333 5.7664 15.1713 5.68828 15.1457C5.66979 15.1396 5.65151 15.1329 5.63281 15.1272C5.5819 15.1127 5.5819 15.1129 5.57048 15.0531C5.53453 15.0696 5.50607 15.0781 5.46784 15.0451C5.42006 15.0042 5.35025 14.9844 5.29747 14.947C5.17448 14.8599 5.05231 14.7716 4.93721 14.6766C4.87135 14.6223 4.81962 14.5542 4.74794 14.4775C4.81193 14.4725 4.85909 14.4655 4.90605 14.4655C5.04899 14.4655 5.19172 14.4712 5.33446 14.4697C5.72921 14.4657 6.12396 14.461 6.52017 14.4525C6.6386 14.4499 6.75661 14.4327 6.87482 14.424C6.99304 14.4153 7.10648 14.4055 7.22221 14.4038C7.38101 14.4025 7.53956 14.3923 7.69695 14.3734C7.82472 14.3577 7.95499 14.3575 8.08422 14.3508C8.20659 14.3444 8.32876 14.3377 8.45113 14.3323C8.71645 14.3208 8.98176 14.3073 9.24708 14.3001C9.55873 14.2918 9.87037 14.2679 10.181 14.2845C10.5144 14.3031 10.8512 14.2779 11.1812 14.346C11.2516 14.3605 11.3266 14.3558 11.3981 14.3681C11.5395 14.3921 11.68 14.4212 11.8207 14.4495C11.937 14.4729 12.0521 14.5007 12.1689 14.521C12.2082 14.5253 12.2481 14.5219 12.2858 14.511C12.2956 14.5072 12.3042 14.5013 12.3111 14.494C12.3179 14.4867 12.3228 14.4781 12.3253 14.4688C12.3278 14.4577 12.3045 14.4301 12.2937 14.4308C12.205 14.4366 12.1483 14.3447 12.0544 14.3686C12.0423 14.3718 11.8871 14.311 11.8803 14.3005C11.835 14.2895 11.7893 14.2797 11.7444 14.2675C11.6628 14.2451 11.5817 14.2208 11.5001 14.1988C11.4535 14.186 11.4062 14.1751 11.359 14.1647C11.3366 14.1597 11.3106 14.1629 11.2907 14.1542C11.1911 14.1104 11.0843 14.1154 10.979 14.1116C10.9623 14.1122 10.9456 14.1108 10.9293 14.1077C10.7818 14.0651 10.6268 14.0758 10.4762 14.0562C10.3806 14.044 10.2861 14.0266 10.1912 14.011C10.1787 14.009 9.83505 13.9906 9.6757 13.978C9.62957 13.9743 9.58345 13.9697 9.53732 13.9671C9.41495 13.9604 9.29154 13.9604 9.17021 13.9467C9.0871 13.9373 9.00711 13.9097 8.92546 13.8897C8.91315 13.8855 8.89984 13.8842 8.88681 13.886C8.7125 13.9327 8.54193 13.8962 8.36927 13.874C8.26539 13.8604 8.1586 13.866 8.05326 13.8606C7.85672 13.8506 7.65851 13.8584 7.46446 13.8182C7.42512 13.813 7.38539 13.8104 7.34562 13.8106C7.26023 13.8051 7.17483 13.7986 7.08944 13.7941C7.06306 13.7926 7.03646 13.7978 7.00987 13.7975C6.90433 13.7964 6.79857 13.7975 6.69324 13.7917C6.59143 13.7864 6.49046 13.7714 6.38865 13.7654C6.25652 13.758 6.12396 13.7582 5.99224 13.7491C5.95256 13.7463 5.91516 13.7219 5.87568 13.7104C5.84909 13.7002 5.8203 13.6952 5.79133 13.696C5.57131 13.7254 5.35336 13.7289 5.13646 13.6749C5.09262 13.6639 5.04463 13.6667 4.99829 13.6645C4.90605 13.6597 4.80881 13.6704 4.72238 13.6478C4.6281 13.6224 4.53002 13.6099 4.43151 13.6108C4.40164 13.611 4.37217 13.6046 4.34571 13.5923C4.29252 13.5658 4.24182 13.5436 4.17721 13.5584C4.15456 13.5636 4.1234 13.5428 4.09743 13.5317C4.07146 13.5206 4.04195 13.4908 4.02284 13.4958C3.91896 13.5241 3.8425 13.4291 3.74257 13.4517C3.68875 13.391 3.58508 13.4376 3.53085 13.3735C3.52192 13.363 3.49325 13.3669 3.47476 13.3615C3.45077 13.3545 3.42731 13.346 3.40453 13.3363C3.38835 13.327 3.37164 13.3185 3.35446 13.3108C3.28756 13.2904 3.2111 13.2835 3.15397 13.2502C3.02765 13.1761 2.88387 13.1356 2.75215 13.072C2.53047 12.9654 2.31585 12.8509 2.12637 12.7052C2.06653 12.6592 1.99651 12.627 1.94042 12.5803C1.8249 12.4846 1.71541 12.3827 1.60799 12.2801C1.52489 12.2018 1.43929 12.124 1.37093 12.0359C1.26705 11.9031 1.15444 11.7766 1.07612 11.6284C1.01815 11.5197 0.951458 11.4143 0.90014 11.3032C0.841135 11.1745 0.760522 11.0536 0.731019 10.9143C0.717307 10.8491 0.678247 10.7885 0.657263 10.7243C0.631085 10.6428 0.611555 10.5596 0.584961 10.4617C0.693206 10.5426 0.785246 10.6167 0.883103 10.6839C1.04786 10.7971 1.21407 10.9086 1.38402 11.0154C1.51221 11.096 1.64601 11.1697 1.77878 11.2434C1.85844 11.2896 1.94177 11.3307 2.02809 11.3662C2.07297 11.3836 2.05635 11.4254 2.08003 11.4371C2.10372 11.4488 2.14735 11.4308 2.17519 11.441C2.28572 11.4816 2.39334 11.5282 2.50221 11.5723C2.61752 11.6192 2.73179 11.6679 2.84876 11.7112C2.91753 11.7366 2.99046 11.7534 3.06172 11.7736C3.07439 11.7771 3.09019 11.7751 3.10016 11.7812C3.15355 11.8147 3.21526 11.8208 3.27655 11.834C3.36859 11.854 3.45544 11.9007 3.54789 11.9101C3.65738 11.9212 3.75233 11.9794 3.86411 11.9747C3.8826 11.9747 3.90109 11.9866 3.92041 11.9903C3.98773 12.0033 4.05546 12.0149 4.12319 12.0273C4.12963 12.0286 4.13773 12.0262 4.14272 12.0288C4.28255 12.1003 4.45312 12.0535 4.59357 12.1227C4.6058 12.1274 4.61915 12.1293 4.63242 12.1283C4.74871 12.1293 4.86426 12.145 4.97565 12.1748C5.05751 12.1944 5.14705 12.1879 5.23224 12.1985C5.41528 12.2211 5.5979 12.2472 5.78074 12.2714C5.80151 12.274 5.82042 12.2748 5.84016 12.2762C5.90955 12.2812 5.97936 12.2842 6.04792 12.2912C6.21247 12.3081 6.37681 12.3255 6.54074 12.3453C6.76346 12.372 6.98598 12.4009 7.2087 12.4292C7.21852 12.4307 7.22846 12.4314 7.23841 12.4314C7.36098 12.4306 7.4832 12.4431 7.60241 12.4685C7.70235 12.487 7.80831 12.4803 7.90824 12.4992C8.0356 12.5231 8.16712 12.5177 8.29136 12.5407C8.45113 12.5703 8.61506 12.5659 8.77171 12.6029C8.86146 12.6229 8.95368 12.6326 9.04617 12.6318C9.09262 12.6311 9.13865 12.6398 9.1808 12.6572C9.23794 12.6831 9.29528 12.6839 9.35512 12.6828C9.43471 12.6788 9.51421 12.6919 9.58698 12.7209C9.58989 12.7222 9.59301 12.725 9.59571 12.7248C9.73366 12.7168 9.85811 12.7755 9.99233 12.7872C10.0441 12.7939 10.0952 12.8038 10.1455 12.8167C10.1581 12.8192 10.1693 12.8296 10.1818 12.8302C10.2811 12.8355 10.3763 12.8691 10.4727 12.8759C10.5766 12.8833 10.6607 12.9263 10.7563 12.9446C10.7771 12.9483 10.7968 12.9496 10.8172 12.952C10.8326 12.9525 10.8479 12.9545 10.8629 12.958C10.878 12.9631 10.8924 12.9813 10.9044 12.9798C11.0083 12.9663 11.0914 13.033 11.1901 13.0378C11.2194 13.0421 11.248 13.0495 11.2753 13.0598C11.3123 13.0698 11.3494 13.0794 11.3864 13.0896C11.4145 13.0974 11.4427 13.1048 11.4695 13.1141C11.488 13.1204 11.5042 13.1326 11.5227 13.1374C11.6071 13.1604 11.6929 13.1795 11.7766 13.2045C11.8726 13.233 11.9671 13.2652 12.0615 13.2982C12.0877 13.3068 12.1126 13.3182 12.1358 13.3321ZM8.61984 21.9897C8.71582 22.0393 8.8035 22.0218 8.88993 22.0219C9.72099 22.0232 10.552 22.0232 11.3819 22.0268C11.5673 22.0275 11.7525 22.0128 11.9349 21.983C12.114 21.954 12.2827 21.8947 12.4471 21.8229C12.6206 21.7452 12.7683 21.6284 12.8753 21.4839C13.0228 21.2899 13.1037 21.0616 13.108 20.8272C13.1098 20.7717 13.113 20.7146 13.1115 20.6585C13.109 20.5611 13.124 20.4581 13.0932 20.3679C13.0625 20.2777 13.0618 20.1772 12.9939 20.0957C12.9378 20.0281 12.8942 19.9522 12.8393 19.8835C12.7641 19.7894 12.6498 19.7353 12.5435 19.6764C12.4782 19.6394 12.409 19.6007 12.3357 19.5862C12.2408 19.5677 12.161 19.4981 12.0544 19.521C12.0409 19.5219 12.0275 19.5183 12.0168 19.5108C11.9617 19.4756 11.8988 19.4777 11.8356 19.4768C11.7893 19.4768 11.739 19.4836 11.697 19.4705C11.5902 19.4368 11.4826 19.4425 11.3729 19.4427C10.6019 19.4427 9.8311 19.4427 9.0603 19.441C8.94727 19.441 8.83432 19.4416 8.72143 19.4429C8.64228 19.4429 8.62379 19.4614 8.62275 19.5325C8.62275 19.5881 8.62088 19.6449 8.62088 19.7012C8.62088 20.4357 8.62088 21.1703 8.62088 21.9051L8.61984 21.9897ZM12.7726 16.2956C12.7325 16.2586 12.7032 16.2325 12.6754 16.205C12.6536 16.1836 12.6374 16.1556 12.6118 16.1389C12.5146 16.0754 12.4198 16.0061 12.3137 15.9569C12.2468 15.9258 12.1795 15.8828 12.0947 15.8828C12.071 15.8828 12.0475 15.863 12.0228 15.8554C11.9939 15.8438 11.963 15.8367 11.9314 15.8345C11.8718 15.8354 11.8127 15.8246 11.7583 15.803C11.7044 15.7818 11.6468 15.7692 11.588 15.7659C11.4934 15.7635 11.3985 15.7771 11.3035 15.7776C11.2173 15.7776 11.1311 15.7667 11.0449 15.7665C10.3638 15.7649 9.68262 15.764 9.00129 15.7639C8.90925 15.7639 8.81721 15.7639 8.72517 15.7596C8.64955 15.7569 8.63272 15.765 8.62732 15.8337C8.62171 15.9078 8.62025 15.9819 8.62046 16.056C8.62198 16.6216 8.62392 17.1872 8.62628 17.7529C8.62628 17.8042 8.62628 17.8557 8.62628 17.9052C8.71282 17.8762 8.80751 17.8728 8.89637 17.8955C8.95916 17.911 9.02404 17.9186 9.08918 17.9181C9.68068 17.9181 10.2722 17.9202 10.8637 17.9181C10.9906 17.9181 11.1215 17.9433 11.2447 17.8905C11.2576 17.8877 11.2711 17.8872 11.2842 17.8892C11.3839 17.8892 11.4837 17.8892 11.5832 17.8892C11.6129 17.8919 11.643 17.8901 11.6721 17.8841C11.8273 17.834 11.9933 17.8226 12.1473 17.7644C12.4063 17.6668 12.6191 17.5298 12.744 17.2979C12.83 17.1384 12.884 16.9736 12.8769 16.7949C12.8726 16.6866 12.8933 16.5766 12.8248 16.4752C12.7984 16.4362 12.7876 16.3882 12.7735 16.3434C12.7703 16.3276 12.77 16.3115 12.7726 16.2956Z" fill="black"/>
<path d="M1.49594 6.83827C1.47516 6.80901 1.45584 6.77771 1.43631 6.74733C1.3313 6.58714 1.24031 6.41996 1.16414 6.2473C1.12798 6.16322 1.10014 6.07543 1.06524 5.99135C0.991275 5.81301 0.97881 5.623 0.915441 5.44354C0.908346 5.41762 0.905823 5.39088 0.907962 5.36427C0.907756 5.27586 0.899557 5.1876 0.883446 5.10036C0.867462 4.98874 0.86809 4.87571 0.885315 4.76423C0.897989 4.66793 0.921467 4.57329 0.910455 4.47532C0.911947 4.45782 0.916722 4.44067 0.924583 4.42458C0.933309 4.39606 0.943905 4.36902 0.950969 4.3392C0.974239 4.24197 0.996262 4.14419 1.01912 4.04677C1.03117 3.99547 1.0696 3.95417 1.08145 3.89972C1.09786 3.81805 1.14377 3.74064 1.18117 3.66267C1.22169 3.57729 1.26428 3.49229 1.31019 3.40969C1.34988 3.33987 1.39787 3.27375 1.44649 3.19912C1.46726 3.21597 1.48804 3.22486 1.49261 3.23838C1.54802 3.38271 1.60176 3.52748 1.65384 3.67267C1.69892 3.79712 1.7411 3.92232 1.78681 4.0464C1.79906 4.07974 1.82317 4.10955 1.83646 4.14252C1.8803 4.24993 1.91604 4.35994 1.96528 4.46513C2.01597 4.57348 2.07892 4.677 2.13647 4.78275C2.16265 4.83053 2.19132 4.87739 2.21376 4.92665C2.2229 4.94684 2.21813 4.97184 2.22041 5.00573C2.28274 5.02036 2.31245 5.08147 2.34902 5.13537C2.39057 5.19556 2.42215 5.26149 2.46495 5.32057C2.53767 5.4215 2.6162 5.51891 2.69183 5.61818C2.72694 5.66411 2.75977 5.71078 2.79571 5.75689C2.81649 5.78264 2.84225 5.80486 2.86427 5.82986C2.9561 5.93357 3.04337 6.04099 3.13977 6.14118C3.26595 6.27193 3.39615 6.39959 3.53037 6.52417C3.70634 6.68733 3.88481 6.84845 4.06827 7.00569C4.17007 7.09236 4.28414 7.16718 4.39217 7.24811C4.42687 7.27422 4.45845 7.30367 4.49335 7.32997C4.60305 7.4122 4.71026 7.49757 4.82578 7.57443C5.02606 7.70907 5.2278 7.84223 5.43494 7.96835C5.64541 8.0965 5.86273 8.21559 6.07756 8.33874C6.18934 8.40227 6.29945 8.46838 6.4158 8.52505C6.53734 8.58413 6.66512 8.63173 6.78978 8.68562C6.8332 8.70414 6.87434 8.72729 6.91693 8.74766C7.00876 8.79118 7.10018 8.83526 7.19325 8.8773C7.21071 8.88508 7.23481 8.88027 7.26847 8.86489C7.2522 8.84279 7.23332 8.8223 7.21216 8.80378C7.06818 8.70303 6.92129 8.60543 6.77772 8.5045C6.6514 8.41579 6.52841 8.32319 6.40271 8.23392C6.20481 8.09082 6.01666 7.93733 5.83925 7.77426C5.70337 7.65147 5.56625 7.52943 5.43349 7.40386C5.3481 7.32293 5.26728 7.23718 5.18812 7.15181C5.06346 7.01643 4.94088 6.87938 4.81934 6.74159C4.78319 6.70066 4.75389 6.65492 4.71546 6.60455L4.73976 6.54602L4.65666 6.54102C4.59994 6.46694 4.54072 6.39675 4.48899 6.32175C4.46531 6.2873 4.45679 6.24471 4.44017 6.20267C4.40796 6.17192 4.3635 6.14081 4.33629 6.10062C4.25318 5.98061 4.1736 5.85857 4.09943 5.73411C4.00781 5.58059 3.91681 5.42613 3.83723 5.26741C3.75766 5.1087 3.6918 4.94739 3.62365 4.7859C3.57109 4.66274 3.51977 4.53903 3.47448 4.41365C3.44435 4.33049 3.42607 4.24401 3.40176 4.15919C3.39698 4.14233 3.38867 4.12604 3.38348 4.10918C3.36997 4.06418 3.35709 4.01918 3.34442 3.97399C3.34213 3.96528 3.34442 3.95547 3.34026 3.94769C3.28583 3.86102 3.29538 3.75934 3.25716 3.66841C3.24411 3.63489 3.23499 3.60026 3.22994 3.56507C3.21789 3.49229 3.21581 3.41784 3.19753 3.34672C3.16283 3.2119 3.17363 3.07559 3.17093 2.93928C3.16699 2.75575 3.17093 2.57204 3.17737 2.3885C3.18031 2.32946 3.19091 2.27092 3.20895 2.21405C3.23721 2.12145 3.22848 2.02274 3.27897 1.93069C3.32052 1.85661 3.31949 1.76401 3.34795 1.68401C3.37122 1.61789 3.41028 1.55604 3.44144 1.49196C3.45032 1.47336 3.45728 1.45409 3.46222 1.43436C3.4859 1.34176 3.57337 1.20935 3.64734 1.15823C3.64235 1.13267 3.63279 1.11119 3.66541 1.08415C3.70239 1.05396 3.71985 1.00489 3.74416 0.966365H3.8337C3.7936 0.88173 3.83765 0.828763 3.89894 0.77487C3.96896 0.713569 4.02817 0.642453 4.09362 0.576708C4.10777 0.566507 4.12343 0.558094 4.14016 0.551706C4.14992 0.546336 4.16779 0.539668 4.16737 0.534668C4.15948 0.449662 4.24487 0.421141 4.29681 0.381879C4.44119 0.2685 4.5955 0.165573 4.75825 0.0740794C4.78547 0.0594487 4.81705 0.0513 4.84489 0.0370397C4.86429 0.0258165 4.88283 0.013442 4.90036 0C4.90734 0.0116146 4.91232 0.0241019 4.91512 0.0370397C4.92841 0.299281 4.94836 0.561521 4.95023 0.823948C4.95127 0.978774 4.99053 1.12841 4.99801 1.28157C4.99947 1.31102 5.00903 1.34047 5.00799 1.36954C5.00532 1.48425 5.02292 1.59862 5.06014 1.70846C5.06928 1.73624 5.06533 1.76716 5.07073 1.79642C5.07842 1.83958 5.0886 1.88236 5.09878 1.92606C5.10498 1.93976 5.10964 1.95396 5.1127 1.96847C5.11145 2.08441 5.17503 2.18868 5.18604 2.30183C5.18989 2.32195 5.19637 2.34159 5.20536 2.36035C5.21844 2.38754 5.22914 2.41559 5.23736 2.44425C5.25975 2.55328 5.29405 2.66009 5.33979 2.76316C5.39111 2.88632 5.42497 3.0154 5.47213 3.14004C5.50454 3.2256 5.54734 3.30801 5.58474 3.39209C5.65164 3.54248 5.71626 3.69378 5.78523 3.84342C5.83053 3.94158 5.88081 4.03788 5.93067 4.13437C5.99799 4.26401 6.06551 4.39513 6.13594 4.5244C6.1669 4.58125 6.20679 4.63422 6.23982 4.69108C6.24855 4.70608 6.24336 4.72812 6.24481 4.75071C6.32792 4.79201 6.35659 4.8785 6.39897 4.95109C6.48526 5.10346 6.58019 5.25181 6.6834 5.39557C6.75383 5.49095 6.80806 5.5954 6.87621 5.69189C6.9296 5.76856 6.99276 5.84005 7.04907 5.91413C7.09477 5.97506 7.13674 6.03802 7.18037 6.10025C7.20115 6.12988 7.22047 6.16044 7.2427 6.18896C7.29776 6.25786 7.36196 6.32212 7.40891 6.39509C7.48412 6.51287 7.58261 6.61418 7.6734 6.72122C7.77416 6.84012 7.866 6.96494 7.96655 7.08402C8.04675 7.17922 8.13484 7.26922 8.21816 7.36182C8.36179 7.52233 8.5048 7.68283 8.64719 7.84334C8.65342 7.85038 8.65945 7.85741 8.6661 7.86408C8.75751 7.95668 8.84851 8.04928 8.94118 8.13984C9.03862 8.23596 9.13814 8.33041 9.23579 8.42597C9.28357 8.47283 9.33198 8.51857 9.35754 8.5808C9.36626 8.60191 9.39535 8.61654 9.4155 8.63395C9.49986 8.70673 9.58587 8.77822 9.66856 8.85248C9.81566 8.98398 9.96255 9.11565 10.1065 9.24992C10.2892 9.42012 10.4892 9.57494 10.6698 9.74644C10.83 9.89886 11.0176 10.0222 11.1861 10.165C11.2594 10.2272 11.3315 10.2904 11.408 10.3502C11.5814 10.4845 11.7549 10.6189 11.9326 10.7487C12.1912 10.9399 12.4513 11.1275 12.7129 11.3116C12.8336 11.3964 12.9623 11.4717 13.0828 11.5575C13.1702 11.6201 13.2542 11.6871 13.3483 11.7427C13.3898 11.7671 13.4414 11.7914 13.4268 11.8558C13.5602 11.8425 13.6277 11.9322 13.7135 11.9855C13.8822 12.0916 14.043 12.2077 14.2066 12.3209C14.3443 12.4159 14.4804 12.5127 14.6183 12.6078C14.695 12.6605 14.775 12.71 14.8517 12.7629C14.9944 12.8615 15.1371 12.9598 15.277 13.0617C15.3253 13.1011 15.3711 13.1429 15.4143 13.1869C15.4227 13.1949 15.432 13.2021 15.4421 13.2084C15.4905 13.2371 15.5414 13.2626 15.5876 13.2937C15.6892 13.3626 15.7883 13.4349 15.8897 13.5039C15.8998 13.5108 15.9312 13.5106 15.9333 13.5062C15.9401 13.4923 15.9462 13.4691 15.9381 13.4593C15.8851 13.3919 15.8282 13.3269 15.7719 13.2609C15.5645 13.0112 15.3321 12.7787 15.0775 12.5665C15.0289 12.527 14.978 12.4899 14.925 12.4553C14.8992 12.4383 14.8598 12.4337 14.8737 12.3918C14.8635 12.3892 14.8535 12.3858 14.844 12.3816C14.7979 12.352 14.7526 12.3214 14.7069 12.2911L14.7131 12.2725H14.8087C15.1477 12.275 15.4866 12.279 15.8255 12.2792C16.1142 12.2792 16.403 12.277 16.6918 12.2711C16.8071 12.2687 16.922 12.2514 17.0373 12.2448C17.1863 12.2361 17.3357 12.2324 17.4849 12.2244C17.5505 12.2209 17.616 12.2124 17.6814 12.2059C17.6877 12.2042 17.6941 12.2028 17.7005 12.2018C17.8316 12.207 17.9629 12.2177 18.094 12.2162C18.2251 12.2148 18.3434 12.2446 18.4636 12.2759C18.6779 12.3314 18.8725 12.4218 19.0221 12.5796C19.1143 12.6786 19.1847 12.7921 19.2299 12.9143C19.2444 12.9513 19.2465 12.9932 19.2563 13.0439C19.1538 13.0411 19.0834 13.1274 18.9785 13.0767C18.9403 13.1285 18.8815 13.1389 18.8202 13.1558C18.7248 13.1821 18.6213 13.1954 18.5343 13.2508C18.5565 13.2972 18.5966 13.2843 18.6299 13.2845C18.8426 13.2856 19.0554 13.2887 19.2679 13.2834C19.4094 13.2798 19.5463 13.2922 19.6764 13.3404C19.7844 13.3804 19.8818 13.4384 19.945 13.5284C20.0082 13.6184 20.0132 13.7219 19.9791 13.8297C19.9396 13.8043 19.8979 13.7817 19.8544 13.7621C19.7638 13.7284 19.6728 13.6919 19.5779 13.673C19.4786 13.6534 19.3745 13.6475 19.275 13.6839C19.2066 13.7089 19.1381 13.7258 19.0624 13.7064C19.0416 13.7008 19.0128 13.7102 18.9901 13.718C18.9598 13.7288 18.9315 13.7564 18.9027 13.7551C18.8073 13.7539 18.7267 13.7995 18.6361 13.8136C18.5763 13.8228 18.5193 13.8506 18.463 13.8728C18.306 13.9357 18.1538 14.0077 18.0074 14.0882C17.7716 14.2179 17.5811 14.3903 17.3995 14.5744C17.2886 14.69 17.1891 14.8139 17.1022 14.9448C17.013 15.0744 16.9202 15.2013 16.8287 15.3292C16.8183 15.3444 16.8068 15.359 16.7943 15.3728C16.7382 15.4317 16.679 15.4861 16.6395 15.558C16.6019 15.6276 16.5356 15.685 16.4832 15.7482C16.3831 15.8676 16.2838 15.9876 16.1832 16.1067C16.1496 16.1467 16.1169 16.1871 16.0561 16.1993C16.0407 16.2025 16.0299 16.2234 16.0145 16.2382C15.9534 16.2132 15.9555 16.1617 15.9455 16.118C15.9067 15.9363 15.8535 15.7573 15.7862 15.5824C15.7234 15.429 15.647 15.2804 15.5576 15.1379C15.486 15.0213 15.3989 14.9109 15.3179 14.7987C15.1959 14.6292 15.0256 14.5023 14.8816 14.3542C14.717 14.184 14.5157 14.0517 14.3206 13.9136C14.2167 13.8395 14.1035 13.776 13.9959 13.706C13.9834 13.6942 13.974 13.6801 13.9682 13.6647C13.9651 13.6571 13.9628 13.6493 13.9614 13.6413C13.8976 13.6615 13.8849 13.5869 13.8216 13.5847C13.7682 13.5826 13.7177 13.5312 13.6643 13.5036C13.6109 13.476 13.5558 13.451 13.5016 13.4248C13.4891 13.4208 13.4773 13.4151 13.4667 13.408C13.3836 13.3339 13.2648 13.3089 13.1719 13.2508C13.0416 13.1693 12.8864 13.1367 12.7547 13.0598C12.7042 13.0306 12.6392 13.0215 12.5814 13.0017C12.5507 12.9909 12.5052 12.9865 12.5376 12.9315C12.4734 12.9326 12.3907 12.9854 12.3676 12.8794C12.2731 12.9193 12.2033 12.8555 12.1243 12.8348C12.0022 12.803 11.8896 12.7357 11.7662 12.7159C11.6654 12.6998 11.5841 12.6294 11.4753 12.6446C11.4591 12.6468 11.4404 12.6298 11.4219 12.6239C11.3916 12.6141 11.3606 12.6053 11.3296 12.5974C11.2922 12.5876 11.2544 12.5789 11.2172 12.5696C11.211 12.5679 11.2064 12.5618 11.2002 12.5603C11.1023 12.5376 11.0047 12.5148 10.9064 12.4929C10.8591 12.4826 10.8106 12.4744 10.7631 12.4651C10.7375 12.4598 10.7126 12.4466 10.6876 12.4466C10.6199 12.4481 10.5547 12.4466 10.5007 12.4044C10.4979 12.4035 10.4949 12.4034 10.4921 12.4042C10.3529 12.4251 10.2331 12.3409 10.0959 12.3468C10.0523 12.3487 10.0076 12.3346 9.95611 12.3266L9.98187 12.2874C9.97626 12.2851 9.97044 12.2809 9.96525 12.2812C9.94219 12.2829 9.91933 12.287 9.89627 12.2885C9.8568 12.2913 9.81067 12.3057 9.77888 12.2927C9.63345 12.2329 9.46121 12.2705 9.3218 12.1909C9.3058 12.1818 9.27838 12.189 9.25636 12.1875C9.20072 12.1858 9.14523 12.1814 9.09015 12.1742C9.06667 12.1703 9.04693 12.149 9.01701 12.1305C8.92652 12.1487 8.832 12.1422 8.74567 12.112C8.71728 12.1044 8.68812 12.0994 8.65862 12.097C8.59982 12.0885 8.54102 12.0807 8.48202 12.0727C8.41366 12.0635 8.3451 12.0542 8.27675 12.0449C8.25389 12.0418 8.23104 12.0381 8.20818 12.0344C8.08456 12.0144 7.96094 11.9953 7.83774 11.9742C7.75089 11.9594 7.66405 11.9434 7.57803 11.9247C7.54812 11.9183 7.49867 11.9314 7.50075 11.8794C7.45919 11.8783 7.41411 11.8675 7.37609 11.8781C7.30337 11.8981 7.23834 11.8705 7.17102 11.8625C7.14796 11.8597 7.12947 11.8297 7.10267 11.807C7.04159 11.846 6.97489 11.8325 6.90654 11.8188C6.84899 11.807 6.78957 11.8025 6.73098 11.794C6.70816 11.7906 6.68561 11.786 6.66345 11.7801C6.63883 11.7715 6.61372 11.764 6.58824 11.7577C6.44925 11.7344 6.30963 11.7127 6.17043 11.6907C6.16711 11.6907 6.16357 11.6907 6.16046 11.6907C6.01752 11.651 5.86232 11.6555 5.72415 11.5943C5.6907 11.5795 5.64437 11.5682 5.61113 11.5771C5.56002 11.591 5.52179 11.5771 5.47816 11.5623C5.43935 11.5467 5.39766 11.5376 5.35516 11.5355C5.29535 11.5369 5.2362 11.5241 5.18376 11.4984C5.16298 11.4886 5.13805 11.4764 5.11831 11.4799C5.04393 11.4938 4.98347 11.4614 4.91927 11.4406C4.87398 11.4254 4.83097 11.4001 4.77737 11.4221C4.76511 11.4271 4.74246 11.4088 4.72376 11.4051C4.62922 11.3865 4.53587 11.3634 4.44411 11.3358C4.39529 11.3208 4.3367 11.3291 4.28767 11.2988C4.26835 11.2864 4.23697 11.2897 4.21142 11.2841C4.18005 11.2771 4.14909 11.269 4.11834 11.2601C4.08759 11.2512 4.0637 11.2415 4.03523 11.2338C4.00448 11.2243 3.9729 11.2152 3.94299 11.2065C3.91307 11.1978 3.88731 11.1827 3.85988 11.1817C3.81667 11.1826 3.77457 11.1695 3.74146 11.1447C3.73394 11.1388 3.72515 11.1345 3.71563 11.1318C3.70612 11.1292 3.69609 11.1283 3.68619 11.1293C3.63238 11.1423 3.59872 11.1156 3.56153 11.0904C3.54744 11.0791 3.52894 11.0732 3.51 11.0739C3.46845 11.0851 3.45038 11.0621 3.4269 11.041C3.40965 11.026 3.38036 11.0062 3.36332 11.0104C3.31595 11.0221 3.28146 11.0056 3.24157 10.9899C3.05458 10.9171 2.86323 10.8541 2.68061 10.7737C2.58346 10.7337 2.4896 10.6877 2.39971 10.6359C2.29583 10.573 2.1774 10.5308 2.065 10.4795C2.05628 10.4754 2.04215 10.4724 2.04007 10.4665C2.02137 10.4096 1.95697 10.4122 1.91541 10.3876C1.85495 10.353 1.79844 10.3135 1.74027 10.2754L1.69352 10.2457C1.63264 10.2067 1.57032 10.1694 1.51131 10.1283C1.44254 10.0804 1.37439 10.0313 1.31019 9.97868C1.20631 9.8933 1.10243 9.80737 1.00374 9.71662C0.934163 9.65075 0.869217 9.5811 0.809274 9.50809C0.782888 9.47679 0.771045 9.43604 0.746945 9.38863C0.68046 9.38234 0.646802 9.31807 0.612313 9.26622C0.532531 9.14565 0.461891 9.01972 0.395199 8.89286C0.328506 8.766 0.271787 8.64136 0.215899 8.51357C0.193668 8.46246 0.187019 8.40579 0.170606 8.35226C0.142765 8.26226 0.112432 8.17281 0.0843834 8.08298C0.0729252 8.04903 0.0643141 8.01437 0.0586208 7.97927C0.0392987 7.83889 0.0199766 7.69814 0.00543309 7.55721C-0.00183867 7.48665 0.000446536 7.41535 3.1007e-05 7.34423C3.1007e-05 7.21755 3.1007e-05 7.09106 3.1007e-05 6.96439C3.1007e-05 6.82215 3.1007e-05 6.67992 3.1007e-05 6.53843C0.0017962 6.52798 0.00544422 6.51785 0.0108345 6.50843C0.0577893 6.50417 0.0633989 6.53565 0.0744104 6.55788C0.113678 6.63899 0.148998 6.72159 0.189097 6.80234C0.210354 6.84158 0.233934 6.87978 0.259737 6.91679C0.354062 7.06199 0.444232 7.20959 0.544998 7.35145C0.722013 7.60091 0.942035 7.81963 1.1766 8.02687C1.28609 8.12354 1.39164 8.22466 1.50902 8.31282C1.65612 8.42394 1.81153 8.52468 1.96798 8.62432C2.10822 8.71359 2.2522 8.79896 2.3995 8.8786C2.51128 8.93897 2.63075 8.98786 2.74709 9.0412C2.90811 9.11528 3.06809 9.18936 3.23098 9.26066C3.34356 9.31293 3.45957 9.35912 3.57836 9.399C3.6945 9.43493 3.80399 9.48735 3.91805 9.52864C3.99036 9.55531 4.07242 9.56568 4.13725 9.60272C4.20726 9.64162 4.30076 9.62791 4.35727 9.69014C4.36371 9.69699 4.38199 9.69662 4.39487 9.69755C4.41128 9.69559 4.42791 9.69559 4.44432 9.69755C4.52306 9.72366 4.60077 9.75311 4.6791 9.77959C4.69889 9.78938 4.72062 9.79567 4.74309 9.79811C4.80978 9.79589 4.85507 9.82311 4.88624 9.87682C4.94171 9.85422 4.99199 9.84996 5.03583 9.88923C5.04329 9.89523 5.0528 9.89882 5.06284 9.89941C5.22572 9.90719 5.36887 9.98145 5.52698 10.0072C5.62879 10.0239 5.72498 10.0665 5.82533 10.0924C5.91987 10.1168 6.01689 10.1342 6.11246 10.1557C6.1858 10.1724 6.2579 10.1904 6.33166 10.2083C6.44967 10.237 6.56581 10.2759 6.68485 10.292C6.78998 10.3061 6.8841 10.3489 6.99089 10.36C7.09768 10.3711 7.19658 10.4156 7.29963 10.4443C7.32117 10.4514 7.3438 10.4554 7.36674 10.4563C7.42117 10.4563 7.47311 10.458 7.51446 10.4954C7.51903 10.4998 7.52536 10.5026 7.53212 10.503C7.64577 10.4889 7.73988 10.5613 7.84937 10.5621C7.87869 10.5654 7.9074 10.5721 7.93477 10.5821C7.96281 10.5891 7.99065 10.603 8.01787 10.6028C8.06796 10.6003 8.11747 10.6134 8.15791 10.6398C8.16061 10.6415 8.16331 10.6448 8.16601 10.6448C8.27259 10.6448 8.36671 10.6924 8.46872 10.7091C8.49781 10.7139 8.53105 10.7091 8.55619 10.7204C8.62153 10.7501 8.69445 10.764 8.76769 10.7608C8.78847 10.7608 8.80925 10.7763 8.83002 10.7834C8.85727 10.7937 8.8855 10.8019 8.91438 10.8078C8.97671 10.8176 9.03903 10.825 9.10136 10.8306C9.12184 10.8289 9.14193 10.8245 9.16099 10.8176C9.10448 10.7206 8.94907 10.758 8.91708 10.6522C8.83397 10.6778 8.77663 10.6296 8.71554 10.6043C8.60688 10.5591 8.49802 10.5152 8.38603 10.4765C8.32703 10.4559 8.27405 10.4235 8.20839 10.4141C8.18928 10.4113 8.17494 10.3813 8.15707 10.3622C8.13941 10.3654 8.10679 10.3794 8.09724 10.3715C8.0507 10.3326 7.98151 10.3381 7.93809 10.3085C7.88282 10.2715 7.79847 10.2843 7.7617 10.2207C7.75879 10.2155 7.74321 10.2133 7.73427 10.2142C7.64951 10.2228 7.58738 10.175 7.51695 10.1468C7.45005 10.1202 7.3817 10.0959 7.31355 10.0716C7.25641 10.0513 7.19824 10.0333 7.14111 10.0126C7.09561 9.9959 7.05073 9.97756 7.00647 9.95849C6.79455 9.86719 6.57349 9.79515 6.35638 9.71477C6.29634 9.69255 6.24522 9.65736 6.17978 9.63958C6.06509 9.60828 5.95685 9.55809 5.84736 9.51364C5.77983 9.48642 5.7148 9.45457 5.64769 9.42623C5.62949 9.42006 5.61052 9.41589 5.59118 9.41382C5.57518 9.41086 5.55586 9.41382 5.54319 9.4066C5.42206 9.33882 5.28847 9.29696 5.1555 9.2527C5.09317 9.23214 5.03853 9.17732 4.97807 9.17399C4.90265 9.1701 4.86089 9.11565 4.78983 9.10806C4.73208 9.10195 4.67868 9.06417 4.62362 9.04157C4.54987 9.01175 4.47486 8.98435 4.40173 8.9536C4.31862 8.91879 4.23552 8.88323 4.15574 8.84452C4.02672 8.78248 3.89769 8.72062 3.77241 8.65321C3.63342 8.57821 3.49712 8.49857 3.36228 8.41764C3.26235 8.35782 3.17156 8.28504 3.06809 8.23133C2.86967 8.12817 2.69765 7.99539 2.5279 7.86093C2.42049 7.7763 2.30227 7.7024 2.20379 7.60888C2.13876 7.54721 2.07394 7.48516 2.01078 7.42183C1.90212 7.31256 1.79491 7.20218 1.68708 7.09236C1.63929 7.03476 1.55972 6.9242 1.49594 6.83827Z" fill="black"/>
</svg>
