<svg width="19" height="19" viewBox="0 0 19 19" fill="none" xmlns="http://www.w3.org/2000/svg">
<path d="M18.1157 4.84462L9.84295 0.708252C9.78823 0.680956 9.72792 0.666748 9.66677 0.666748C9.60561 0.666748 9.5453 0.680956 9.49058 0.708252L1.21785 4.84462C1.15239 4.87732 1.09734 4.92762 1.05886 4.98986C1.02039 5.0521 1 5.12382 1 5.19699V13.4697C0.999984 13.5429 1.02034 13.6146 1.05878 13.6768C1.09722 13.7391 1.15223 13.7894 1.21765 13.8221L9.49038 17.9585C9.5451 17.9859 9.60546 18.0002 9.66667 18.0002C9.72787 18.0002 9.78823 17.9859 9.84295 17.9585L18.1157 13.8221C18.1811 13.7894 18.2361 13.7391 18.2746 13.6768C18.313 13.6146 18.3333 13.5429 18.3333 13.4697V5.19699C18.3333 5.12384 18.313 5.05213 18.2746 4.98989C18.2361 4.92766 18.1811 4.87735 18.1157 4.84462ZM9.66667 1.50105L17.0585 5.19699L15.4773 5.98763L8.08559 2.29169L9.66667 1.50105ZM12.3258 7.56339L4.93388 3.86745L7.20455 2.73212L14.5964 6.42805L12.3258 7.56339ZM12.6212 8.29651L14.9848 7.11469V10.045L14.2289 9.50512C14.1864 9.47481 14.1382 9.45324 14.0873 9.44164C14.0364 9.43004 13.9837 9.42866 13.9322 9.43755C13.8808 9.4466 13.8317 9.46573 13.7877 9.49386C13.7437 9.52199 13.7058 9.55855 13.676 9.60143L12.6212 11.1254V8.29651ZM4.05303 4.30787L11.4447 8.00381L9.66667 8.89293L2.27479 5.19699L4.05303 4.30787ZM1.78788 5.83439L9.27273 9.57681V16.9685L1.78788 13.2261V5.83439ZM10.0606 16.9687V9.57681L11.8333 8.69045V12.3864C11.8333 12.4704 11.8601 12.5522 11.9098 12.6199C11.9595 12.6876 12.0296 12.7376 12.1098 12.7627C12.19 12.7877 12.276 12.7865 12.3555 12.7592C12.4349 12.7318 12.5035 12.6798 12.5513 12.6107L14.0965 10.3789L15.1501 11.1313C15.209 11.1735 15.2783 11.1987 15.3506 11.204C15.4228 11.2093 15.4951 11.1945 15.5595 11.1614C15.6239 11.1282 15.6779 11.0779 15.7155 11.016C15.7531 10.9541 15.7729 10.8831 15.7727 10.8106V6.72075L17.5455 5.83439V13.2261L10.0606 16.9687Z" fill="black" stroke="black" stroke-width="0.2"/>
</svg>
