<svg width="17" height="17" viewBox="0 0 17 17" fill="none" xmlns="http://www.w3.org/2000/svg">
<path d="M16.9697 7.92666L15.8363 5.65987C15.8134 5.61266 15.7775 5.57295 15.7328 5.54535C15.6882 5.51776 15.6366 5.50343 15.5841 5.50403H15.3688L15.0854 5.22069H15.5841C15.6593 5.22069 15.7313 5.19083 15.7845 5.13769C15.8376 5.08456 15.8675 5.01249 15.8675 4.93734V3.80395C15.8675 3.7288 15.8376 3.65673 15.7845 3.60359C15.7313 3.55045 15.6593 3.5206 15.5841 3.5206H15.0854L15.4396 3.16925C15.4927 3.11575 15.5225 3.04344 15.5225 2.96807C15.5225 2.89271 15.4927 2.82039 15.4396 2.7669L14.6377 1.96502C14.5842 1.91194 14.5119 1.88215 14.4366 1.88215C14.3612 1.88215 14.2889 1.91194 14.2354 1.96502L13.884 2.31921V1.82051C13.884 1.74537 13.8542 1.67329 13.801 1.62016C13.7479 1.56702 13.6758 1.53717 13.6007 1.53717H12.4673C12.3921 1.53717 12.3201 1.56702 12.2669 1.62016C12.2138 1.67329 12.1839 1.74537 12.1839 1.82051V2.31921L11.8326 1.96502C11.7791 1.91194 11.7068 1.88215 11.6314 1.88215C11.5561 1.88215 11.4837 1.91194 11.4302 1.96502L10.6284 2.7669C10.5753 2.82039 10.5455 2.89271 10.5455 2.96807C10.5455 3.04344 10.5753 3.11575 10.6284 3.16925L10.9826 3.5206H10.4839C10.4087 3.5206 10.3366 3.55045 10.2835 3.60359C10.2304 3.65673 10.2005 3.7288 10.2005 3.80395V4.93734C10.2005 5.01249 10.2304 5.08456 10.2835 5.13769C10.3366 5.19083 10.4087 5.22069 10.4839 5.22069H10.9826L10.6992 5.50403H9.06712V4.9175C9.06672 4.79946 9.09124 4.68266 9.1391 4.57475C9.18695 4.46684 9.25705 4.37025 9.3448 4.29131C9.6691 4.00316 9.91453 3.63705 10.0579 3.2276C10.2012 2.81815 10.2377 2.3789 10.164 1.9514C10.0902 1.5239 9.90864 1.12228 9.63638 0.78453C9.36412 0.446784 9.0102 0.184076 8.6081 0.0212565C8.56495 0.00352971 8.51809 -0.00326996 8.47169 0.00146114C8.42528 0.00619224 8.38076 0.0223077 8.34207 0.048377C8.30339 0.0744464 8.27174 0.109663 8.24994 0.150901C8.22813 0.192139 8.21685 0.238122 8.21708 0.28477V2.2342L7.65039 2.61389L7.08369 2.2342V0.28477C7.08392 0.238122 7.07264 0.192139 7.05083 0.150901C7.02903 0.109663 6.99738 0.0744464 6.9587 0.048377C6.92001 0.0223077 6.87549 0.00619224 6.82908 0.00146114C6.78268 -0.00326996 6.73582 0.00352971 6.69267 0.0212565C6.29057 0.184076 5.93665 0.446784 5.66439 0.78453C5.39213 1.12228 5.21054 1.5239 5.13678 1.9514C5.06302 2.3789 5.09955 2.81815 5.24289 3.2276C5.38624 3.63705 5.63167 4.00316 5.95597 4.29131C6.04373 4.37025 6.11382 4.46684 6.16168 4.57475C6.20953 4.68266 6.23405 4.79946 6.23365 4.9175V5.50403H5.9503C5.89782 5.50343 5.84624 5.51776 5.80159 5.54535C5.75694 5.57295 5.72106 5.61266 5.69812 5.65987L4.56473 7.92666C4.54299 7.96979 4.53265 8.01776 4.53467 8.06602C4.53669 8.11428 4.55101 8.16122 4.57628 8.20239C4.60155 8.24355 4.63692 8.27757 4.67903 8.30122C4.72115 8.32487 4.76861 8.33736 4.81691 8.33751H5.66695V11.8L5.10026 11.9417V11.4543C5.10026 11.3792 5.0704 11.3071 5.01727 11.254C4.96413 11.2008 4.89206 11.171 4.81691 11.171H2.55013C2.47498 11.171 2.40291 11.2008 2.34977 11.254C2.29663 11.3071 2.26678 11.3792 2.26678 11.4543V11.7377H0.283348C0.208199 11.7377 0.136129 11.7675 0.0829906 11.8207C0.0298526 11.8738 0 11.9459 0 12.021V15.9879C0 16.063 0.0298526 16.1351 0.0829906 16.1883C0.136129 16.2414 0.208199 16.2712 0.283348 16.2712H2.26678V16.5546C2.26678 16.6297 2.29663 16.7018 2.34977 16.7549C2.40291 16.8081 2.47498 16.8379 2.55013 16.8379H4.81691C4.89206 16.8379 4.96413 16.8081 5.01727 16.7549C5.0704 16.7018 5.10026 16.6297 5.10026 16.5546V16.1636L5.46578 16.3449C5.74134 16.4821 6.04484 16.5538 6.35265 16.5546H10.5944C10.9427 16.5553 11.285 16.4634 11.5861 16.2882L16.3463 13.5398C16.5557 13.419 16.7208 13.2344 16.8176 13.0129C16.9144 12.7915 16.9378 12.5448 16.8842 12.3091C16.8307 12.0735 16.7031 11.8611 16.5201 11.7032C16.3372 11.5453 16.1084 11.4501 15.8675 11.4317V8.33751H16.7175C16.7658 8.33736 16.8133 8.32487 16.8554 8.30122C16.8975 8.27757 16.9329 8.24355 16.9581 8.20239C16.9834 8.16122 16.9977 8.11428 16.9998 8.06602C17.0018 8.01776 16.9914 7.96979 16.9697 7.92666ZM2.26678 15.7045H0.566695V12.3044H2.26678V15.7045ZM4.53356 16.2712H2.83348V11.7377H4.53356V16.2712ZM10.7672 4.65399V4.0873H11.4331C11.4939 4.08712 11.5531 4.0675 11.6021 4.03132C11.651 3.99513 11.6871 3.94426 11.7051 3.88612C11.7175 3.84598 11.7336 3.80708 11.7533 3.76995C11.7812 3.71646 11.7913 3.65546 11.7821 3.59583C11.7729 3.5362 11.7449 3.48106 11.7023 3.43843L11.2291 2.96807L11.6314 2.56572L12.1018 3.03891C12.1444 3.08159 12.1995 3.10956 12.2592 3.11873C12.3188 3.12791 12.3798 3.11781 12.4333 3.08991C12.4704 3.07026 12.5093 3.05414 12.5495 3.04174C12.6076 3.02375 12.6585 2.98766 12.6947 2.93873C12.7309 2.8898 12.7505 2.83059 12.7506 2.76973V2.10386H13.3173V2.76973C13.3175 2.83059 13.3371 2.8898 13.3733 2.93873C13.4095 2.98766 13.4604 3.02375 13.5185 3.04174C13.5587 3.05414 13.5976 3.07026 13.6347 3.08991C13.6882 3.11781 13.7492 3.12791 13.8088 3.11873C13.8684 3.10956 13.9236 3.08159 13.9662 3.03891L14.4366 2.56572L14.8389 2.96807L14.3657 3.43843C14.323 3.48106 14.2951 3.5362 14.2859 3.59583C14.2767 3.65546 14.2868 3.71646 14.3147 3.76995C14.3344 3.80708 14.3505 3.84598 14.3629 3.88612C14.3809 3.94426 14.417 3.99513 14.4659 4.03132C14.5148 4.0675 14.574 4.08712 14.6349 4.0873H15.3008V4.65399H14.6349C14.574 4.65417 14.5148 4.67378 14.4659 4.70997C14.417 4.74616 14.3809 4.79703 14.3629 4.85517C14.3505 4.89531 14.3344 4.9342 14.3147 4.97134C14.2868 5.02483 14.2767 5.08583 14.2859 5.14546C14.2951 5.20508 14.323 5.26023 14.3657 5.30286L14.5697 5.50403H11.4982L11.7023 5.30286C11.7449 5.26023 11.7729 5.20508 11.7821 5.14546C11.7913 5.08583 11.7812 5.02483 11.7533 4.97134C11.7336 4.9342 11.7175 4.89531 11.7051 4.85517C11.6871 4.79703 11.651 4.74616 11.6021 4.70997C11.5531 4.67378 11.4939 4.65417 11.4331 4.65399H10.7672ZM11.0506 6.98877L11.6484 8.18167C11.6714 8.22888 11.7072 8.2686 11.7519 8.29619C11.7965 8.32378 11.8481 8.33811 11.9006 8.33751H15.3008V11.5337C15.2724 11.5478 15.2413 11.562 15.2129 11.5762L12.4503 13.1714C12.2994 12.9454 12.072 12.7814 11.8099 12.7096L11.0506 12.5084V6.98877ZM5.66695 2.38721C5.66625 2.06713 5.74323 1.75166 5.89129 1.46788C6.03935 1.1841 6.25406 0.94049 6.51699 0.75796V2.38721C6.51724 2.43388 6.529 2.47977 6.55125 2.52079C6.57349 2.56182 6.60552 2.59672 6.6445 2.62239L7.49454 3.18908C7.54028 3.22091 7.59467 3.23796 7.65039 3.23796C7.7061 3.23796 7.76049 3.22091 7.80623 3.18908L8.65627 2.62239C8.69525 2.59672 8.72728 2.56182 8.74953 2.52079C8.77177 2.47977 8.78353 2.43388 8.78378 2.38721V0.75796C9.02974 0.929148 9.23372 1.15385 9.38038 1.41517C9.52705 1.6765 9.6126 1.96767 9.63059 2.2668C9.64859 2.56593 9.59857 2.86525 9.48429 3.14228C9.37002 3.41931 9.19445 3.66684 8.97079 3.86628C8.82201 3.99787 8.70308 4.15974 8.62196 4.34104C8.54084 4.52234 8.4994 4.71889 8.50043 4.9175V5.50403H7.93373V4.65399C7.93373 4.57884 7.90388 4.50677 7.85074 4.45363C7.7976 4.4005 7.72553 4.37064 7.65039 4.37064C7.57524 4.37064 7.50317 4.4005 7.45003 4.45363C7.39689 4.50677 7.36704 4.57884 7.36704 4.65399V5.50403H6.80034V4.9175C6.80125 4.71917 6.76005 4.52291 6.67945 4.34169C6.59886 4.16048 6.48071 3.99844 6.33282 3.86628C6.12326 3.68109 5.95551 3.45342 5.8407 3.19841C5.7259 2.9434 5.66667 2.66687 5.66695 2.38721ZM5.27593 7.77081L6.12598 6.07073H10.3082L9.45814 7.77081H5.27593ZM10.4839 6.98877V12.3554L7.58238 11.579C7.25704 11.4912 6.91463 11.4883 6.58783 11.5705L6.23365 11.6583V8.33751H9.63382C9.6863 8.33811 9.73788 8.32378 9.78253 8.29619C9.82718 8.2686 9.86306 8.22888 9.886 8.18167L10.4839 6.98877ZM16.267 12.276C16.3422 12.4057 16.363 12.56 16.3248 12.705C16.2865 12.8499 16.1924 12.9739 16.063 13.0496L11.3027 15.7981C11.0875 15.9226 10.8431 15.9881 10.5944 15.9879H6.35265C6.13223 15.9883 5.9148 15.9369 5.71795 15.8377L5.10026 15.5289V12.5254L6.72384 12.1202C6.95748 12.0611 7.20237 12.0631 7.43504 12.1259L11.6626 13.2593C11.7714 13.2875 11.8692 13.3476 11.9436 13.4318C12.018 13.516 12.0656 13.6205 12.0802 13.7319C12.0948 13.8434 12.0758 13.9566 12.0256 14.0571C11.9754 14.1577 11.8964 14.241 11.7986 14.2963C11.7347 14.334 11.6639 14.3584 11.5904 14.3681C11.5169 14.3779 11.4422 14.3727 11.3707 14.353L7.9904 13.4463C7.91751 13.4267 7.83984 13.4369 7.77448 13.4747C7.70912 13.5124 7.66142 13.5746 7.64188 13.6474C7.62235 13.7203 7.63257 13.798 7.67029 13.8634C7.70802 13.9287 7.77017 13.9764 7.84306 13.996L11.2234 14.8998C11.3195 14.9257 11.4186 14.9391 11.5181 14.9395C11.7163 14.9398 11.911 14.887 12.0819 14.7865C12.2114 14.7125 12.325 14.6136 12.4159 14.4954C12.5069 14.3772 12.5735 14.2421 12.6118 14.098C12.6432 13.9731 12.6538 13.8438 12.643 13.7154L15.4963 12.0692C15.6265 11.9969 15.7797 11.9781 15.9235 12.0167C16.0673 12.0553 16.1905 12.1483 16.267 12.276ZM12.0763 7.77081L11.2262 6.07073H15.4084L16.2585 7.77081H12.0763Z" fill="black"/>
<path d="M14.1672 4.3707C14.1672 4.14653 14.1007 3.9274 13.9762 3.74102C13.8516 3.55463 13.6746 3.40936 13.4675 3.32358C13.2604 3.2378 13.0325 3.21535 12.8127 3.25908C12.5928 3.30282 12.3909 3.41076 12.2324 3.56927C12.0738 3.72778 11.9659 3.92973 11.9222 4.14958C11.8784 4.36944 11.9009 4.59733 11.9867 4.80443C12.0724 5.01153 12.2177 5.18854 12.4041 5.31308C12.5905 5.43761 12.8096 5.50409 13.0338 5.50409C13.3344 5.50409 13.6227 5.38468 13.8352 5.17212C14.0478 4.95957 14.1672 4.67129 14.1672 4.3707ZM13.0338 4.93739C12.9217 4.93739 12.8121 4.90416 12.7189 4.84189C12.6258 4.77962 12.5531 4.69111 12.5102 4.58756C12.4673 4.48401 12.4561 4.37007 12.478 4.26014C12.4998 4.15021 12.5538 4.04924 12.6331 3.96998C12.7123 3.89073 12.8133 3.83676 12.9232 3.81489C13.0332 3.79302 13.1471 3.80425 13.2506 3.84714C13.3542 3.89003 13.4427 3.96266 13.505 4.05586C13.5672 4.14905 13.6005 4.25861 13.6005 4.3707C13.6005 4.52099 13.5408 4.66513 13.4345 4.77141C13.3282 4.87769 13.1841 4.93739 13.0338 4.93739Z" fill="black"/>
</svg>
