<svg width="16" height="16" viewBox="0 0 16 16" fill="none" xmlns="http://www.w3.org/2000/svg">
<path d="M7.2451 11.78L5.8301 13.19C5.54787 13.471 5.16584 13.6287 4.7676 13.6287C4.36936 13.6287 3.98733 13.471 3.7051 13.19L2.2901 11.775C1.7101 11.195 1.7101 10.24 2.2901 9.655L3.7051 8.24L7.2451 11.78ZM13.9601 7.885L7.5951 1.525C7.5412 1.46836 7.4744 1.4256 7.40039 1.40035C7.32639 1.3751 7.24739 1.36812 7.1701 1.38C7.0101 1.405 6.8751 1.5 6.8001 1.64L3.9351 7.055L8.4401 11.56L13.8401 8.68C13.9801 8.61 14.0751 8.47 14.1001 8.315C14.1251 8.155 14.0701 8 13.9601 7.885ZM3.0001 13.895L1.5851 12.48C1.3851 12.28 1.2301 12.06 1.1151 11.82C0.865103 12.52 1.0251 13.335 1.5851 13.895C1.85075 14.1638 2.18753 14.3512 2.55594 14.4353C2.92435 14.5195 3.30912 14.4968 3.6651 14.37C3.41675 14.2528 3.1915 14.0919 3.0001 13.895ZM8.8351 13.365L7.9551 12.485L6.5351 13.9C6.4151 14.02 6.2851 14.125 6.1451 14.215L7.0651 15.135C7.3001 15.37 7.6151 15.5 7.9501 15.5C8.2851 15.5 8.6001 15.37 8.8351 15.135C9.3201 14.645 9.3201 13.855 8.8351 13.365ZM10.5001 2V1C10.5001 0.867392 10.4474 0.740215 10.3537 0.646447C10.2599 0.552678 10.1327 0.5 10.0001 0.5C9.86749 0.5 9.74032 0.552678 9.64655 0.646447C9.55278 0.740215 9.5001 0.867392 9.5001 1V2C9.5001 2.13261 9.55278 2.25979 9.64655 2.35355C9.74032 2.44732 9.86749 2.5 10.0001 2.5C10.1327 2.5 10.2599 2.44732 10.3537 2.35355C10.4474 2.25979 10.5001 2.13261 10.5001 2ZM15.0001 5.5C15.0001 5.36739 14.9474 5.24021 14.8537 5.14645C14.7599 5.05268 14.6327 5 14.5001 5H13.5001C13.3675 5 13.2403 5.05268 13.1465 5.14645C13.0528 5.24021 13.0001 5.36739 13.0001 5.5C13.0001 5.63261 13.0528 5.75979 13.1465 5.85355C13.2403 5.94732 13.3675 6 13.5001 6H14.5001C14.6327 6 14.7599 5.94732 14.8537 5.85355C14.9474 5.75979 15.0001 5.63261 15.0001 5.5ZM12.3536 3.8535L13.3536 2.8535C13.4014 2.80738 13.4394 2.7522 13.4657 2.6912C13.4919 2.6302 13.5057 2.56459 13.5062 2.4982C13.5068 2.43181 13.4942 2.36597 13.469 2.30452C13.4439 2.24307 13.4067 2.18725 13.3598 2.1403C13.3129 2.09336 13.257 2.05623 13.1956 2.03109C13.1341 2.00595 13.0683 1.9933 13.0019 1.99387C12.9355 1.99445 12.8699 2.00824 12.8089 2.03445C12.7479 2.06065 12.6927 2.09874 12.6466 2.1465L11.6466 3.1465C11.5988 3.19262 11.5608 3.2478 11.5346 3.3088C11.5083 3.3698 11.4946 3.43541 11.494 3.5018C11.4934 3.56819 11.5061 3.63403 11.5312 3.69548C11.5563 3.75693 11.5935 3.81275 11.6404 3.8597C11.6874 3.90664 11.7432 3.94377 11.8046 3.96891C11.8661 3.99405 11.9319 4.0067 11.9983 4.00613C12.0647 4.00555 12.1303 3.99176 12.1913 3.96555C12.2523 3.93935 12.3075 3.90125 12.3536 3.8535Z" fill="white"/>
</svg>
