<svg width="18" height="17" viewBox="0 0 18 17" fill="none" xmlns="http://www.w3.org/2000/svg">
<path d="M3.375 4.57692C3.375 4.40351 3.43426 4.2372 3.53975 4.11458C3.64524 3.99196 3.78832 3.92308 3.9375 3.92308H11.8125C11.9617 3.92308 12.1048 3.99196 12.2102 4.11458C12.3157 4.2372 12.375 4.40351 12.375 4.57692C12.375 4.75033 12.3157 4.91664 12.2102 5.03926C12.1048 5.16188 11.9617 5.23077 11.8125 5.23077H3.9375C3.78832 5.23077 3.64524 5.16188 3.53975 5.03926C3.43426 4.91664 3.375 4.75033 3.375 4.57692ZM9.5625 7.84615C9.41332 7.84615 9.27024 7.91504 9.16475 8.03766C9.05926 8.16028 9 8.32659 9 8.5C9 8.67341 9.05926 8.83972 9.16475 8.96234C9.27024 9.08496 9.41332 9.15385 9.5625 9.15385H11.8125C11.9617 9.15385 12.1048 9.08496 12.2102 8.96234C12.3157 8.83972 12.375 8.67341 12.375 8.5C12.375 8.32659 12.3157 8.16028 12.2102 8.03766C12.1048 7.91504 11.9617 7.84615 11.8125 7.84615H9.5625ZM9 12.4231C9 12.2497 9.05926 12.0834 9.16475 11.9607C9.27024 11.8381 9.41332 11.7692 9.5625 11.7692H11.8125C11.9617 11.7692 12.1048 11.8381 12.2102 11.9607C12.3157 12.0834 12.375 12.2497 12.375 12.4231C12.375 12.5965 12.3157 12.7628 12.2102 12.8854C12.1048 13.008 11.9617 13.0769 11.8125 13.0769H9.5625C9.41332 13.0769 9.27024 13.008 9.16475 12.8854C9.05926 12.7628 9 12.5965 9 12.4231ZM3.9375 7.84615C3.78832 7.84615 3.64524 7.91504 3.53975 8.03766C3.43426 8.16028 3.375 8.32659 3.375 8.5V12.4231C3.375 12.5965 3.43426 12.7628 3.53975 12.8854C3.64524 13.008 3.78832 13.0769 3.9375 13.0769H7.3125C7.46168 13.0769 7.60476 13.008 7.71025 12.8854C7.81574 12.7628 7.875 12.5965 7.875 12.4231V8.5C7.875 8.32659 7.81574 8.16028 7.71025 8.03766C7.60476 7.91504 7.46168 7.84615 7.3125 7.84615H3.9375ZM4.5 11.7692V9.15385H6.75V11.7692H4.5ZM0 2.61538C0 1.92174 0.237053 1.25651 0.65901 0.766028C1.08097 0.275549 1.65326 0 2.25 0H13.5C14.0967 0 14.669 0.275549 15.091 0.766028C15.5129 1.25651 15.75 1.92174 15.75 2.61538V3.92308C16.3467 3.92308 16.919 4.19863 17.341 4.68911C17.7629 5.17958 18 5.84482 18 6.53846V13.7308C18 14.5978 17.7037 15.4294 17.1762 16.0425C16.6488 16.6556 15.9334 17 15.1875 17H2.8125C2.06658 17 1.35121 16.6556 0.823762 16.0425C0.296316 15.4294 0 14.5978 0 13.7308V2.61538ZM14.625 2.61538C14.625 2.26856 14.5065 1.93595 14.2955 1.69071C14.0845 1.44547 13.7984 1.30769 13.5 1.30769H2.25C1.95163 1.30769 1.66548 1.44547 1.4545 1.69071C1.24353 1.93595 1.125 2.26856 1.125 2.61538V13.7308C1.125 14.251 1.30279 14.7499 1.61926 15.1178C1.93572 15.4856 2.36495 15.6923 2.8125 15.6923H15.1875C15.6351 15.6923 16.0643 15.4856 16.3807 15.1178C16.6972 14.7499 16.875 14.251 16.875 13.7308V6.53846C16.875 6.19164 16.7565 5.85902 16.5455 5.61378C16.3345 5.36854 16.0484 5.23077 15.75 5.23077V13.7308C15.75 13.9042 15.6907 14.0705 15.5852 14.1931C15.4798 14.3157 15.3367 14.3846 15.1875 14.3846C15.0383 14.3846 14.8952 14.3157 14.7898 14.1931C14.6843 14.0705 14.625 13.9042 14.625 13.7308V2.61538Z" fill="black"/>
</svg>
