<svg width="18" height="17" viewBox="0 0 18 17" fill="none" xmlns="http://www.w3.org/2000/svg">
<g clip-path="url(#clip0_1_14344)">
<path fill-rule="evenodd" clip-rule="evenodd" d="M11.0787 2.6881C11.6869 1.97679 12.0953 0.985589 11.9838 0C11.1091 0.0343729 10.0505 0.564697 9.42415 1.276C8.86154 1.90594 8.36915 2.91398 8.50239 3.87992C9.47701 3.95358 10.4734 3.40011 11.0801 2.6881H11.0787ZM13.2669 8.94396C13.2915 11.4918 15.5738 12.3399 15.5985 12.3511C15.5804 12.4107 15.235 13.559 14.3965 14.7453C13.6724 15.7708 12.9208 16.7929 11.7362 16.8139C10.5726 16.8343 10.1989 16.1454 8.86805 16.1454C7.53862 16.1454 7.123 16.7929 6.02093 16.8343C4.87832 16.8764 4.00796 15.7252 3.27663 14.7039C1.78501 12.6134 0.644566 8.79735 2.17602 6.22149C2.93559 4.94197 4.29543 4.13176 5.77112 4.11141C6.89346 4.09037 7.9528 4.84306 8.63852 4.84306C9.32495 4.84306 10.6124 3.93815 11.9657 4.07073C12.5327 4.09388 14.1228 4.2924 15.1445 5.74097C15.0619 5.79007 13.2466 6.81424 13.2662 8.94396" fill="black"/>
</g>
<defs>
<clipPath id="clip0_1_14344">
<rect width="17.3782" height="16.8357" fill="white"/>
</clipPath>
</defs>
</svg>
