<svg width="16" height="16" viewBox="0 0 16 16" fill="none" xmlns="http://www.w3.org/2000/svg">
<path d="M4.50668 14.6667H11.4933C13.3333 14.6667 14.0667 13.54 14.1533 12.1667L14.5 6.66004C14.5933 5.22004 13.4467 4.00004 12 4.00004C11.5933 4.00004 11.22 3.76671 11.0333 3.40671L10.5533 2.44004C10.2467 1.83337 9.44668 1.33337 8.76668 1.33337H7.24001C6.55334 1.33337 5.75334 1.83337 5.44668 2.44004L4.96668 3.40671C4.78001 3.76671 4.40668 4.00004 4.00001 4.00004C2.55334 4.00004 1.40668 5.22004 1.50001 6.66004L1.84668 12.1667C1.92668 13.54 2.66668 14.6667 4.50668 14.6667Z" stroke="#FAFAFA" stroke-linecap="round" stroke-linejoin="round"/>
<path d="M7 5.33337H9" stroke="#FAFAFA" stroke-linecap="round" stroke-linejoin="round"/>
<path d="M7.99998 12C9.19331 12 10.1666 11.0266 10.1666 9.83329C10.1666 8.63996 9.19331 7.66663 7.99998 7.66663C6.80665 7.66663 5.83331 8.63996 5.83331 9.83329C5.83331 11.0266 6.80665 12 7.99998 12Z" stroke="#FAFAFA" stroke-linecap="round" stroke-linejoin="round"/>
</svg>
