<svg width="21" height="18" viewBox="0 0 21 18" fill="none" xmlns="http://www.w3.org/2000/svg">
<path d="M14.5973 0H6.2535C2.805 0 0 2.805 0 6.2535V7.8945C0 11.3422 2.805 14.1472 6.25275 14.1472H6.49575L6.09075 16.35C6.02775 16.695 6.17925 17.0385 6.47775 17.2245C6.62255 17.3148 6.79126 17.3593 6.96177 17.3521C7.13227 17.3448 7.29662 17.2863 7.43325 17.184L11.4968 14.148H14.5965C18.0443 14.148 20.8493 11.343 20.8493 7.89525V6.2535C20.85 2.805 18.045 0 14.5973 0ZM19.5 7.89375C19.4986 9.19381 18.9815 10.4402 18.0623 11.3595C17.143 12.2788 15.8966 12.7959 14.5965 12.7972H11.2725C11.1268 12.7974 10.9851 12.8445 10.8682 12.9315L7.65 15.336L7.97025 13.5938C7.98791 13.4964 7.984 13.3964 7.95883 13.3008C7.93365 13.2051 7.8878 13.1162 7.82452 13.0402C7.76123 12.9641 7.68205 12.9029 7.59255 12.8608C7.50305 12.8187 7.40541 12.7968 7.3065 12.7965H6.25275C4.95269 12.7951 3.70627 12.278 2.78699 11.3588C1.8677 10.4395 1.35064 9.19306 1.34925 7.893V6.2535C1.35064 4.95344 1.8677 3.70702 2.78699 2.78774C3.70627 1.86845 4.95269 1.35139 6.25275 1.35H14.5965C15.8966 1.35139 17.143 1.86845 18.0623 2.78774C18.9815 3.70702 19.4986 4.95344 19.5 6.2535V7.89375Z" fill="#44515E"/>
<path d="M6.47977 5.98725C6.3348 5.98344 6.19054 6.0087 6.0555 6.06155C5.92045 6.11439 5.79735 6.19375 5.69347 6.29494C5.58959 6.39612 5.50703 6.51709 5.45065 6.6507C5.39428 6.78431 5.36523 6.92786 5.36523 7.07288C5.36523 7.2179 5.39428 7.36144 5.45065 7.49505C5.50703 7.62867 5.58959 7.74963 5.69347 7.85082C5.79735 7.95201 5.92045 8.03136 6.0555 8.08421C6.19054 8.13705 6.3348 8.16231 6.47977 8.1585C6.76276 8.15106 7.03165 8.03342 7.22918 7.83064C7.4267 7.62786 7.53723 7.35596 7.53723 7.07288C7.53723 6.78979 7.4267 6.5179 7.22918 6.31512C7.03165 6.11233 6.76276 5.99469 6.47977 5.98725ZM10.4248 5.98725C10.2798 5.98344 10.1355 6.0087 10.0005 6.06155C9.86545 6.11439 9.74235 6.19375 9.63847 6.29494C9.53459 6.39612 9.45203 6.51709 9.39565 6.6507C9.33928 6.78431 9.31023 6.92786 9.31023 7.07288C9.31023 7.2179 9.33928 7.36144 9.39565 7.49505C9.45203 7.62867 9.53459 7.74963 9.63847 7.85082C9.74235 7.95201 9.86545 8.03136 10.0005 8.08421C10.1355 8.13705 10.2798 8.16231 10.4248 8.1585C10.7078 8.15106 10.9767 8.03342 11.1742 7.83064C11.3717 7.62786 11.4822 7.35596 11.4822 7.07288C11.4822 6.78979 11.3717 6.5179 11.1742 6.31512C10.9767 6.11233 10.7078 5.99469 10.4248 5.98725ZM14.3698 5.98725C14.2248 5.98344 14.0805 6.0087 13.9455 6.06155C13.8104 6.11439 13.6874 6.19375 13.5835 6.29494C13.4796 6.39612 13.397 6.51709 13.3407 6.6507C13.2843 6.78431 13.2552 6.92786 13.2552 7.07288C13.2552 7.2179 13.2843 7.36144 13.3407 7.49505C13.397 7.62867 13.4796 7.74963 13.5835 7.85082C13.6874 7.95201 13.8104 8.03136 13.9455 8.08421C14.0805 8.13705 14.2248 8.16231 14.3698 8.1585C14.6528 8.15106 14.9217 8.03342 15.1192 7.83064C15.3167 7.62786 15.4272 7.35596 15.4272 7.07288C15.4272 6.78979 15.3167 6.5179 15.1192 6.31512C14.9217 6.11233 14.6528 5.99469 14.3698 5.98725Z" fill="#44515E"/>
</svg>
