<svg width="70" height="70" viewBox="0 0 70 70" fill="none" xmlns="http://www.w3.org/2000/svg">
<circle cx="35" cy="35" r="35" fill="#F5F7FA"/>
<path d="M40.2153 24.155H29.7856C25.475 24.155 21.9688 27.6613 21.9688 31.9719V34.0232C21.9688 38.3328 25.475 41.8391 29.7847 41.8391H30.0884L29.5822 44.5925C29.5034 45.0238 29.6928 45.4532 30.0659 45.6857C30.2469 45.7986 30.4578 45.8541 30.671 45.8451C30.8841 45.8361 31.0895 45.7628 31.2603 45.635L36.3397 41.84H40.2144C44.5241 41.84 48.0303 38.3338 48.0303 34.0241V31.9719C48.0313 27.6613 44.525 24.155 40.2153 24.155ZM46.3438 34.0222C46.342 35.6473 45.6957 37.2053 44.5466 38.3544C43.3975 39.5035 41.8395 40.1499 40.2144 40.1516H36.0594C35.8773 40.1518 35.7001 40.2106 35.5541 40.3194L31.5313 43.325L31.9316 41.1472C31.9536 41.0256 31.9488 40.9006 31.9173 40.781C31.8858 40.6614 31.8285 40.5502 31.7494 40.4552C31.6703 40.3602 31.5713 40.2837 31.4594 40.2311C31.3476 40.1784 31.2255 40.151 31.1019 40.1507H29.7847C28.1596 40.1489 26.6016 39.5026 25.4525 38.3535C24.3034 37.2044 23.657 35.6464 23.6553 34.0213V31.9719C23.657 30.3468 24.3034 28.7888 25.4525 27.6397C26.6016 26.4906 28.1596 25.8443 29.7847 25.8425H40.2144C41.8395 25.8443 43.3975 26.4906 44.5466 27.6397C45.6957 28.7888 46.342 30.3468 46.3438 31.9719V34.0222Z" fill="black"/>
<path d="M30.069 31.6391C29.8877 31.6344 29.7074 31.666 29.5386 31.732C29.3698 31.7981 29.2159 31.8973 29.0861 32.0237C28.9562 32.1502 28.853 32.3014 28.7826 32.4685C28.7121 32.6355 28.6758 32.8149 28.6758 32.9962C28.6758 33.1774 28.7121 33.3569 28.7826 33.5239C28.853 33.6909 28.9562 33.8421 29.0861 33.9686C29.2159 34.0951 29.3698 34.1943 29.5386 34.2603C29.7074 34.3264 29.8877 34.358 30.069 34.3532C30.4227 34.3439 30.7588 34.1969 31.0057 33.9434C31.2526 33.6899 31.3908 33.35 31.3908 32.9962C31.3908 32.6423 31.2526 32.3024 31.0057 32.049C30.7588 31.7955 30.4227 31.6484 30.069 31.6391ZM35.0002 31.6391C34.819 31.6344 34.6387 31.666 34.4699 31.732C34.301 31.7981 34.1472 31.8973 34.0173 32.0237C33.8875 32.1502 33.7843 32.3014 33.7138 32.4685C33.6433 32.6355 33.607 32.8149 33.607 32.9962C33.607 33.1774 33.6433 33.3569 33.7138 33.5239C33.7843 33.6909 33.8875 33.8421 34.0173 33.9686C34.1472 34.0951 34.301 34.1943 34.4699 34.2603C34.6387 34.3264 34.819 34.358 35.0002 34.3532C35.3539 34.3439 35.6901 34.1969 35.937 33.9434C36.1839 33.6899 36.322 33.35 36.322 32.9962C36.322 32.6423 36.1839 32.3024 35.937 32.049C35.6901 31.7955 35.3539 31.6484 35.0002 31.6391ZM39.9315 31.6391C39.7502 31.6344 39.5699 31.666 39.4011 31.732C39.2323 31.7981 39.0784 31.8973 38.9486 32.0237C38.8187 32.1502 38.7155 32.3014 38.6451 32.4685C38.5746 32.6355 38.5383 32.8149 38.5383 32.9962C38.5383 33.1774 38.5746 33.3569 38.6451 33.5239C38.7155 33.6909 38.8187 33.8421 38.9486 33.9686C39.0784 34.0951 39.2323 34.1943 39.4011 34.2603C39.5699 34.3264 39.7502 34.358 39.9315 34.3532C40.2852 34.3439 40.6213 34.1969 40.8682 33.9434C41.1151 33.6899 41.2533 33.35 41.2533 32.9962C41.2533 32.6423 41.1151 32.3024 40.8682 32.049C40.6213 31.7955 40.2852 31.6484 39.9315 31.6391Z" fill="black"/>
</svg>
