<svg width="24" height="24" viewBox="0 0 24 24" fill="none" xmlns="http://www.w3.org/2000/svg">
<path fill-rule="evenodd" clip-rule="evenodd" d="M8.87268 5.01934H22.1962L14.2827 10.4443L8.89987 6.75418C9.1048 6.20542 9.10654 5.58512 8.87268 5.01934ZM5.38813 8.16803L7.33016 6.98556C7.90649 6.63465 8.09779 5.88596 7.76038 5.30157L6.00712 2.26482C5.82726 1.95324 5.55501 1.75281 5.2041 1.67359C4.85315 1.59432 4.52127 1.65831 4.22493 1.86235L1.02749 4.06379C-0.494492 9.42648 6.34499 21.0365 11.5905 22.3594L15.0957 20.6911C15.4206 20.5365 15.6419 20.281 15.7488 19.9374C15.8556 19.5939 15.8181 19.2579 15.6382 18.9464L13.885 15.9096C13.5476 15.3252 12.8036 15.1165 12.2115 15.4402L10.2164 16.5308C8.24348 14.7761 5.92129 10.754 5.38813 8.16803ZM23.1639 5.71703L14.5991 11.5885C14.3987 11.7253 14.1412 11.7146 13.955 11.5808L8.26907 7.68287C8.15958 7.78157 8.04111 7.86983 7.91521 7.94649L6.6869 8.69434C7.33223 10.777 8.92902 13.5427 10.41 15.1429L11.6718 14.4531C12.7993 13.8368 14.2168 14.2344 14.8592 15.3471L15.9465 17.2304H22.2797C22.7797 17.2304 23.1889 16.8212 23.1889 16.3212V5.92853C23.1889 5.85729 23.1805 5.78629 23.1639 5.71703Z" fill="#00A652"/>
</svg>
