<svg width="15" height="15" viewBox="0 0 15 15" fill="none" xmlns="http://www.w3.org/2000/svg">
<g clip-path="url(#clip0_34_1397)">
<path d="M14.9265 7.99708L14.0424 6.60254L14.5668 5.03747C14.6013 4.93396 14.5991 4.82167 14.5604 4.71963C14.5217 4.61759 14.4489 4.53207 14.3543 4.47756L12.9237 3.65283L12.6606 2.02315C12.6429 1.9154 12.5886 1.81705 12.5069 1.74464C12.4252 1.67224 12.321 1.63021 12.2119 1.62563L10.5618 1.56102L9.5718 0.239822C9.5064 0.15239 9.41271 0.090336 9.30669 0.0642291C9.20067 0.0381221 9.08888 0.0495772 8.99036 0.0966432L7.49979 0.805552L6.00863 0.0960611C5.90997 0.0495025 5.79826 0.0383793 5.69235 0.0645657C5.58644 0.0907522 5.49279 0.152648 5.42719 0.239822L4.43716 1.56102L2.78711 1.62563C2.6781 1.62999 2.57395 1.67188 2.49228 1.74422C2.41061 1.81655 2.35645 1.91488 2.33895 2.02257L2.07588 3.65225L0.645255 4.47698C0.550602 4.5314 0.477682 4.61688 0.438858 4.71893C0.400033 4.82098 0.397693 4.93331 0.432233 5.03689L0.95664 6.60196L0.0731229 7.99708C0.0148408 8.08942 -0.00975199 8.19907 0.00350526 8.30746C0.0167625 8.41585 0.0670558 8.51633 0.145876 8.59191L1.33729 9.73443L1.20342 11.3792C1.19451 11.4881 1.22348 11.5966 1.28542 11.6866C1.34736 11.7765 1.43846 11.8423 1.54332 11.8728L3.12935 12.3297L3.77481 13.8494C3.81719 13.9501 3.89324 14.0329 3.98995 14.0838C4.08667 14.1346 4.19805 14.1503 4.30504 14.1281L5.92308 13.7964L7.20004 14.8423C7.28677 14.9127 7.39328 14.9494 7.49979 14.9494C7.6063 14.9494 7.71223 14.9127 7.79953 14.8423L9.0765 13.7964L10.6945 14.1281C10.914 14.1747 11.1369 14.0566 11.2248 13.8494L11.8702 12.3297L13.4563 11.8728C13.5612 11.8424 13.6523 11.7766 13.7143 11.6867C13.7762 11.5967 13.8052 11.4881 13.7962 11.3792L13.6623 9.73443L14.8537 8.59191C14.9325 8.51633 14.9828 8.41585 14.9961 8.30746C15.0093 8.19907 14.9847 8.08942 14.9265 7.99708ZM10.9204 5.72077L7.60804 10.6831C7.48291 10.8682 7.28909 10.9922 7.09644 10.9922C6.90437 10.9922 6.68961 10.8845 6.55283 10.7472L4.12112 8.27645C4.04141 8.19471 3.9968 8.08506 3.9968 7.97089C3.9968 7.85672 4.04141 7.74706 4.12112 7.66532L4.72119 7.05419C4.76051 7.01465 4.80726 6.98327 4.85875 6.96186C4.91024 6.94045 4.96546 6.92942 5.02122 6.92942C5.07699 6.92942 5.13221 6.94045 5.1837 6.96186C5.23519 6.98327 5.28194 7.01465 5.32126 7.05419L6.90379 8.66175L9.5136 4.75169C9.54453 4.70507 9.58444 4.66507 9.631 4.63403C9.67756 4.60299 9.72983 4.58154 9.78477 4.57092C9.83971 4.5603 9.89621 4.56073 9.95098 4.57218C10.0058 4.58363 10.0577 4.60588 10.1038 4.63762L10.8074 5.12128C11.0013 5.25515 11.0513 5.52463 10.9204 5.72077Z" fill="#00A652"/>
</g>
<defs>
<clipPath id="clip0_34_1397">
<rect width="15" height="15" fill="white"/>
</clipPath>
</defs>
</svg>
