<svg width="128" height="109" viewBox="0 0 128 109" fill="none" xmlns="http://www.w3.org/2000/svg">
<g clip-path="url(#clip0_1_13171)">
<path d="M37.6167 107.863C39.6715 106.135 40.9196 103.407 40.5923 100.751C40.265 98.0944 38.2377 95.6525 35.608 95.0885C32.9783 94.5244 29.9806 96.0858 29.1819 98.6412C28.7423 93.7145 28.2358 88.5813 25.6027 84.3857C23.2184 80.5867 19.0889 77.8683 14.6134 77.382C10.138 76.8957 5.42588 78.7325 2.6347 82.2465C-0.156489 85.7605 -0.839897 90.8691 1.11498 94.9035C2.55506 97.8754 5.20821 100.087 7.98805 101.887C16.9707 107.652 27.7442 109.997 38.3264 108.489" fill="#F2F2F2"/>
<path d="M7.06071 78.8344C10.7535 81.8265 14.1413 85.173 17.175 88.8255C21.9228 94.5219 25.7647 100.909 28.567 107.763C28.7721 108.263 27.9559 108.481 27.753 107.987C25.971 103.653 23.7662 99.503 21.1705 95.597C17.1226 89.4954 12.1634 84.0431 6.46381 79.4282C6.0424 79.0868 6.64277 78.4958 7.06071 78.8344Z" fill="white"/>
<path d="M39.0363 107.863C36.9815 106.135 35.7334 103.407 36.0607 100.751C36.388 98.0944 38.4153 95.6525 41.045 95.0885C43.6747 94.5244 46.6724 96.0858 47.4711 98.6412C47.9107 93.7145 48.4172 88.5813 51.0503 84.3857C53.4346 80.5867 57.5641 77.8683 62.0396 77.382C66.515 76.8957 71.2271 78.7325 74.0183 82.2465C76.8095 85.7605 77.4929 90.8691 75.538 94.9035C74.0979 97.8754 71.4448 100.087 68.6649 101.887C59.6823 107.652 48.9088 109.997 38.3266 108.489" fill="#F2F2F2"/>
<path d="M69.5928 78.8344C65.9 81.8265 62.5122 85.173 59.4785 88.8255C54.7307 94.5219 50.8888 100.909 48.0865 107.763C47.8814 108.263 48.6976 108.481 48.9005 107.987C53.4855 96.8464 60.805 87.0276 70.1897 79.4282C70.6111 79.0868 70.0107 78.4958 69.5928 78.8344Z" fill="white"/>
<path d="M45.1339 49.0334C48.9352 49.0334 52.0168 45.9679 52.0168 42.1864C52.0168 38.4049 48.9352 35.3394 45.1339 35.3394C41.3326 35.3394 38.251 38.4049 38.251 42.1864C38.251 45.9679 41.3326 49.0334 45.1339 49.0334Z" fill="#F2F2F2"/>
<path d="M23.912 18.5835H71.3335V21.1644H29.9658C27.5335 21.1644 25.1251 21.641 22.878 22.5669C20.6308 23.4929 18.5891 24.85 16.8692 26.5609C15.1493 28.2718 13.785 30.3029 12.8542 32.5383C11.9235 34.7737 11.4444 37.1696 11.4444 39.5892V68.9117H6.25545C6.02608 68.9117 5.80612 68.8211 5.64393 68.6598C5.48175 68.4984 5.39063 68.2796 5.39063 68.0514V37.0082C5.39062 34.5887 5.86969 32.1928 6.80048 29.9574C7.73127 27.722 9.09555 25.6909 10.8154 23.98C12.5353 22.2691 14.5771 20.9119 16.8242 19.986C19.0713 19.0601 21.4798 18.5835 23.912 18.5835Z" fill="#F2F2F2"/>
<path d="M33.0332 108.006V68.8015H44.5788V108.006C44.5785 108.27 44.4731 108.522 44.2858 108.709C44.0985 108.895 43.8445 109 43.5796 109H34.0323C33.7674 109 33.5135 108.895 33.3262 108.709C33.1389 108.522 33.0335 108.27 33.0332 108.006Z" fill="#3F3D56"/>
<path d="M2.94824 68.0284V36.149C2.954 31.074 4.98316 26.2085 8.59053 22.62C12.1979 19.0314 17.0889 17.0128 22.1905 17.0071H71.1114V69.1327H4.05839C3.76406 69.1324 3.48189 69.0159 3.27377 68.8089C3.06565 68.6019 2.94858 68.3211 2.94824 68.0284ZM70.6673 17.4488H22.1905C17.2066 17.4544 12.4285 19.4264 8.90439 22.9322C5.38026 26.4379 3.39794 31.1911 3.3923 36.149V68.0284C3.39249 68.204 3.46273 68.3725 3.58761 68.4967C3.71248 68.6209 3.88179 68.6908 4.05839 68.691H70.6673V17.4488Z" fill="#3F3D56"/>
<path d="M45.1332 45.7204C44.0736 45.7192 43.0578 45.2999 42.3086 44.5546C41.5593 43.8093 41.1379 42.7987 41.1367 41.7447V13.2523C41.1365 13.0766 41.0662 12.9082 40.9414 12.784C40.8165 12.6597 40.6472 12.5899 40.4706 12.5897H24.9285C24.6342 12.5893 24.352 12.4729 24.1439 12.2658C23.9358 12.0588 23.8187 11.7781 23.8184 11.4853V1.10436C23.8187 0.811567 23.9358 0.530865 24.1439 0.323832C24.352 0.116798 24.6342 0.000339046 24.9285 0H48.0196C48.3139 0.000334963 48.5961 0.116794 48.8042 0.323828C49.0123 0.530863 49.1294 0.811566 49.1298 1.10436V41.7447C49.1286 42.7987 48.7071 43.8093 47.9579 44.5546C47.2086 45.2999 46.1928 45.7192 45.1332 45.7204Z" fill="#00A652"/>
<path d="M72.8871 16.5655C76.2366 16.5585 79.4517 17.8754 81.8251 20.2265C84.1985 22.5777 85.5358 25.7704 85.5428 29.1024V65.3937H110.41C111.409 65.3917 112.368 65.7844 113.076 66.4856C113.784 67.1869 114.183 68.1391 114.185 69.1328H60.2314V29.1024C60.2385 25.7704 61.5758 22.5777 63.9492 20.2265C66.3226 17.8754 69.5377 16.5585 72.8871 16.5655Z" fill="#3F3D56"/>
<path d="M69.85 37.2317L72.4706 48.0005L123.733 35.6557L121.113 24.8868C121.081 24.7552 121.016 24.6336 120.925 24.5334C120.833 24.4332 120.718 24.3576 120.589 24.3137C120.494 24.2804 120.393 24.2654 120.293 24.2693L90.6609 9.00668C90.4873 8.91848 90.2877 8.89492 90.0981 8.94025C89.9085 8.98558 89.7415 9.09682 89.6271 9.25389L75.3462 29.0647L69.9624 36.5352C69.9526 36.5482 69.9458 36.5633 69.9424 36.5792C69.939 36.5951 69.9391 36.6116 69.9426 36.6275C69.8331 36.809 69.7998 37.026 69.85 37.2317Z" fill="white"/>
<path d="M69.9432 36.6275C69.9457 36.6415 69.951 36.6549 69.9587 36.6669C69.9665 36.6789 69.9765 36.6892 69.9883 36.6973C70.0022 36.7068 70.0179 36.7133 70.0344 36.7166C70.051 36.7198 70.068 36.7197 70.0845 36.7162C70.1113 36.7091 70.1348 36.6929 70.1508 36.6704L70.1693 36.6449L70.4496 36.255L75.5405 29.195L89.8172 9.38874C89.8987 9.2765 90.0179 9.19704 90.1532 9.16477C90.2886 9.1325 90.431 9.14957 90.5548 9.21287L119.957 24.3573L120.221 24.4935C120.232 24.498 120.243 24.5018 120.254 24.5049C120.274 24.5013 120.294 24.4994 120.314 24.4992C120.342 24.49 120.365 24.4706 120.378 24.4451C120.386 24.4317 120.39 24.417 120.391 24.4018C120.393 24.3867 120.391 24.3714 120.387 24.3568C120.382 24.3423 120.375 24.3288 120.365 24.3171C120.355 24.3054 120.343 24.2957 120.33 24.2886L120.293 24.2693L90.6614 9.00668C90.4878 8.91848 90.2882 8.89492 90.0986 8.94025C89.909 8.98558 89.742 9.09682 89.6276 9.25389L75.3467 29.0647L69.9629 36.5352C69.9532 36.5482 69.9463 36.5633 69.9429 36.5792C69.9395 36.5951 69.9396 36.6116 69.9432 36.6275Z" fill="#3F3D56"/>
<path d="M85.3383 37.7258L86.4794 37.8517L94.9482 38.7849L100.562 39.4032L100.894 39.4399L107.9 33.9966L108.168 33.7881L109.823 32.5026L115.709 27.9291L115.745 27.6079L117.839 8.80864C117.867 8.54977 117.791 8.29021 117.628 8.08686C117.464 7.88351 117.226 7.75295 116.966 7.72382L89.0224 4.64449C88.7622 4.61622 88.5013 4.69168 88.297 4.85434C88.0926 5.017 87.9613 5.2536 87.9319 5.51234L86.4553 18.7729L85.6362 26.1248L84.9035 32.702L84.5639 35.7565L84.4648 36.6412C84.4365 36.9002 84.5126 37.1597 84.6763 37.363C84.84 37.5663 85.0781 37.6967 85.3383 37.7258Z" fill="#E6E6E6"/>
<path d="M93.0173 21.2474L105.122 22.581L109.414 23.0539C109.604 23.0747 109.796 23.0583 109.979 23.0054C110.162 22.9526 110.333 22.8644 110.482 22.7458C110.63 22.6273 110.754 22.4807 110.846 22.3145C110.938 22.1483 110.996 21.9658 111.017 21.7772C111.038 21.5887 111.022 21.3979 110.969 21.2157C110.915 21.0335 110.827 20.8636 110.708 20.7155C110.588 20.5674 110.441 20.4441 110.274 20.3527C110.107 20.2613 109.923 20.2034 109.734 20.1826L104.395 19.5943L93.3379 18.3747C92.955 18.3326 92.5711 18.4435 92.2704 18.683C91.9697 18.9224 91.777 19.2709 91.7345 19.6517C91.692 20.0325 91.8032 20.4145 92.0438 20.7138C92.2844 21.013 92.6345 21.2049 93.0173 21.2474Z" fill="white"/>
<path d="M92.3286 26.5739C92.3599 26.5794 92.3911 26.585 92.4229 26.588L106.474 28.1365L108.82 28.3956C109.203 28.4377 109.587 28.3268 109.888 28.0873C110.188 27.8477 110.381 27.4991 110.424 27.1182C110.466 26.7373 110.354 26.3553 110.114 26.0561C109.873 25.757 109.522 25.5653 109.139 25.5232L105.747 25.1498L94.6168 23.9229L92.7437 23.7164C92.3691 23.6749 91.993 23.7798 91.6948 24.0092C91.3966 24.2385 91.1997 24.5742 91.1458 24.9453C91.0919 25.3163 91.1852 25.6938 91.4059 25.9977C91.6266 26.3016 91.9575 26.5082 92.3286 26.5739Z" fill="white"/>
<path d="M90.7381 31.2968C90.8533 31.487 91.0109 31.6482 91.1989 31.7679C91.3868 31.8877 91.6 31.9627 91.8218 31.9871L97.5809 32.6217L107.838 33.7521L107.84 33.7515L108.168 33.7879L109.823 32.5024C109.833 32.4047 109.833 32.3063 109.823 32.2086C109.788 31.8807 109.642 31.5745 109.408 31.3406C109.175 31.1067 108.868 30.9591 108.538 30.9223L107.114 30.7648L101.461 30.1426L97.3944 29.6939L92.1411 29.1147C91.8719 29.0851 91.5997 29.1309 91.3553 29.2471C91.1109 29.3633 90.904 29.5452 90.7581 29.7722C90.6122 29.9992 90.5329 30.2622 90.5294 30.5317C90.5259 30.8011 90.5982 31.0661 90.7381 31.2968Z" fill="white"/>
<path d="M98.827 14.7364L101.839 15.0682L103.169 15.2152L105.178 15.4364C105.561 15.4785 105.945 15.3676 106.246 15.1281C106.547 14.8885 106.739 14.5399 106.782 14.159C106.824 13.7781 106.713 13.3961 106.472 13.097C106.231 12.7978 105.881 12.6061 105.498 12.564L99.1478 11.8648C98.765 11.8225 98.381 11.9332 98.0802 12.1725C97.7795 12.4118 97.5866 12.7602 97.544 13.141C97.5015 13.5218 97.6128 13.9038 97.8534 14.203C98.0939 14.5022 98.4442 14.6941 98.827 14.7364Z" fill="white"/>
<path d="M74.2004 22.7347L77.8722 37.8233L84.0005 38.9825L89.6694 40.0561L95.7516 41.2074L97.695 41.5753C97.8088 41.5967 97.9258 41.5937 98.0383 41.5666C98.1509 41.5395 98.2563 41.4889 98.3477 41.4181L99.9068 40.2067L100.894 39.4399L107.899 33.9966L103.445 15.6922C103.401 15.51 103.305 15.3444 103.169 15.2153C103.049 15.101 102.903 15.0185 102.743 14.9753C102.583 14.9322 102.414 14.9299 102.253 14.9685L74.9279 21.5489C74.6734 21.6103 74.4539 21.7697 74.3175 21.9921C74.1811 22.2144 74.139 22.4815 74.2004 22.7347Z" fill="#00A652"/>
<path d="M82.6206 34.7383C82.7115 35.1105 82.9472 35.4316 83.2759 35.6311C83.6045 35.8306 83.9994 35.8922 84.3737 35.8024L100.407 31.9412C100.781 31.8506 101.104 31.6161 101.305 31.2892C101.505 30.9623 101.567 30.5696 101.477 30.1973C101.473 30.1788 101.468 30.1606 101.462 30.1428C101.359 29.7838 101.121 29.4782 100.797 29.29C100.473 29.1017 100.089 29.0455 99.7241 29.1331L83.6903 32.9943C83.3162 33.0848 82.9934 33.3192 82.7928 33.6462C82.5923 33.9731 82.5303 34.3659 82.6206 34.7383Z" fill="white"/>
<path d="M84.001 38.9825L89.6699 40.0562L101.678 37.1643C102.053 37.0742 102.376 36.8398 102.576 36.5128C102.777 36.1857 102.839 35.7928 102.748 35.4204C102.657 35.048 102.422 34.7267 102.093 34.5271C101.764 34.3276 101.369 34.2661 100.995 34.3562L84.9611 38.2174C84.6261 38.2975 84.3309 38.4943 84.1291 38.7721C84.0805 38.8385 84.0376 38.9089 84.001 38.9825Z" fill="white"/>
<path d="M95.752 41.2074L97.6954 41.5753C97.8091 41.5967 97.9262 41.5938 98.0387 41.5667C98.1513 41.5396 98.2567 41.4889 98.3481 41.4182L99.9072 40.2068L95.752 41.2074Z" fill="white"/>
<path d="M85.8513 26.6474C85.9422 27.0196 86.1779 27.3407 86.5066 27.5403C86.8352 27.7398 87.2301 27.8014 87.6044 27.7116L93.8146 26.2161C94.1887 26.1254 94.5113 25.891 94.7119 25.564C94.9124 25.2371 94.9744 24.8445 94.8844 24.4721C94.836 24.272 94.7447 24.0847 94.6168 23.923C94.445 23.7043 94.2136 23.5395 93.9502 23.4482C93.6867 23.3569 93.4025 23.3429 93.1313 23.408L86.921 24.9035C86.5467 24.9937 86.2238 25.2281 86.0232 25.5551C85.8225 25.8821 85.7607 26.2751 85.8513 26.6474Z" fill="white"/>
<path d="M89.6691 40.056L95.7522 41.2076L97.6951 41.5756C97.8088 41.5968 97.9258 41.5937 98.0382 41.5666C98.1506 41.5395 98.256 41.4891 98.3474 41.4185L99.9077 40.2069L99.3601 40.3387L98.2044 41.2357C98.1391 41.2861 98.0638 41.3221 97.9834 41.3415C97.9031 41.3608 97.8196 41.363 97.7383 41.3479L96.2998 41.0757L90.2166 39.9242L89.6691 40.056ZM107.839 33.7526L107.899 33.9959L108.169 33.7873L107.839 33.7526ZM89.6691 40.056L95.7522 41.2076L97.6951 41.5756C97.8088 41.5968 97.9258 41.5937 98.0382 41.5666C98.1506 41.5395 98.256 41.4891 98.3474 41.4185L99.9077 40.2069L99.3601 40.3387L98.2044 41.2357C98.1391 41.2861 98.0638 41.3221 97.9834 41.3415C97.9031 41.3608 97.8196 41.363 97.7383 41.3479L96.2998 41.0757L90.2166 39.9242L89.6691 40.056ZM89.6691 40.056L95.7522 41.2076L97.6951 41.5756C97.8088 41.5968 97.9258 41.5937 98.0382 41.5666C98.1506 41.5395 98.256 41.4891 98.3474 41.4185L99.9077 40.2069L99.3601 40.3387L98.2044 41.2357C98.1391 41.2861 98.0638 41.3221 97.9834 41.3415C97.9031 41.3608 97.8196 41.363 97.7383 41.3479L96.2998 41.0757L90.2166 39.9242L89.6691 40.056ZM69.85 37.2318L76.7143 65.4393C76.7652 65.6477 76.8972 65.8276 77.0813 65.9393C77.2654 66.051 77.4865 66.0856 77.6961 66.0353L127.378 54.0712C127.587 54.0205 127.768 53.8892 127.88 53.7061C127.993 53.523 128.027 53.303 127.977 53.0945L121.113 24.8869C121.081 24.7553 121.016 24.6337 120.925 24.5335C120.833 24.4333 120.718 24.3577 120.589 24.3138C120.494 24.2805 120.393 24.2655 120.293 24.2694C120.175 24.2728 120.06 24.3029 119.957 24.3574C119.909 24.38 119.863 24.408 119.822 24.4407L115.744 27.6079L109.823 32.2094L107.839 33.7509L107.839 33.7526L107.838 33.753L100.563 39.4024L99.3601 40.3387L98.2044 41.2357C98.1391 41.2861 98.0638 41.3221 97.9834 41.3415C97.9031 41.3608 97.8196 41.363 97.7383 41.3479L96.2998 41.0757L90.2166 39.9242L84.1281 38.7722L70.7927 36.2477C70.679 36.2253 70.5617 36.2278 70.4491 36.2551C70.2975 36.2919 70.1597 36.3714 70.0521 36.4839C70.0109 36.5281 69.9742 36.5762 69.9426 36.6276C69.8331 36.8091 69.7998 37.0261 69.85 37.2318ZM89.6691 40.056L95.7522 41.2076L97.6951 41.5756C97.8088 41.5968 97.9258 41.5937 98.0382 41.5666C98.1506 41.5395 98.256 41.4891 98.3474 41.4185L99.9077 40.2069L99.3601 40.3387L98.2044 41.2357C98.1391 41.2861 98.0638 41.3221 97.9834 41.3415C97.9031 41.3608 97.8196 41.363 97.7383 41.3479L96.2998 41.0757L90.2166 39.9242L89.6691 40.056ZM89.6691 40.056L95.7522 41.2076L97.6951 41.5756C97.8088 41.5968 97.9258 41.5937 98.0382 41.5666C98.1506 41.5395 98.256 41.4891 98.3474 41.4185L99.9077 40.2069L99.3601 40.3387L98.2044 41.2357C98.1391 41.2861 98.0638 41.3221 97.9834 41.3415C97.9031 41.3608 97.8196 41.363 97.7383 41.3479L96.2998 41.0757L90.2166 39.9242L89.6691 40.056ZM89.6691 40.056L95.7522 41.2076L97.6951 41.5756C97.8088 41.5968 97.9258 41.5937 98.0382 41.5666C98.1506 41.5395 98.256 41.4891 98.3474 41.4185L99.9077 40.2069L99.3601 40.3387L98.2044 41.2357C98.1391 41.2861 98.0638 41.3221 97.9834 41.3415C97.9031 41.3608 97.8196 41.363 97.7383 41.3479L96.2998 41.0757L90.2166 39.9242L89.6691 40.056Z" fill="white"/>
<path d="M89.6691 40.056L95.7522 41.2076L97.6951 41.5756C97.8088 41.5968 97.9258 41.5937 98.0382 41.5666C98.1506 41.5395 98.256 41.4891 98.3474 41.4185L99.9077 40.2069L99.3601 40.3387L98.2044 41.2357C98.1391 41.2861 98.0638 41.3221 97.9834 41.3414C97.9031 41.3608 97.8196 41.363 97.7383 41.3479L96.2998 41.0757L90.2166 39.9242L89.6691 40.056ZM107.839 33.7526L107.899 33.9959L108.169 33.7873L107.839 33.7526ZM89.6691 40.056L95.7522 41.2076L97.6951 41.5756C97.8088 41.5968 97.9258 41.5937 98.0382 41.5666C98.1506 41.5395 98.256 41.4891 98.3474 41.4185L99.9077 40.2069L99.3601 40.3387L98.2044 41.2357C98.1391 41.2861 98.0638 41.3221 97.9834 41.3414C97.9031 41.3608 97.8196 41.363 97.7383 41.3479L96.2998 41.0757L90.2166 39.9242L89.6691 40.056ZM89.6691 40.056L95.7522 41.2076L97.6951 41.5756C97.8088 41.5968 97.9258 41.5937 98.0382 41.5666C98.1506 41.5395 98.256 41.4891 98.3474 41.4185L99.9077 40.2069L99.3601 40.3387L98.2044 41.2357C98.1391 41.2861 98.0638 41.3221 97.9834 41.3414C97.9031 41.3608 97.8196 41.363 97.7383 41.3479L96.2998 41.0757L90.2166 39.9242L89.6691 40.056ZM70.1688 36.645L70.199 36.6676C70.204 36.6593 70.2128 36.652 70.2195 36.6433C70.2868 36.5737 70.3704 36.5217 70.4628 36.4921C70.5552 36.4625 70.6536 36.4562 70.749 36.4738L84.001 38.9815L89.6691 40.056L95.7522 41.2076L97.6951 41.5756C97.8088 41.5968 97.9258 41.5937 98.0382 41.5666C98.1506 41.5395 98.256 41.4891 98.3474 41.4185L99.9077 40.2069L99.3601 40.3387L98.2044 41.2357C98.1391 41.2861 98.0638 41.3221 97.9834 41.3414C97.9031 41.3608 97.8196 41.363 97.7383 41.3479L96.2998 41.0757L90.2166 39.9242L84.1281 38.7722L70.7927 36.2477C70.679 36.2253 70.5617 36.2278 70.4491 36.2551L70.1688 36.645ZM69.85 37.2318L76.7143 65.4393C76.7652 65.6477 76.8972 65.8276 77.0813 65.9393C77.2654 66.051 77.4865 66.0856 77.6961 66.0353L127.378 54.0712C127.587 54.0205 127.768 53.8892 127.88 53.7061C127.993 53.523 128.027 53.303 127.977 53.0945L121.113 24.8869C121.081 24.7553 121.016 24.6337 120.925 24.5335C120.833 24.4333 120.718 24.3577 120.589 24.3138C120.494 24.2805 120.393 24.2655 120.293 24.2694C120.175 24.2728 120.06 24.3029 119.957 24.3574C119.909 24.38 119.863 24.408 119.822 24.4407L115.744 27.6079L109.823 32.2094L107.839 33.7509L107.839 33.7526L107.838 33.753L100.563 39.4024L99.3601 40.3387L98.2044 41.2357C98.1391 41.2861 98.0638 41.3221 97.9834 41.3414C97.9031 41.3608 97.8196 41.363 97.7383 41.3479L96.2998 41.0757L90.2166 39.9242L84.1281 38.7722L70.7927 36.2477C70.679 36.2253 70.5617 36.2278 70.4491 36.2551C70.2975 36.2919 70.1597 36.3713 70.0521 36.4839C70.0109 36.5281 69.9742 36.5762 69.9426 36.6276C69.8331 36.8091 69.7998 37.0261 69.85 37.2318ZM70.0764 37.1773C70.0561 37.0941 70.0548 37.0075 70.0725 36.9238C70.0903 36.8401 70.1266 36.7614 70.1789 36.6934C70.1836 36.6835 70.1904 36.6746 70.199 36.6676C70.204 36.6593 70.2128 36.652 70.2195 36.6433C70.2868 36.5737 70.3704 36.5217 70.4628 36.4921C70.5552 36.4625 70.6536 36.4562 70.749 36.4738L84.001 38.9815L89.6691 40.056L95.7522 41.2076L97.6951 41.5756C97.8088 41.5968 97.9258 41.5937 98.0382 41.5666C98.1506 41.5395 98.256 41.4891 98.3474 41.4185L99.9077 40.2069L100.894 39.44L107.899 33.9959L108.169 33.7873L109.822 32.5023L115.71 27.9282L119.966 24.6214C120.031 24.5712 120.106 24.5353 120.185 24.5161C120.208 24.5107 120.23 24.507 120.253 24.505C120.273 24.5014 120.293 24.4995 120.313 24.4993C120.382 24.4986 120.449 24.5096 120.513 24.5317C120.605 24.5635 120.688 24.6176 120.753 24.6891C120.818 24.7606 120.865 24.8472 120.888 24.941L127.752 53.1486C127.77 53.2225 127.773 53.2992 127.762 53.3744C127.75 53.4495 127.723 53.5216 127.683 53.5866C127.644 53.6515 127.591 53.708 127.529 53.7528C127.468 53.7976 127.398 53.8298 127.323 53.8477L77.6417 65.8118C77.4918 65.8476 77.3338 65.8228 77.2023 65.7427C77.0708 65.6626 76.9767 65.5339 76.9407 65.3848L70.0764 37.1773ZM89.6691 40.056L95.7522 41.2076L97.6951 41.5756C97.8088 41.5968 97.9258 41.5937 98.0382 41.5666C98.1506 41.5395 98.256 41.4891 98.3474 41.4185L99.9077 40.2069L99.3601 40.3387L98.2044 41.2357C98.1391 41.2861 98.0638 41.3221 97.9834 41.3414C97.9031 41.3608 97.8196 41.363 97.7383 41.3479L96.2998 41.0757L90.2166 39.9242L89.6691 40.056ZM89.6691 40.056L95.7522 41.2076L97.6951 41.5756C97.8088 41.5968 97.9258 41.5937 98.0382 41.5666C98.1506 41.5395 98.256 41.4891 98.3474 41.4185L99.9077 40.2069L99.3601 40.3387L98.2044 41.2357C98.1391 41.2861 98.0638 41.3221 97.9834 41.3414C97.9031 41.3608 97.8196 41.363 97.7383 41.3479L96.2998 41.0757L90.2166 39.9242L89.6691 40.056ZM89.6691 40.056L95.7522 41.2076L97.6951 41.5756C97.8088 41.5968 97.9258 41.5937 98.0382 41.5666C98.1506 41.5395 98.256 41.4891 98.3474 41.4185L99.9077 40.2069L99.3601 40.3387L98.2044 41.2357C98.1391 41.2861 98.0638 41.3221 97.9834 41.3414C97.9031 41.3608 97.8196 41.363 97.7383 41.3479L96.2998 41.0757L90.2166 39.9242L89.6691 40.056Z" fill="#3F3D56"/>
<path d="M114.429 48.5294C114.317 48.0672 114.394 47.5797 114.643 47.1738C114.892 46.768 115.293 46.477 115.757 46.3646L122.027 44.8545C122.491 44.7445 122.98 44.8219 123.387 45.0698C123.794 45.3177 124.085 45.7158 124.198 46.177C124.31 46.6382 124.234 47.1248 123.986 47.5303C123.738 47.9358 123.339 48.2271 122.876 48.3403L116.605 49.8504C116.141 49.9617 115.651 49.8852 115.243 49.6375C114.835 49.3899 114.542 48.9914 114.429 48.5294Z" fill="#00A652"/>
<path d="M45.1333 43.2907C45.9917 43.2907 46.6875 42.5985 46.6875 41.7446C46.6875 40.8907 45.9917 40.1985 45.1333 40.1985C44.2749 40.1985 43.5791 40.8907 43.5791 41.7446C43.5791 42.5985 44.2749 43.2907 45.1333 43.2907Z" fill="white"/>
</g>
<defs>
<clipPath id="clip0_1_13171">
<rect width="128" height="109" fill="white"/>
</clipPath>
</defs>
</svg>
