<svg width="24" height="24" viewBox="0 0 24 24" fill="none" xmlns="http://www.w3.org/2000/svg">
<path d="M13.5406 16.638C13.1134 16.9 12.5663 17.0443 12.0002 17.0443C11.434 17.0443 10.8869 16.9 10.4598 16.638L3.48591 12.3609C3.48591 12.3609 2.85645 11.975 2.85645 12.8491V17.1201C2.85645 19.37 6.95017 21.7955 12 21.7955C17.0498 21.7955 21.1435 19.3701 21.1435 17.1201V12.6083C21.1435 11.9067 20.696 12.2495 20.696 12.2495L13.5406 16.638Z" fill="#00A652"/>
<path d="M23.5981 8.95874C24.134 8.63011 24.134 8.09232 23.5981 7.76364L12.9743 2.45106C12.4384 2.12243 11.5615 2.12243 11.0257 2.45106L0.401895 7.76364C-0.133965 8.09226 -0.133965 8.63005 0.401895 8.95874L11.0257 15.4744C11.5615 15.803 12.4384 15.803 12.9743 15.4744M23.1587 18.6165V11.4205C23.1587 11.4205 23.1637 11.0796 22.9615 11.1922C22.7992 11.2825 22.4016 11.5041 22.2615 11.626C22.0997 11.7666 22.1362 12.0822 22.1362 12.0822V18.6165C22.1362 18.7092 22.0565 18.7535 22.0184 18.7759C21.6512 18.9918 21.4043 19.3903 21.4043 19.8472C21.4043 20.5338 21.9608 21.0904 22.6475 21.0904C23.3341 21.0904 23.8906 20.5338 23.8906 19.8472C23.8906 19.3886 23.6419 18.9888 23.2723 18.7734C23.2355 18.752 23.1587 18.7092 23.1587 18.6165Z" fill="#00A652"/>
</svg>
