<svg width="16" height="16" viewBox="0 0 16 16" fill="none" xmlns="http://www.w3.org/2000/svg">
<g clip-path="url(#clip0_24_2062)">
<path d="M12.6666 8.03064C12.298 8.03064 12 8.32936 12 8.69727V14.0306C12 14.398 11.7013 14.6973 11.3334 14.6973H2C1.63197 14.6973 1.33338 14.398 1.33338 14.0306V4.69727C1.33338 4.32995 1.63197 4.03064 2 4.03064H7.33338C7.70203 4.03064 8 3.73195 8 3.36402C8 2.99598 7.70203 2.69727 7.33338 2.69727H2C0.897344 2.69727 0 3.59461 0 4.69727V14.0306C0 15.1333 0.897344 16.0306 2 16.0306H11.3334C12.436 16.0306 13.3334 15.1333 13.3334 14.0306V8.69727C13.3334 8.32864 13.0353 8.03064 12.6666 8.03064Z" fill="black"/>
<path d="M6.25075 7.4234C6.20442 7.46995 6.17268 7.52901 6.15944 7.59334L5.68813 9.95077C5.66616 10.06 5.70082 10.1727 5.77944 10.252C5.81047 10.283 5.84729 10.3075 5.88779 10.3242C5.9283 10.3409 5.97169 10.3494 6.0155 10.3493C6.03675 10.3493 6.05885 10.3474 6.08082 10.3427L8.4375 9.87143C8.50282 9.85799 8.56213 9.82674 8.60816 9.77999L13.8828 4.5053L11.5261 2.14874L6.25075 7.4234ZM15.5121 0.518773C14.8622 -0.131258 13.8048 -0.131258 13.1554 0.518773L12.2328 1.44137L14.5895 3.79805L15.5121 2.87534C15.8268 2.56137 16.0001 2.14265 16.0001 1.69734C16.0001 1.25202 15.8268 0.833336 15.5121 0.518773Z" fill="black"/>
</g>
<defs>
<clipPath id="clip0_24_2062">
<rect width="16" height="16" fill="white"/>
</clipPath>
</defs>
</svg>
