<svg width="121" height="108" viewBox="0 0 121 108" fill="none" xmlns="http://www.w3.org/2000/svg">
<g clip-path="url(#clip0_1_12987)">
<path d="M119.938 41.3014C119.895 41.3014 119.853 41.2882 119.817 41.2636L61.109 0.610437C60.9303 0.487298 60.718 0.42149 60.5006 0.421858C60.2832 0.422227 60.0711 0.488754 59.8929 0.612498L1.60768 41.2631C1.56158 41.2953 1.50452 41.3079 1.44906 41.2982C1.3936 41.2886 1.34427 41.2574 1.31193 41.2115C1.2796 41.1657 1.2669 41.109 1.27663 41.0538C1.28637 40.9987 1.31774 40.9496 1.36384 40.9175L59.6491 0.266827C59.8987 0.0936112 60.1956 0.000499315 60.4999 2.00256e-06C60.8043 -0.00049531 61.1015 0.091645 61.3516 0.264044L120.06 40.9171C120.097 40.9428 120.125 40.9796 120.139 41.0221C120.154 41.0646 120.154 41.1107 120.141 41.1536C120.127 41.1964 120.1 41.2339 120.064 41.2605C120.027 41.2871 119.983 41.3014 119.938 41.3014Z" fill="#3F3D56"/>
<path d="M4.93848 42.7424L60.5586 1.75586L116.601 45.6587L63.4244 77.0029L34.5542 70.4596L4.93848 42.7424Z" fill="#E6E6E6"/>
<path d="M36.9906 96.3629H9.51293C9.34421 96.3631 9.1771 96.3303 9.02116 96.2662C8.86521 96.2022 8.7235 96.1082 8.60412 95.9896C8.48474 95.8711 8.39004 95.7303 8.32542 95.5753C8.2608 95.4204 8.22754 95.2542 8.22754 95.0865C8.22754 94.9187 8.2608 94.7526 8.32542 94.5976C8.39004 94.4427 8.48474 94.3019 8.60412 94.1833C8.7235 94.0648 8.86521 93.9708 9.02116 93.9067C9.1771 93.8427 9.34421 93.8098 9.51293 93.8101H36.9906C37.1593 93.8098 37.3264 93.8427 37.4824 93.9067C37.6383 93.9708 37.78 94.0648 37.8994 94.1833C38.0188 94.3019 38.1135 94.4427 38.1781 94.5976C38.2427 94.7526 38.276 94.9187 38.276 95.0865C38.276 95.2542 38.2427 95.4204 38.1781 95.5753C38.1135 95.7303 38.0188 95.8711 37.8994 95.9896C37.78 96.1082 37.6383 96.2022 37.4824 96.2662C37.3264 96.3303 37.1593 96.3631 36.9906 96.3629Z" fill="#00A652"/>
<path d="M19.3713 90.8749H9.51293C9.34421 90.8751 9.1771 90.8422 9.02116 90.7782C8.86521 90.7141 8.7235 90.6201 8.60412 90.5016C8.48474 90.383 8.39004 90.2423 8.32542 90.0873C8.2608 89.9323 8.22754 89.7662 8.22754 89.5984C8.22754 89.4307 8.2608 89.2646 8.32542 89.1096C8.39004 88.9546 8.48474 88.8138 8.60412 88.6953C8.7235 88.5768 8.86521 88.4828 9.02116 88.4187C9.1771 88.3547 9.34421 88.3218 9.51293 88.322H19.3713C19.54 88.3218 19.7071 88.3547 19.8631 88.4187C20.019 88.4828 20.1607 88.5768 20.2801 88.6953C20.3995 88.8138 20.4942 88.9546 20.5588 89.1096C20.6234 89.2646 20.6567 89.4307 20.6567 89.5984C20.6567 89.7662 20.6234 89.9323 20.5588 90.0873C20.4942 90.2423 20.3995 90.383 20.2801 90.5016C20.1607 90.6201 20.019 90.7141 19.8631 90.7782C19.7071 90.8422 19.54 90.8751 19.3713 90.8749Z" fill="#00A652"/>
<path d="M61.3404 65.5713C61.1315 65.5715 60.9246 65.5312 60.7313 65.4527L26.4287 51.3006V7.00216C26.4292 6.61044 26.5859 6.2349 26.8644 5.95791C27.143 5.68093 27.5207 5.52511 27.9147 5.52466H93.7217C94.1156 5.52512 94.4933 5.68093 94.7719 5.95791C95.0505 6.2349 95.2072 6.61044 95.2076 7.00216V51.3315L95.1432 51.3589L61.9679 65.4458C61.7692 65.5288 61.5559 65.5715 61.3404 65.5713Z" fill="white"/>
<path d="M61.341 65.6768C61.1184 65.6771 60.8977 65.6341 60.6916 65.5505L26.3232 51.3712V7.00223C26.3237 6.58252 26.4916 6.18015 26.7901 5.88338C27.0886 5.5866 27.4932 5.41966 27.9153 5.41919H93.7224C94.1445 5.41966 94.5491 5.5866 94.8476 5.88338C95.1461 6.18015 95.314 6.58252 95.3145 7.00223V51.4012L62.0102 65.5428C61.7984 65.6315 61.5709 65.677 61.341 65.6768ZM26.7478 51.0892L60.8535 65.1602C61.1716 65.2885 61.5278 65.2864 61.8444 65.1543L94.8899 51.1226V7.00223C94.8895 6.69445 94.7664 6.39938 94.5475 6.18175C94.3287 5.96412 94.0319 5.8417 93.7224 5.84133H27.9154C27.6058 5.8417 27.3091 5.96412 27.0902 6.18175C26.8713 6.39938 26.7482 6.69445 26.7478 7.00223L26.7478 51.0892Z" fill="#3F3D56"/>
<path d="M119.514 40.8792H119.472L95.1018 51.2259L61.7589 65.3825C61.6286 65.4369 61.4888 65.4654 61.3474 65.4661C61.2061 65.4668 61.066 65.4398 60.9351 65.3867L26.5351 51.1963L1.56661 40.896L1.52846 40.8792H1.48596C1.092 40.8796 0.714288 41.0354 0.435711 41.3124C0.157133 41.5894 0.000437139 41.9649 0 42.3567V106.522C0.0004377 106.914 0.157133 107.29 0.435711 107.567C0.714288 107.844 1.092 107.999 1.48596 108H119.514C119.908 107.999 120.286 107.844 120.564 107.567C120.843 107.29 121 106.914 121 106.522V42.3567C121 41.9649 120.843 41.5894 120.564 41.3124C120.286 41.0354 119.908 40.8796 119.514 40.8792ZM120.575 106.522C120.575 106.802 120.463 107.071 120.264 107.269C120.065 107.466 119.796 107.578 119.514 107.578H1.48596C1.2045 107.578 0.934592 107.466 0.735565 107.269C0.536537 107.071 0.424674 106.802 0.424561 106.522V42.3567C0.424946 42.0837 0.531415 41.8215 0.721708 41.6249C0.912 41.4282 1.17139 41.3122 1.44564 41.3013L26.5351 51.6522L60.7718 65.7771C61.1424 65.9271 61.5577 65.9248 61.9266 65.7708L95.1018 51.6839L119.557 41.3013C119.83 41.313 120.089 41.4293 120.279 41.6259C120.469 41.8224 120.575 42.0842 120.575 42.3567V106.522Z" fill="#3F3D56"/>
<path d="M60.9977 53.0099C59.7313 53.0123 58.4985 52.6051 57.4853 51.8498L57.4225 51.8029L44.195 41.7332C43.5825 41.2666 43.0683 40.6845 42.682 40.0202C42.2956 39.3559 42.0447 38.6225 41.9434 37.8618C41.8421 37.1011 41.8925 36.328 42.0917 35.5867C42.291 34.8454 42.6351 34.1503 43.1044 33.5412C43.5738 32.9321 44.1592 32.4209 44.8273 32.0368C45.4954 31.6526 46.233 31.4031 46.998 31.3024C47.7631 31.2017 48.5406 31.2518 49.2862 31.4499C50.0318 31.648 50.7308 31.9901 51.3434 32.4568L59.9111 38.989L80.158 12.7345C80.6276 12.1256 81.2132 11.6146 81.8814 11.2306C82.5496 10.8467 83.2873 10.5975 84.0524 10.497C84.8175 10.3966 85.595 10.447 86.3405 10.6454C87.086 10.8437 87.7849 11.1861 88.3973 11.6531L88.2714 11.823L88.4006 11.6556C89.6359 12.5996 90.4442 13.9923 90.6481 15.5281C90.852 17.064 90.4349 18.6175 89.4882 19.848L65.673 50.7296C65.1222 51.4412 64.4139 52.0171 63.6031 52.4125C62.7923 52.808 61.9008 53.0124 60.9977 53.0099Z" fill="#00A652"/>
</g>
<defs>
<clipPath id="clip0_1_12987">
<rect width="121" height="108" fill="white"/>
</clipPath>
</defs>
</svg>
