<svg width="18" height="17" viewBox="0 0 18 17" fill="none" xmlns="http://www.w3.org/2000/svg">
<g clip-path="url(#clip0_17_420)">
<path fill-rule="evenodd" clip-rule="evenodd" d="M7.59576 2.56019H16.4472C16.9665 2.56019 17.3876 2.98126 17.3876 3.50064C17.3876 4.02003 16.9665 4.44108 16.4472 4.44108H7.59576C7.20751 5.53567 6.16219 6.32195 4.9362 6.32195C3.71021 6.32195 2.66485 5.53567 2.27664 4.44108H0.94874C0.429354 4.44108 0.00830078 4.02003 0.00830078 3.50064C0.00830078 2.98126 0.429354 2.56019 0.94874 2.56019H2.27664C2.66489 1.4656 3.71021 0.679321 4.9362 0.679321C6.16219 0.679321 7.20751 1.4656 7.59576 2.56019ZM3.99672 3.50104C3.99672 4.0196 4.41859 4.44149 4.93715 4.44149C5.45571 4.44149 5.87759 4.0196 5.87759 3.50104C5.87759 2.98248 5.45571 2.56061 4.93715 2.56061C4.41859 2.56061 3.99672 2.98248 3.99672 3.50104ZM7.59576 13.0932H16.4472C16.9665 13.0932 17.3876 13.5143 17.3876 14.0337C17.3876 14.5531 16.9665 14.9741 16.4472 14.9741H7.59576C7.20751 16.0687 6.16219 16.855 4.9362 16.855C3.71021 16.855 2.66485 16.0687 2.27664 14.9741H0.94874C0.429354 14.9741 0.00830078 14.5531 0.00830078 14.0337C0.00830078 13.5143 0.429354 13.0932 0.94874 13.0932H2.27664C2.66489 11.9987 3.71021 11.2124 4.9362 11.2124C6.16219 11.2124 7.20755 11.9987 7.59576 13.0932ZM3.99672 14.0339C3.99672 14.5524 4.41859 14.9743 4.93715 14.9743C5.45571 14.9743 5.87759 14.5524 5.87759 14.0339C5.87759 13.5153 5.45571 13.0934 4.93715 13.0934C4.41859 13.0934 3.99672 13.5153 3.99672 14.0339ZM16.4472 7.82679H15.1193C14.731 6.73219 13.6857 5.94591 12.4597 5.94591C11.2337 5.94591 10.1884 6.73219 9.80015 7.82679H0.94874C0.429354 7.82679 0.00830078 8.24785 0.00830078 8.76723C0.00830078 9.28661 0.429354 9.70767 0.94874 9.70767H9.80015C10.1884 10.8022 11.2337 11.5885 12.4597 11.5885C13.6857 11.5885 14.731 10.8022 15.1193 9.70767H16.4472C16.9665 9.70767 17.3876 9.28661 17.3876 8.76723C17.3876 8.24785 16.9665 7.82679 16.4472 7.82679ZM12.4606 9.70783C11.9421 9.70783 11.5201 9.28595 11.5201 8.76739C11.5201 8.24883 11.9421 7.82695 12.4606 7.82695C12.9792 7.82695 13.401 8.24883 13.401 8.76739C13.401 9.28595 12.9792 9.70783 12.4606 9.70783Z" fill="#1D262D"/>
</g>
<defs>
<clipPath id="clip0_17_420">
<rect width="18" height="17" fill="white"/>
</clipPath>
</defs>
</svg>
