<svg width="18" height="17" viewBox="0 0 18 17" fill="none" xmlns="http://www.w3.org/2000/svg">
<g clip-path="url(#clip0_1_14349)">
<path d="M3.81313 6.85002C4.15192 5.85703 4.80576 4.99305 5.68137 4.38134C6.55698 3.76964 7.60963 3.44145 8.68915 3.4436C9.91287 3.4436 11.0193 3.86449 11.8882 4.55335L14.4167 2.10446C12.8758 0.803202 10.9012 0 8.68915 0C5.26421 0 2.31572 1.89261 0.897949 4.66489L3.81313 6.85002Z" fill="#EA4335"/>
<path d="M11.6142 12.6359C10.8249 13.129 9.82281 13.3921 8.68888 13.3921C7.61366 13.3942 6.56499 13.0686 5.69132 12.4614C4.81766 11.8542 4.16328 10.9962 3.82083 10.0088L0.895508 12.1602C1.61326 13.5676 2.72403 14.7518 4.10165 15.5783C5.47927 16.4047 7.06852 16.8404 8.68888 16.8357C10.8126 16.8357 12.8415 16.104 14.3614 14.7312L11.6149 12.6359H11.6142Z" fill="#34A853"/>
<path d="M14.3615 14.7312C15.9509 13.2946 16.9827 11.1565 16.9827 8.41785C16.9827 7.9198 16.9038 7.38456 16.7857 6.88721H8.68896V10.14H13.3492C13.1197 11.2336 12.502 12.0803 11.615 12.6359L14.3615 14.7312Z" fill="#4A90E2"/>
<path d="M3.8211 10.0088C3.64396 9.49599 3.55397 8.95867 3.55464 8.41787C3.55464 7.86931 3.64515 7.34249 3.81314 6.85005L0.897955 4.66492C0.301579 5.83127 -0.0058506 7.11628 8.43235e-05 8.41787C8.43235e-05 9.76473 0.322304 11.0344 0.895783 12.1603L3.8211 10.0088Z" fill="#FBBC05"/>
</g>
<defs>
<clipPath id="clip0_1_14349">
<rect width="17.3782" height="16.8357" fill="white"/>
</clipPath>
</defs>
</svg>
