<svg width="20" height="20" viewBox="0 0 20 20" fill="none" xmlns="http://www.w3.org/2000/svg">
<path d="M8.24033 15.5878C8.24033 15.5795 8.24447 15.5733 8.24447 15.565V13.6787C8.24447 12.6453 7.8585 11.6617 7.1592 10.9105L5.58213 9.20269C5.18439 8.76608 4.5276 8.78577 4.15029 9.17155C4.05275 9.26702 3.98014 9.38112 3.93033 9.50151C3.48002 8.50753 3.28705 6.74577 3.2642 5.34093C3.25592 4.86159 2.86162 4.47144 2.38436 4.47144C1.89877 4.47144 1.50244 4.86776 1.50244 5.35335V10.2984C1.50244 12.0504 2.9001 12.7625 3.28705 13.216C3.81412 13.6933 4.11502 14.3739 4.11502 15.0836V15.565C4.11502 15.5733 4.11916 15.5796 4.11916 15.5879C3.71658 15.6771 3.41361 16.034 3.41361 16.4636V19.7526C3.41361 19.8668 3.50701 19.9601 3.62111 19.9601H8.73834C8.85248 19.9601 8.94584 19.8667 8.94584 19.7526V16.4636C8.94584 16.034 8.64291 15.6771 8.24033 15.5878ZM3.5651 12.9089C3.15564 12.4365 1.91744 11.8284 1.91744 10.2984V5.35339C1.91744 5.09608 2.12701 4.88647 2.38643 4.88647C2.63752 4.88647 2.84502 5.09397 2.84916 5.34921C2.87436 6.92042 3.06701 9.31335 4.08803 10.5121L5.82697 12.5934C5.89736 12.6779 6.02357 12.6962 6.11955 12.6204C6.14054 12.6029 6.15788 12.5815 6.1706 12.5574C6.18331 12.5333 6.19115 12.5069 6.19365 12.4797C6.19616 12.4525 6.19329 12.4251 6.18521 12.3991C6.17712 12.373 6.16399 12.3488 6.14654 12.3278L4.40553 10.2444C4.21354 10.014 4.23303 9.67401 4.44287 9.46417C4.66697 9.23796 5.0592 9.24421 5.27709 9.48284L6.85623 11.1928C7.48291 11.8672 7.82947 12.7512 7.82947 13.6787V15.565H4.53006V15.0836C4.53002 14.2556 4.17932 13.4629 3.5651 12.9089ZM17.6136 4.47147C17.1384 4.47147 16.7441 4.86159 16.7358 5.34097C16.713 6.74581 16.52 8.50761 16.0697 9.50155C16.022 9.3812 15.9473 9.26913 15.8518 9.17366C15.6651 8.98276 15.414 8.87901 15.1483 8.87901C14.8682 8.87901 14.6088 8.99315 14.42 9.20065L12.8408 10.9105C12.1415 11.6617 11.7556 12.6453 11.7556 13.6787V15.565C11.7556 15.5733 11.7597 15.5796 11.7597 15.5879C11.3571 15.6771 11.0542 16.034 11.0542 16.4636V19.7526C11.0541 19.7799 11.0594 19.8069 11.0698 19.8322C11.0802 19.8574 11.0954 19.8803 11.1147 19.8996C11.134 19.9189 11.1569 19.9341 11.1821 19.9445C11.2074 19.9549 11.2344 19.9602 11.2617 19.9601H16.3789C16.4062 19.9602 16.4332 19.9549 16.4584 19.9446C16.4837 19.9342 16.5066 19.9189 16.5259 19.8996C16.5452 19.8803 16.5604 19.8574 16.5708 19.8322C16.5812 19.8069 16.5865 19.7799 16.5864 19.7526V16.4636C16.5864 16.0361 16.2835 15.6771 15.8809 15.5879C15.8809 15.5796 15.885 15.5733 15.885 15.565V15.0836C15.885 14.3739 16.1859 13.6933 16.713 13.216C17.0963 12.7667 18.4976 12.0516 18.4976 10.2984V5.35339C18.4976 4.8678 18.1013 4.47147 17.6136 4.47147ZM18.0826 10.2984C18.0826 11.8281 16.8431 12.438 16.4349 12.9089C15.8207 13.463 15.47 14.2557 15.47 15.0836V15.565H12.1706V13.6787C12.1706 12.7512 12.5171 11.8672 13.1438 11.1928L14.7251 9.48081C14.9409 9.24632 15.3331 9.238 15.5593 9.46628C15.7646 9.67159 15.7898 10.0122 15.5925 10.2465L13.8535 12.3278C13.8361 12.3488 13.8229 12.373 13.8148 12.3991C13.8068 12.4252 13.8039 12.4526 13.8064 12.4797C13.8089 12.5069 13.8167 12.5333 13.8295 12.5575C13.8422 12.5816 13.8595 12.603 13.8805 12.6204C13.9769 12.6965 14.1035 12.677 14.1731 12.5935L15.91 10.5142C16.9333 9.32011 17.1258 6.9137 17.1509 5.34925C17.1551 5.09401 17.3626 4.88651 17.6157 4.88651C17.873 4.88651 18.0826 5.09608 18.0826 5.35343V10.2984H18.0826ZM14.7718 2.68628C14.7718 1.22702 13.5867 0.0397949 12.1299 0.0397949C11.2828 0.0397949 10.4943 0.444678 10.0017 1.11526C9.50596 0.444678 8.71889 0.0397949 7.87717 0.0397949C6.41658 0.0397949 5.22834 1.22702 5.22834 2.68628C5.22834 6.57397 9.71252 9.04851 9.90342 9.15198C9.93379 9.16842 9.96778 9.17702 10.0023 9.177C10.0369 9.17698 10.0708 9.16834 10.1012 9.15187C10.2921 9.04839 14.7718 6.57397 14.7718 2.68628ZM10.0022 8.73034C9.34455 8.3444 5.64338 6.02257 5.64338 2.68628C5.64338 1.45581 6.64549 0.454834 7.87717 0.454834C8.68076 0.454834 9.42568 0.89335 9.82127 1.5994C9.90084 1.74124 10.105 1.74065 10.1838 1.59858C10.5749 0.893076 11.3205 0.454834 12.1298 0.454834C13.3577 0.454834 14.3567 1.45581 14.3567 2.68628C14.3567 6.01901 10.6592 8.34378 10.0022 8.73034Z" fill="black"/>
</svg>
