<svg width="13" height="13" viewBox="0 0 13 13" fill="none" xmlns="http://www.w3.org/2000/svg">
<path d="M11.7748 1.22514C10.1413 -0.408396 7.4835 -0.408371 5.84996 1.22516C4.73417 2.34096 4.3466 3.98528 4.82974 5.47711L0.111592 10.1953C0.040168 10.2667 0 10.3634 0 10.4646V12.6192C0 12.8297 0.170346 13 0.38086 13H2.53546C2.63662 13 2.73333 12.9599 2.80473 12.8884L3.34329 12.3495C3.42548 12.2673 3.46565 12.152 3.45227 12.0363L3.38531 11.4576L4.1872 11.3821C4.36946 11.365 4.5134 11.221 4.53051 11.0388L4.60602 10.2369L5.18475 10.3042C5.29223 10.3187 5.40047 10.2826 5.48192 10.2105C5.563 10.138 5.60949 10.0346 5.60949 9.92596V9.21683H6.30575C6.40691 9.21683 6.50362 9.17666 6.57502 9.10524L7.55172 8.14146C9.04317 8.62497 10.6591 8.26661 11.7748 7.15005C13.4084 5.51654 13.4084 2.85867 11.7748 1.22514ZM10.6974 3.91833C10.2518 4.36391 9.52729 4.36391 9.08171 3.91833C8.63613 3.47275 8.63613 2.74822 9.08171 2.30264C9.52729 1.85706 10.2518 1.85706 10.6974 2.30264C11.143 2.74822 11.143 3.47275 10.6974 3.91833Z" fill="#B5BEC8"/>
</svg>
