<svg width="22" height="26" viewBox="0 0 22 26" fill="none" xmlns="http://www.w3.org/2000/svg">
<g filter="url(#filter0_d_34_1417)">
<path d="M13.9999 9.00009C13.9999 9.79574 13.6839 10.5588 13.1213 11.1214C12.5587 11.684 11.7956 12.0001 10.9999 12.0001C10.2043 12.0001 9.44124 11.684 8.87863 11.1214C8.31602 10.5588 7.99995 9.79574 7.99995 9.00009C7.99995 8.20444 8.31602 7.44138 8.87863 6.87877C9.44124 6.31616 10.2043 6.00009 10.9999 6.00009C11.7956 6.00009 12.5587 6.31616 13.1213 6.87877C13.6839 7.44138 13.9999 8.20444 13.9999 9.00009ZM12.9999 9.00009C12.9999 8.46966 12.7892 7.96095 12.4142 7.58588C12.0391 7.2108 11.5304 7.00009 10.9999 7.00009C10.4695 7.00009 9.96081 7.2108 9.58573 7.58588C9.21066 7.96095 8.99995 8.46966 8.99995 9.00009C8.99995 9.53052 9.21066 10.0392 9.58573 10.4143C9.96081 10.7894 10.4695 11.0001 10.9999 11.0001C11.5304 11.0001 12.0391 10.7894 12.4142 10.4143C12.7892 10.0392 12.9999 9.53052 12.9999 9.00009ZM15.9499 13.9551C17.2629 12.6415 18.0004 10.8603 18.0004 9.00309C18.0004 7.14588 17.2629 5.36468 15.9499 4.05109C15.3001 3.40077 14.5284 2.88488 13.6791 2.5329C12.8297 2.18092 11.9193 1.99976 10.9999 1.99976C10.0806 1.99976 9.17018 2.18092 8.32084 2.5329C7.47149 2.88488 6.69983 3.40077 6.04995 4.05109C4.73704 5.36468 3.99951 7.14588 3.99951 9.00309C3.99951 10.8603 4.73704 12.6415 6.04995 13.9551L7.57095 15.4541L9.61395 17.4391L9.74695 17.5571C10.5219 18.1851 11.6569 18.1451 12.3869 17.4391L14.8219 15.0691L15.9499 13.9551ZM6.75495 4.75609C7.31232 4.19847 7.97409 3.75613 8.70246 3.45433C9.43083 3.15253 10.2115 2.9972 10.9999 2.9972C11.7884 2.9972 12.5691 3.15253 13.2974 3.45433C14.0258 3.75613 14.6876 4.19847 15.2449 4.75609C16.3397 5.85154 16.9691 7.32741 17.0019 8.87574C17.0347 10.4241 16.4683 11.9253 15.4209 13.0661L15.2449 13.2501L13.9239 14.5541L11.6939 16.7221L11.5999 16.8021C11.427 16.9324 11.2164 17.0028 10.9999 17.0028C10.7835 17.0028 10.5728 16.9324 10.3999 16.8021L10.3069 16.7221L7.32695 13.8171L6.75495 13.2501L6.57895 13.0671C5.53159 11.9263 4.96523 10.4251 4.99802 8.87674C5.03081 7.32841 5.66023 5.85154 6.75495 4.75609Z" fill="black"/>
</g>
<defs>
<filter id="filter0_d_34_1417" x="-3" y="0" width="28" height="28" filterUnits="userSpaceOnUse" color-interpolation-filters="sRGB">
<feFlood flood-opacity="0" result="BackgroundImageFix"/>
<feColorMatrix in="SourceAlpha" type="matrix" values="0 0 0 0 0 0 0 0 0 0 0 0 0 0 0 0 0 0 127 0" result="hardAlpha"/>
<feOffset dy="4"/>
<feGaussianBlur stdDeviation="2"/>
<feComposite in2="hardAlpha" operator="out"/>
<feColorMatrix type="matrix" values="0 0 0 0 0 0 0 0 0 0 0 0 0 0 0 0 0 0 0.25 0"/>
<feBlend mode="normal" in2="BackgroundImageFix" result="effect1_dropShadow_34_1417"/>
<feBlend mode="normal" in="SourceGraphic" in2="effect1_dropShadow_34_1417" result="shape"/>
</filter>
</defs>
</svg>
