<svg width="15" height="15" viewBox="0 0 15 15" fill="none" xmlns="http://www.w3.org/2000/svg">
<path fill-rule="evenodd" clip-rule="evenodd" d="M5.19234 0C5.51096 0 5.76925 0.258295 5.76925 0.576918V1.7351C6.44953 1.74537 7.12547 1.77375 7.79661 1.8198C8.49616 1.8678 9.19047 1.93499 9.87903 2.02085C10.1952 2.06027 10.4195 2.34855 10.3801 2.66472C10.3407 2.98089 10.0524 3.20524 9.73626 3.16582C9.22895 3.10255 8.71836 3.04975 8.20473 3.00761C7.75029 4.78435 6.96617 6.42868 5.92151 7.87176C6.16523 8.16658 6.42146 8.45071 6.68939 8.72334C6.91272 8.95059 6.90955 9.31586 6.6823 9.5392C6.45505 9.76253 6.08978 9.75936 5.86645 9.53211C5.63347 9.29504 5.40862 9.04995 5.19233 8.79727C3.98379 10.2091 2.50731 11.3846 0.84182 12.245C0.558741 12.3912 0.210712 12.2803 0.0644741 11.9972C-0.0817633 11.7141 0.0291685 11.3661 0.312247 11.2198C1.9136 10.3926 3.32477 9.24891 4.46318 7.87176C3.79696 6.95144 3.23665 5.94918 2.80023 4.88283C2.67955 4.58795 2.82076 4.25106 3.11564 4.13038C3.41052 4.00969 3.7474 4.1509 3.86809 4.44579C4.22371 5.31471 4.66893 6.13767 5.19233 6.90314C6.01147 5.70513 6.63924 4.36614 7.0317 2.93031C6.42246 2.89995 5.80922 2.88459 5.19234 2.88459C3.65324 2.88459 2.13674 2.98022 0.648421 3.16582C0.332249 3.20524 0.0439801 2.98089 0.00455404 2.66472C-0.034872 2.34855 0.189475 2.06027 0.505646 2.02085C1.85481 1.85261 3.22606 1.75606 4.61543 1.7351V0.576918C4.61543 0.258295 4.87372 0 5.19234 0ZM10.3846 5.19226C10.6087 5.19226 10.8126 5.32209 10.9073 5.52521L14.9457 14.179C15.0805 14.4677 14.9556 14.811 14.6669 14.9457C14.3782 15.0805 14.0349 14.9556 13.9002 14.6669L12.9786 12.6922H7.79048L6.86895 14.6669C6.73421 14.9556 6.39093 15.0805 6.1022 14.9457C5.81347 14.811 5.68864 14.4677 5.82338 14.179L9.86177 5.52521C9.95656 5.32209 10.1604 5.19226 10.3846 5.19226ZM8.32894 11.5384H12.4402L10.3846 7.13342L8.32894 11.5384Z" fill="#0F172A"/>
</svg>
