<svg width="13" height="17" viewBox="0 0 13 17" fill="none" xmlns="http://www.w3.org/2000/svg">
<path d="M11.9097 6.125H10.8889V4.76388C10.8889 2.13705 8.75186 0 6.125 0C3.49814 0 1.36112 2.13705 1.36112 4.76388V6.125H0.340288C0.1522 6.125 0 6.2772 0 6.46529V14.9722C0 15.7229 0.610426 16.3333 1.36112 16.3333H10.8889C11.6396 16.3333 12.25 15.7229 12.25 14.9722V6.46529C12.25 6.2772 12.0978 6.125 11.9097 6.125ZM7.14386 13.2333C7.15448 13.3293 7.1236 13.4257 7.05913 13.4978C6.99466 13.5699 6.90227 13.6111 6.80558 13.6111H5.44446C5.34776 13.6111 5.25538 13.5699 5.19091 13.4978C5.12643 13.4257 5.09552 13.3293 5.10618 13.2333L5.32084 11.303C4.97226 11.0494 4.76391 10.6483 4.76391 10.2083C4.76391 9.45767 5.37434 8.84721 6.12503 8.84721C6.87573 8.84721 7.48615 9.45764 7.48615 10.2083C7.48615 10.6483 7.27781 11.0494 6.92923 11.303L7.14386 13.2333ZM8.84721 6.125H3.40279V4.76388C3.40279 3.26287 4.62399 2.04167 6.125 2.04167C7.62601 2.04167 8.84721 3.26287 8.84721 4.76388V6.125Z" fill="#B5BEC8"/>
</svg>
