<svg width="21" height="21" viewBox="0 0 21 21" fill="none" xmlns="http://www.w3.org/2000/svg">
<path d="M9.49981 7.50006L10.4998 6.50006C11.0302 5.96963 11.7497 5.67163 12.4998 5.67163C13.25 5.67163 13.9694 5.96963 14.4998 6.50006C15.0302 7.03049 15.3282 7.74991 15.3282 8.50006C15.3282 9.2502 15.0302 9.96963 14.4998 10.5001L13.4998 11.5001M10.4998 14.5001L9.49981 15.5001C8.96938 16.0305 8.24996 16.3285 7.49981 16.3285C6.74967 16.3285 6.03025 16.0305 5.49981 15.5001C4.96938 14.9696 4.67139 14.2502 4.67139 13.5001C4.67139 12.7499 4.96938 12.0305 5.49981 11.5001L6.49981 10.5001M7.49981 13.5001L12.4998 8.50006" stroke="black" stroke-linecap="round" stroke-linejoin="round"/>
</svg>
