<svg width="24" height="24" viewBox="0 0 24 24" fill="none" xmlns="http://www.w3.org/2000/svg">
<g clip-path="url(#clip0_34_1456)">
<path d="M6.75 5.5C6.48478 5.5 6.23043 5.39464 6.04289 5.20711C5.85536 5.01957 5.75 4.76522 5.75 4.5V1C5.75 0.734784 5.85536 0.48043 6.04289 0.292893C6.23043 0.105357 6.48478 0 6.75 0C7.01522 0 7.26957 0.105357 7.45711 0.292893C7.64464 0.48043 7.75 0.734784 7.75 1V4.5C7.75 4.76522 7.64464 5.01957 7.45711 5.20711C7.26957 5.39464 7.01522 5.5 6.75 5.5ZM11.5 5.5C11.2348 5.5 10.9804 5.39464 10.7929 5.20711C10.6054 5.01957 10.5 4.76522 10.5 4.5V1C10.5 0.734784 10.6054 0.48043 10.7929 0.292893C10.9804 0.105357 11.2348 0 11.5 0C11.7652 0 12.0196 0.105357 12.2071 0.292893C12.3946 0.48043 12.5 0.734784 12.5 1V4.5C12.5 4.76522 12.3946 5.01957 12.2071 5.20711C12.0196 5.39464 11.7652 5.5 11.5 5.5ZM16.25 5.5C15.9848 5.5 15.7304 5.39464 15.5429 5.20711C15.3554 5.01957 15.25 4.76522 15.25 4.5V1C15.25 0.734784 15.3554 0.48043 15.5429 0.292893C15.7304 0.105357 15.9848 0 16.25 0C16.5152 0 16.7696 0.105357 16.9571 0.292893C17.1446 0.48043 17.25 0.734784 17.25 1V4.5C17.25 4.76522 17.1446 5.01957 16.9571 5.20711C16.7696 5.39464 16.5152 5.5 16.25 5.5Z" fill="#00A652"/>
<path d="M18.25 2.25H4.75C4.02082 2.25053 3.32165 2.54043 2.80604 3.05604C2.29043 3.57165 2.00053 4.27082 2 5V21.25C2.00053 21.9792 2.29043 22.6783 2.80604 23.194C3.32165 23.7096 4.02082 23.9995 4.75 24H18.25C18.9792 23.9995 19.6783 23.7096 20.194 23.194C20.7096 22.6783 20.9995 21.9792 21 21.25V5C20.9995 4.27082 20.7096 3.57165 20.194 3.05604C19.6783 2.54043 18.9792 2.25053 18.25 2.25ZM7 8H12C12.2652 8 12.5196 8.10536 12.7071 8.29289C12.8946 8.48043 13 8.73478 13 9C13 9.26522 12.8946 9.51957 12.7071 9.70711C12.5196 9.89464 12.2652 10 12 10H7C6.73478 10 6.48043 9.89464 6.29289 9.70711C6.10536 9.51957 6 9.26522 6 9C6 8.73478 6.10536 8.48043 6.29289 8.29289C6.48043 8.10536 6.73478 8 7 8ZM17 18H7C6.73478 18 6.48043 17.8946 6.29289 17.7071C6.10536 17.5196 6 17.2652 6 17C6 16.7348 6.10536 16.4804 6.29289 16.2929C6.48043 16.1054 6.73478 16 7 16H17C17.2652 16 17.5196 16.1054 17.7071 16.2929C17.8946 16.4804 18 16.7348 18 17C18 17.2652 17.8946 17.5196 17.7071 17.7071C17.5196 17.8946 17.2652 18 17 18ZM17 14H7C6.73478 14 6.48043 13.8946 6.29289 13.7071C6.10536 13.5196 6 13.2652 6 13C6 12.7348 6.10536 12.4804 6.29289 12.2929C6.48043 12.1054 6.73478 12 7 12H17C17.2652 12 17.5196 12.1054 17.7071 12.2929C17.8946 12.4804 18 12.7348 18 13C18 13.2652 17.8946 13.5196 17.7071 13.7071C17.5196 13.8946 17.2652 14 17 14Z" fill="#00A652"/>
</g>
<defs>
<clipPath id="clip0_34_1456">
<rect width="24" height="24" fill="white"/>
</clipPath>
</defs>
</svg>
