<svg width="14" height="17" viewBox="0 0 14 17" fill="none" xmlns="http://www.w3.org/2000/svg">
<path d="M5 15H9C9 16.1046 8.10457 17 7 17C5.89543 17 5 16.1046 5 15Z" fill="black"/>
<path d="M7.87859 1H6.12111L5.22314 1.32306C3.13977 2.07259 1.75062 4.04884 1.75062 6.26315V9.16845C1.75062 9.81047 1.44878 10.4151 0.93568 10.801C-0.85557 12.1479 0.0969262 15 2.338 15H11.662C13.9031 15 14.8556 12.1479 13.0644 10.801C12.5513 10.4151 12.2494 9.81049 12.2494 9.16848V6.26325C12.2494 4.04888 10.8602 2.0726 8.77678 1.32311L7.87859 1Z" fill="#B5BEC8"/>
<path d="M6 0.5C6 0.223858 6.44772 0 7 0C7.55228 0 8 0.223858 8 0.5V1H6V0.5Z" fill="black"/>
</svg>
