<svg width="70" height="70" viewBox="0 0 70 70" fill="none" xmlns="http://www.w3.org/2000/svg">
<circle cx="35" cy="35" r="35" fill="#F5F7FA"/>
<path d="M27.5 30.25C27.5 30.0511 27.579 29.8603 27.7197 29.7197C27.8603 29.579 28.0511 29.5 28.25 29.5H38.75C38.9489 29.5 39.1397 29.579 39.2803 29.7197C39.421 29.8603 39.5 30.0511 39.5 30.25C39.5 30.4489 39.421 30.6397 39.2803 30.7803C39.1397 30.921 38.9489 31 38.75 31H28.25C28.0511 31 27.8603 30.921 27.7197 30.7803C27.579 30.6397 27.5 30.4489 27.5 30.25ZM35.75 34C35.5511 34 35.3603 34.079 35.2197 34.2197C35.079 34.3603 35 34.5511 35 34.75C35 34.9489 35.079 35.1397 35.2197 35.2803C35.3603 35.421 35.5511 35.5 35.75 35.5H38.75C38.9489 35.5 39.1397 35.421 39.2803 35.2803C39.421 35.1397 39.5 34.9489 39.5 34.75C39.5 34.5511 39.421 34.3603 39.2803 34.2197C39.1397 34.079 38.9489 34 38.75 34H35.75ZM35 39.25C35 39.0511 35.079 38.8603 35.2197 38.7197C35.3603 38.579 35.5511 38.5 35.75 38.5H38.75C38.9489 38.5 39.1397 38.579 39.2803 38.7197C39.421 38.8603 39.5 39.0511 39.5 39.25C39.5 39.4489 39.421 39.6397 39.2803 39.7803C39.1397 39.921 38.9489 40 38.75 40H35.75C35.5511 40 35.3603 39.921 35.2197 39.7803C35.079 39.6397 35 39.4489 35 39.25ZM28.25 34C28.0511 34 27.8603 34.079 27.7197 34.2197C27.579 34.3603 27.5 34.5511 27.5 34.75V39.25C27.5 39.4489 27.579 39.6397 27.7197 39.7803C27.8603 39.921 28.0511 40 28.25 40H32.75C32.9489 40 33.1397 39.921 33.2803 39.7803C33.421 39.6397 33.5 39.4489 33.5 39.25V34.75C33.5 34.5511 33.421 34.3603 33.2803 34.2197C33.1397 34.079 32.9489 34 32.75 34H28.25ZM29 38.5V35.5H32V38.5H29ZM23 28C23 27.2044 23.3161 26.4413 23.8787 25.8787C24.4413 25.3161 25.2044 25 26 25H41C41.7956 25 42.5587 25.3161 43.1213 25.8787C43.6839 26.4413 44 27.2044 44 28V29.5C44.7956 29.5 45.5587 29.8161 46.1213 30.3787C46.6839 30.9413 47 31.7044 47 32.5V40.75C47 41.7446 46.6049 42.6984 45.9016 43.4016C45.1984 44.1049 44.2446 44.5 43.25 44.5H26.75C25.7554 44.5 24.8016 44.1049 24.0983 43.4016C23.3951 42.6984 23 41.7446 23 40.75V28ZM42.5 28C42.5 27.6022 42.342 27.2206 42.0607 26.9393C41.7794 26.658 41.3978 26.5 41 26.5H26C25.6022 26.5 25.2206 26.658 24.9393 26.9393C24.658 27.2206 24.5 27.6022 24.5 28V40.75C24.5 41.3467 24.7371 41.919 25.159 42.341C25.581 42.7629 26.1533 43 26.75 43H43.25C43.8467 43 44.419 42.7629 44.841 42.341C45.2629 41.919 45.5 41.3467 45.5 40.75V32.5C45.5 32.1022 45.342 31.7206 45.0607 31.4393C44.7794 31.158 44.3978 31 44 31V40.75C44 40.9489 43.921 41.1397 43.7803 41.2803C43.6397 41.421 43.4489 41.5 43.25 41.5C43.0511 41.5 42.8603 41.421 42.7197 41.2803C42.579 41.1397 42.5 40.9489 42.5 40.75V28Z" fill="black"/>
</svg>
