<svg width="24" height="24" viewBox="0 0 24 24" fill="none" xmlns="http://www.w3.org/2000/svg">
<circle cx="12" cy="12" r="11.25" stroke="#0473C0" stroke-width="1.5"/>
<path d="M11.3314 15.5211V8.47885C11.3314 7.81028 11.0491 7.54285 10.336 7.54285H8.53827C7.82513 7.54285 7.54285 7.81028 7.54285 8.47885V15.5211C7.54285 16.1897 7.82513 16.4571 8.53827 16.4571H10.336C11.0491 16.4571 11.3314 16.1897 11.3314 15.5211Z" stroke="#0473C0" stroke-linecap="round" stroke-linejoin="round"/>
<path d="M16.4571 15.521V8.47873C16.4571 7.81017 16.1748 7.54274 15.4616 7.54274H13.6639C12.9558 7.54274 12.6685 7.81017 12.6685 8.47873V15.521C12.6685 16.1895 12.9508 16.457 13.6639 16.457H15.4616C16.1748 16.457 16.4571 16.1895 16.4571 15.521Z" stroke="#0473C0" stroke-linecap="round" stroke-linejoin="round"/>
</svg>
