<svg width="30" height="31" viewBox="0 0 30 31" fill="none" xmlns="http://www.w3.org/2000/svg">
<path d="M18.493 5.73634C18.493 5.73634 21.458 1.88824 20.6054 0.784284C20.3148 0.408079 20.0671 0.918992 19.4662 0.918992C18.7601 0.918992 18.7601 0.457031 18.054 0.457031C17.348 0.457031 17.348 0.918992 16.642 0.918992C15.9361 0.918992 15.9361 0.457031 15.2301 0.457031C14.5242 0.457031 14.5242 0.918992 13.8182 0.918992C13.2166 0.918992 12.9698 0.401432 12.6773 0.777817C11.8244 1.87567 14.7459 5.73628 14.7459 5.73628C1.84288 14.2187 6.00325 25.7545 13.6214 25.7545H19.6632C27.3044 25.7545 31.439 14.2469 18.493 5.73634Z" fill="#EABC6B"/>
<path d="M18.4935 5.73634C18.4935 5.73634 21.4584 1.88824 20.6058 0.784284C20.3153 0.408079 20.0675 0.918992 19.4666 0.918992C18.7605 0.918992 18.7605 0.457031 18.0544 0.457031C17.3484 0.457031 17.3484 0.918992 16.6424 0.918992C16.6077 0.918992 16.5759 0.917058 16.5444 0.914883C16.2607 2.13082 14.9824 4.0252 14.2509 5.03947C14.539 5.46221 14.7464 5.73628 14.7464 5.73628C14.5763 5.84822 14.4074 5.96194 14.2397 6.07743C26.5678 14.551 22.4428 25.7545 14.9032 25.7545H19.6637C27.3048 25.7545 31.4394 14.2469 18.4935 5.73634Z" fill="#E8AE4D"/>
<path d="M19.0445 7.10495C17.3217 7.54001 15.6196 7.54007 13.8965 7.10495C13.2968 6.9535 12.9568 6.27911 13.1726 5.66612L13.1799 5.64558C13.3608 5.13164 13.874 4.84325 14.377 4.9695C15.7877 5.3237 17.1529 5.32376 18.564 4.9695C19.067 4.84319 19.5802 5.13164 19.7612 5.64558L19.7684 5.66612C19.9842 6.27917 19.6443 6.9535 19.0445 7.10495Z" fill="#FFE07D"/>
<path d="M2.8457 27.7335L9.40683 30.1757C9.96406 30.3831 10.5539 30.4893 11.1484 30.4893H17.9102C18.8565 30.4893 19.7832 30.2204 20.5825 29.7139L29.0489 24.3491C29.6075 23.8531 29.711 23.0195 29.2908 22.4019C28.831 21.7262 28.0704 21.6087 27.2334 22.0045L18.9906 25.6339L19.0003 24.2966C18.8912 23.1989 18.046 22.3179 16.9538 22.1634L11.9341 21.5854C10.7762 21.4216 10.1976 21.0335 9.18812 20.443C7.80996 19.6368 6.24208 19.2119 4.64544 19.2119H2.8457V27.7335Z" fill="#FFDDCE"/>
<path d="M2.8457 27.7335L9.40683 30.1757C9.96406 30.3831 10.5539 30.4893 11.1484 30.4893H17.9102C18.8565 30.4893 19.7832 30.2204 20.5825 29.7139L29.0489 24.3491C29.6075 23.8531 29.711 23.0195 29.2908 22.4019C28.831 21.7262 28.0704 21.6087 27.2334 22.0045L18.9906 25.6339L19.0003 24.2966C18.8912 23.1989 18.046 22.3179 16.9538 22.1634L11.9341 21.5854C10.7762 21.4216 10.1976 21.0335 9.18812 20.443C7.80996 19.6368 6.24208 19.2119 4.64544 19.2119H2.8457V27.7335Z" fill="#FFDDCE"/>
<path d="M29.2908 22.4016C28.831 21.7259 28.0704 21.6084 27.2334 22.0042L24.9662 23.0025C25.076 23.1763 25.1633 23.315 25.1633 23.315C25.5835 23.9326 25.48 24.7661 24.9214 25.2622L19.9882 28.3881C19.3362 28.6868 18.6274 28.8415 17.9102 28.8416H11.1484C10.5539 28.8417 9.96406 28.7355 9.40683 28.528L2.8457 26.0859V27.7332L9.40683 30.1754C9.96406 30.3828 10.5539 30.489 11.1484 30.489H17.9102C18.8565 30.489 19.7832 30.2201 20.5825 29.7136L29.0489 24.3488C29.6075 23.8528 29.711 23.0192 29.2908 22.4016Z" fill="#FFCBBE"/>
<path d="M18.385 22.9189L18.3848 22.9512L18.406 22.9418C18.3992 22.9341 18.392 22.9266 18.385 22.9189Z" fill="#F5DBCC"/>
<path d="M4.25741 29.0405C4.25741 29.5166 3.87148 29.9025 3.39544 29.9025H1.3151C0.839059 29.9025 0.453125 29.5166 0.453125 29.0405V18.486C0.453125 18.01 0.839059 17.624 1.3151 17.624H3.39544C3.87148 17.624 4.25741 18.01 4.25741 18.486V29.0405Z" fill="#407093"/>
<path d="M29.6654 22.1471C29.0882 21.2988 28.1091 21.0917 27.0455 21.5923L26.4818 21.8405C27.3706 19.9458 27.4809 17.8338 27.0384 15.8389C26.5302 13.5477 25.3027 11.328 23.3901 9.24164C23.3499 9.19776 23.3014 9.16224 23.2475 9.1371C23.1936 9.11196 23.1352 9.09769 23.0757 9.09511C23.0163 9.09252 22.9569 9.10168 22.901 9.12205C22.845 9.14242 22.7937 9.17361 22.7498 9.21384C22.7059 9.25405 22.6704 9.30251 22.6453 9.35646C22.6201 9.4104 22.6059 9.46877 22.6033 9.52823C22.6007 9.58769 22.6099 9.64708 22.6302 9.703C22.6506 9.75892 22.6818 9.81028 22.722 9.85414C24.5257 11.8216 25.6803 13.9013 26.1536 16.0351C26.6521 18.2829 26.3621 20.6009 25.0899 22.4533L19.4488 24.9371L19.4535 24.3C19.4536 24.2839 19.4529 24.2678 19.4512 24.2518C19.3891 23.615 19.1138 23.0179 18.6699 22.5572C18.226 22.0964 17.6395 21.7991 17.0055 21.7132L11.9918 21.136C10.0639 20.8615 9.56737 19.7062 6.95637 19.0474C6.77597 17.5166 7.01644 15.8868 7.67554 14.2528C8.66817 11.792 10.6101 9.40124 13.3022 7.32031C14.3056 8.03174 18.7822 8.12028 19.7839 7.20252C20.2971 7.59226 20.787 7.99391 21.2432 8.40045C21.3261 8.47453 21.4334 8.51541 21.5446 8.51528C21.6364 8.51528 21.7261 8.48737 21.8017 8.43525C21.8774 8.38314 21.9354 8.30927 21.9681 8.22343C22.0008 8.1376 22.0066 8.04386 21.9849 7.95462C21.9631 7.86539 21.9147 7.78488 21.8461 7.72377C21.346 7.27818 20.808 6.83852 20.2437 6.41361C20.376 5.8529 20.1909 5.19664 19.7026 4.80599C21.1215 2.6538 21.5342 1.24513 20.9642 0.50711C20.5726 0.000125183 20.0855 0.238056 19.8775 0.339706C19.5249 0.511824 19.3327 0.520889 19.0083 0.308643C18.3894 -0.0963282 17.7388 -0.109382 17.1 0.308643C16.7715 0.523608 16.5127 0.523608 16.1843 0.308643C15.5654 -0.0963282 14.9151 -0.109382 14.2761 0.308643C13.948 0.523427 13.755 0.510131 13.408 0.337651C13.2002 0.234369 12.7137 -0.00748958 12.3196 0.499555C11.7624 1.21679 12.1352 2.58104 13.4584 4.66004C13.3769 4.70403 13.2998 4.75559 13.228 4.81403C12.7017 4.25827 11.8395 3.67865 10.5926 3.81789C9.55843 3.93362 8.79581 3.59186 8.33808 3.28486C8.23824 3.2208 8.11726 3.19844 8.00112 3.22257C7.88498 3.2467 7.78292 3.3154 7.71686 3.41393C7.6508 3.51245 7.62599 3.63295 7.64777 3.74955C7.66954 3.86616 7.73616 3.96959 7.83333 4.03763C8.41682 4.42882 9.38655 4.86431 10.6932 4.7186C11.6565 4.61055 12.3102 5.10285 12.7171 5.60385C12.7115 5.62319 12.7064 5.64265 12.7016 5.66211C12.3546 5.66755 11.8358 5.69994 11.2646 5.81875C9.89082 6.10455 8.87105 6.75742 8.31548 7.70697C8.28402 7.75838 8.26313 7.81555 8.25403 7.87513C8.24493 7.93472 8.24781 7.99552 8.2625 8.05398C8.27718 8.11243 8.30338 8.16738 8.33956 8.21559C8.37573 8.2638 8.42116 8.30431 8.47319 8.33475C8.52521 8.36519 8.58278 8.38495 8.64253 8.39287C8.70228 8.40079 8.76302 8.39671 8.82117 8.38088C8.87933 8.36504 8.93375 8.33777 8.98123 8.30065C9.02872 8.26353 9.06833 8.21731 9.09774 8.1647C9.92412 6.7524 11.9412 6.57968 12.7424 6.56886C12.7459 6.57884 12.7499 6.58869 12.7535 6.5986C9.89451 8.80403 7.90404 11.2635 6.83507 13.9136C6.15942 15.5886 5.88952 17.2668 6.02652 18.8616C5.5908 18.797 5.1511 18.7629 4.71062 18.7598V18.4857C4.71062 17.7605 4.12066 17.1706 3.39551 17.1706H1.31511C0.589961 17.1706 0 17.7606 0 18.4857V29.0402C0 29.7654 0.589961 30.3553 1.31511 30.3553H3.39545C4.1206 30.3553 4.71056 29.7654 4.71056 29.0402V28.9111L9.24864 30.6002C9.85636 30.8268 10.4998 30.9426 11.1483 30.9423H17.9101C18.9423 30.9427 19.9534 30.6493 20.825 30.0965C29.8454 24.3782 29.2976 24.7339 29.3497 24.6878C30.0763 24.0428 30.2121 22.9505 29.6654 22.1471ZM18.9335 6.6655C17.2763 7.08395 15.665 7.08395 14.0074 6.6655C13.2961 6.48571 13.5022 5.21719 14.2666 5.40889C15.7495 5.78116 17.1912 5.78116 18.6743 5.40889C19.4254 5.22033 19.6562 6.48287 18.9335 6.6655ZM12.9941 1.14415L13.0046 1.14941C13.6179 1.45424 14.1554 1.4708 14.7724 1.06716C15.5445 0.561742 15.6283 1.37211 16.6421 1.37211C17.1301 1.37211 17.3995 1.19588 17.5961 1.06716C17.9247 0.85213 18.1835 0.852251 18.512 1.06716C19.1317 1.47267 19.6562 1.45267 20.2874 1.14826C20.3806 1.48439 20.1696 2.48646 18.8257 4.4872C18.1584 4.47584 17.19 5.13125 14.4486 4.52116C13.1077 2.49456 12.9003 1.48276 12.9941 1.14415ZM28.7726 23.9878L20.3399 29.3312C19.6133 29.792 18.7706 30.0366 17.9102 30.0362H11.1484C10.6077 30.0365 10.0714 29.9399 9.56484 29.751L4.71056 27.9442V23.0638C4.71056 22.9437 4.66282 22.8284 4.57784 22.7434C4.49286 22.6584 4.3776 22.6107 4.25742 22.6107C4.13725 22.6107 4.02199 22.6584 3.93701 22.7434C3.85203 22.8284 3.80429 22.9437 3.80429 23.0638V29.0404C3.80416 29.1488 3.76105 29.2527 3.68442 29.3293C3.60778 29.406 3.50388 29.4491 3.39551 29.4492H1.31511C1.20674 29.4491 1.10284 29.406 1.0262 29.3293C0.949572 29.2527 0.906463 29.1488 0.906335 29.0404V18.4859C0.906447 18.3776 0.949553 18.2737 1.02619 18.197C1.10283 18.1204 1.20674 18.0773 1.31511 18.0772H3.39545C3.50382 18.0773 3.60772 18.1204 3.68435 18.197C3.76099 18.2737 3.8041 18.3776 3.80423 18.4859V20.9452C3.80423 21.0654 3.85197 21.1807 3.93695 21.2657C4.02193 21.3506 4.13718 21.3984 4.25736 21.3984C4.37754 21.3984 4.4928 21.3506 4.57778 21.2657C4.66276 21.1807 4.7105 21.0654 4.7105 20.9452V19.6663C8.45931 19.695 9.30219 21.6709 11.8705 22.0342C11.8744 22.0348 11.8783 22.0353 11.8821 22.0357L16.8956 22.6129C17.3212 22.6736 17.7145 22.8742 18.0134 23.183C18.3124 23.4919 18.5001 23.8915 18.5468 24.3188L18.5406 25.1809H13.865C13.7461 25.1828 13.6327 25.2314 13.5493 25.3162C13.4659 25.401 13.4192 25.5151 13.4192 25.6341C13.4192 25.753 13.4659 25.8671 13.5493 25.9519C13.6327 26.0367 13.7461 26.0853 13.865 26.0873H18.9904C19.0477 26.0873 19.1138 26.0746 19.1713 26.0495L27.4159 22.4195C28.0088 22.156 28.5494 22.1183 28.916 22.6571C29.201 23.0757 29.1379 23.6417 28.7726 23.9878Z" fill="black"/>
</svg>
