<svg width="14" height="14" viewBox="0 0 14 14" fill="none" xmlns="http://www.w3.org/2000/svg">
<g clip-path="url(#clip0_34_2611)">
<path d="M0.695954 4.62879V13.1259C0.695954 13.4172 0.938728 13.6438 1.21387 13.6438H12.7699C13.0613 13.6438 13.2879 13.401 13.2879 13.1259V4.62879H0.695954ZM9.61387 7.88197C9.61387 8.1733 9.3711 8.39989 9.09595 8.39989H4.88786C4.59653 8.39989 4.36994 8.15711 4.36994 7.88197V6.82995C4.36994 6.53862 4.61272 6.31203 4.88786 6.31203H9.09595C9.38728 6.31203 9.61387 6.5548 9.61387 6.82995V7.88197ZM13.4659 0.355957H0.517919C0.22659 0.355957 0 0.598732 0 0.873876V3.93284H14V0.890061C13.9838 0.598732 13.7572 0.355957 13.4659 0.355957Z" fill="#44515E"/>
</g>
<defs>
<clipPath id="clip0_34_2611">
<rect width="14" height="14" fill="white"/>
</clipPath>
</defs>
</svg>
