<svg width="28" height="30" viewBox="0 0 28 30" fill="none" xmlns="http://www.w3.org/2000/svg">
<g filter="url(#filter0_d_5_2006)">
<path d="M14 2C8.47715 2 4 6.47715 4 12C4 17.5228 8.47715 22 14 22C19.5228 22 24 17.5228 24 12C24 6.47715 19.5228 2 14 2Z" fill="black"/>
<path fill-rule="evenodd" clip-rule="evenodd" d="M13.1333 9.50073C12.8568 9.97879 12.2451 10.1421 11.767 9.86561C11.289 9.58906 11.1256 8.97733 11.4021 8.49927C11.9193 7.60518 12.8885 7 14.0002 7C15.657 7 17.0002 8.34315 17.0002 10C17.0002 11.0977 16.3268 11.994 15.5002 12.5C14.8362 12.9065 15.2502 14 13.9976 14C13.4453 14 12.9976 13.5523 12.9976 13C12.9976 12.9649 12.9994 12.9302 13.0029 12.896C13.0306 12.3672 13.2665 11.9368 13.5232 11.6239C13.7944 11.2935 14.1509 11.0237 14.4235 10.8616C15.9402 9.96 14.0904 8.1154 13.1333 9.50073ZM13.9976 15C13.4453 15 12.9976 15.4477 12.9976 16C12.9976 16.5523 13.4453 17 13.9976 17C14.5498 17 14.9976 16.5523 14.9976 16C14.9976 15.4477 14.5498 15 13.9976 15Z" fill="white"/>
</g>
<defs>
<filter id="filter0_d_5_2006" x="-2" y="0" width="32" height="32" filterUnits="userSpaceOnUse" color-interpolation-filters="sRGB">
<feFlood flood-opacity="0" result="BackgroundImageFix"/>
<feColorMatrix in="SourceAlpha" type="matrix" values="0 0 0 0 0 0 0 0 0 0 0 0 0 0 0 0 0 0 127 0" result="hardAlpha"/>
<feOffset dy="4"/>
<feGaussianBlur stdDeviation="2"/>
<feComposite in2="hardAlpha" operator="out"/>
<feColorMatrix type="matrix" values="0 0 0 0 0 0 0 0 0 0 0 0 0 0 0 0 0 0 0.25 0"/>
<feBlend mode="normal" in2="BackgroundImageFix" result="effect1_dropShadow_5_2006"/>
<feBlend mode="normal" in="SourceGraphic" in2="effect1_dropShadow_5_2006" result="shape"/>
</filter>
</defs>
</svg>
