<svg width="20" height="20" viewBox="0 0 20 20" fill="none" xmlns="http://www.w3.org/2000/svg">
<path fill-rule="evenodd" clip-rule="evenodd" d="M15.3032 2.54834C15.4689 2.54834 15.6279 2.61419 15.7451 2.7314C15.8623 2.84861 15.9282 3.00758 15.9282 3.17334V6.70834C15.9282 6.8741 15.8623 7.03307 15.7451 7.15028C15.6279 7.26749 15.4689 7.33334 15.3032 7.33334H11.7673C11.6016 7.33334 11.4426 7.26749 11.3254 7.15028C11.2082 7.03307 11.1423 6.8741 11.1423 6.70834C11.1423 6.54258 11.2082 6.38361 11.3254 6.2664C11.4426 6.14919 11.6016 6.08334 11.7673 6.08334H13.734C12.6057 5.19666 11.1986 4.7405 9.76468 4.7965C8.33075 4.8525 6.96354 5.417 5.9078 6.38897C4.85206 7.36094 4.1767 8.67692 4.00261 10.1014C3.82852 11.5258 4.16706 12.9657 4.95764 14.1633C5.74822 15.3609 6.93923 16.2381 8.31747 16.6378C9.69572 17.0375 11.1712 16.9336 12.4799 16.3448C13.7885 15.7559 14.8449 14.7206 15.4599 13.424C16.0749 12.1275 16.2084 10.6543 15.8365 9.26834C15.8153 9.189 15.81 9.10627 15.8208 9.02486C15.8316 8.94346 15.8583 8.86498 15.8994 8.7939C15.9406 8.72282 15.9953 8.66055 16.0605 8.61062C16.1257 8.56069 16.2001 8.5241 16.2794 8.50292C16.3588 8.48175 16.4415 8.47641 16.5229 8.4872C16.6043 8.498 16.6828 8.52473 16.7539 8.56586C16.8249 8.60699 16.8872 8.66171 16.9371 8.72691C16.9871 8.79211 17.0237 8.8665 17.0448 8.94584C17.4959 10.6275 17.3304 12.4151 16.5781 13.9853C15.8259 15.5555 14.5366 16.8047 12.9434 17.507C11.3502 18.2094 9.55834 18.3184 7.89175 17.8145C6.22515 17.3106 4.79389 16.2269 3.85676 14.7596C2.91963 13.2922 2.53851 11.5379 2.7823 9.81391C3.0261 8.08995 3.87872 6.51013 5.186 5.36013C6.49327 4.21013 8.16889 3.56586 9.90986 3.54383C11.6508 3.5218 13.3422 4.12346 14.6782 5.24001V3.17334C14.6782 3.00758 14.744 2.84861 14.8612 2.7314C14.9784 2.61419 15.1374 2.54834 15.3032 2.54834Z" fill="#0B3D74"/>
</svg>
