<svg width="20" height="20" viewBox="0 0 20 20" fill="none" xmlns="http://www.w3.org/2000/svg">
<path d="M2.5 10C2.5 9.01509 2.69399 8.03982 3.0709 7.12987C3.44781 6.21993 4.00026 5.39314 4.6967 4.6967C5.39314 4.00026 6.21993 3.44781 7.12987 3.0709C8.03982 2.69399 9.01509 2.5 10 2.5C10.9849 2.5 11.9602 2.69399 12.8701 3.0709C13.7801 3.44781 14.6069 4.00026 15.3033 4.6967C15.9997 5.39314 16.5522 6.21993 16.9291 7.12987C17.306 8.03982 17.5 9.01509 17.5 10C17.5 11.9891 16.7098 13.8968 15.3033 15.3033C13.8968 16.7098 11.9891 17.5 10 17.5C8.01088 17.5 6.10322 16.7098 4.6967 15.3033C3.29018 13.8968 2.5 11.9891 2.5 10Z" stroke="#44515E" stroke-width="2" stroke-linecap="round" stroke-linejoin="round"/>
</svg>
