<svg width="20" height="20" viewBox="0 0 20 20" fill="none" xmlns="http://www.w3.org/2000/svg">
<path fill-rule="evenodd" clip-rule="evenodd" d="M9.99984 1.66663C5.39734 1.66663 1.6665 5.39746 1.6665 9.99996C1.6665 14.6025 5.39734 18.3333 9.99984 18.3333C14.6023 18.3333 18.3332 14.6025 18.3332 9.99996C18.3332 5.39746 14.6023 1.66663 9.99984 1.66663ZM9.99984 6.66663C9.11578 6.66663 8.26794 7.01782 7.64281 7.64294C7.01769 8.26806 6.6665 9.1159 6.6665 9.99996C6.6665 10.884 7.01769 11.7319 7.64281 12.357C8.26794 12.9821 9.11578 13.3333 9.99984 13.3333C10.8839 13.3333 11.7317 12.9821 12.3569 12.357C12.982 11.7319 13.3332 10.884 13.3332 9.99996C13.3332 9.1159 12.982 8.26806 12.3569 7.64294C11.7317 7.01782 10.8839 6.66663 9.99984 6.66663Z" fill="#00A652"/>
</svg>
