<svg width="26" height="21" viewBox="0 0 26 21" fill="none" xmlns="http://www.w3.org/2000/svg">
<path d="M24.8401 8.79877C24.6272 8.58578 24.2815 8.58578 24.0687 8.79877L22.7804 10.0871C22.4676 5.85398 19.4675 2.30224 15.3463 1.28603C11.2253 0.269619 6.91786 2.01953 4.67286 5.62181C4.62112 5.70304 4.5918 5.79651 4.58788 5.89274C4.58395 5.98896 4.60556 6.08451 4.6505 6.16969C4.69545 6.25486 4.76214 6.32662 4.84379 6.37769C4.92545 6.42875 5.01916 6.45729 5.11542 6.46042C5.21171 6.46355 5.30712 6.44111 5.39192 6.39537C5.47672 6.34964 5.54789 6.28225 5.59817 6.20007C7.57883 3.02254 11.3668 1.46342 15.0102 2.32623C18.6539 3.18899 21.3405 6.28078 21.6862 10.0092L20.4752 8.79877C20.2612 8.59212 19.9209 8.59494 19.7103 8.80552C19.4999 9.01596 19.4969 9.35621 19.7037 9.57043L21.8862 11.7527C22.0992 11.9659 22.4447 11.9659 22.6577 11.7527L24.8401 9.57043C25.0533 9.35744 25.0533 9.01176 24.8401 8.79877ZM21.1479 15.2693C20.8923 15.11 20.5559 15.1876 20.3956 15.4425C18.415 18.6205 14.627 20.1796 10.9832 19.3168C7.33949 18.454 4.65286 15.362 4.30739 11.6334L5.51802 12.8441C5.73204 13.0507 6.07229 13.0479 6.28288 12.8373C6.49331 12.6269 6.49628 12.2866 6.28953 12.0724L4.10693 9.89007C3.89394 9.67687 3.54847 9.67687 3.33548 9.89007L1.15324 12.0724C0.94644 12.2866 0.949253 12.6269 1.15984 12.8373C1.37022 13.0479 1.71053 13.0507 1.92469 12.8441L3.21287 11.5557C3.52576 15.7888 6.52564 19.3405 10.6469 20.3568C14.7681 21.3732 19.0753 19.6235 21.3204 16.021C21.4798 15.7658 21.4027 15.4295 21.1479 15.2693Z" fill="#44515E" stroke="#44515E" stroke-width="0.2"/>
</svg>
