<svg width="24" height="25" viewBox="0 0 24 25" fill="none" xmlns="http://www.w3.org/2000/svg">
<path fill-rule="evenodd" clip-rule="evenodd" d="M10.0001 4.12085C10.0001 3.29242 10.6716 2.62085 11.5001 2.62085H12.5001C13.3285 2.62085 14.0001 3.29242 14.0001 4.12085V4.4853C14.0001 4.71344 14.155 4.91106 14.3729 4.97864C14.8439 5.12472 15.2962 5.31313 15.7255 5.53944C15.9274 5.64585 16.1767 5.6157 16.3381 5.45435L16.5962 5.19623C17.182 4.61044 18.1317 4.61044 18.7175 5.19623L19.4246 5.90334C20.0104 6.48912 20.0104 7.43887 19.4246 8.02466L19.1665 8.28277C19.0052 8.44412 18.975 8.69349 19.0814 8.89534C19.3077 9.32463 19.4961 9.77699 19.6422 10.248C19.7098 10.4659 19.9074 10.6208 20.1356 10.6208H20.5C21.3284 10.6208 22 11.2924 22 12.1208V13.1208C22 13.9493 21.3284 14.6208 20.5 14.6208H20.1356C19.9074 14.6208 19.7098 14.7758 19.6422 14.9937C19.4961 15.4647 19.3077 15.9171 19.0814 16.3464C18.975 16.5482 19.0052 16.7976 19.1665 16.9589L19.4246 17.217C20.0104 17.8028 20.0104 18.7526 19.4246 19.3384L18.7175 20.0455C18.1317 20.6313 17.182 20.6313 16.5962 20.0455L16.3381 19.7874C16.1767 19.626 15.9274 19.5959 15.7255 19.7023C15.2962 19.9286 14.8439 20.117 14.3729 20.2631C14.155 20.3306 14.0001 20.5283 14.0001 20.7564V21.1208C14.0001 21.9493 13.3285 22.6208 12.5001 22.6208H11.5001C10.6716 22.6208 10.0001 21.9493 10.0001 21.1208V20.7564C10.0001 20.5283 9.84509 20.3307 9.62719 20.2631C9.15618 20.117 8.70379 19.9286 8.27449 19.7023C8.07264 19.5959 7.82327 19.626 7.66192 19.7874L7.40381 20.0455C6.81802 20.6313 5.86827 20.6313 5.28249 20.0455L4.57538 19.3384C3.98959 18.7526 3.98959 17.8028 4.57538 17.217L4.8335 16.9589C4.99485 16.7976 5.025 16.5482 4.91859 16.3464C4.69227 15.9171 4.50385 15.4647 4.35777 14.9937C4.29019 14.7758 4.09257 14.6208 3.86443 14.6208H3.5C2.67157 14.6208 2 13.9493 2 13.1208V12.1208C2 11.2924 2.67157 10.6208 3.5 10.6208H3.86443C4.09257 10.6208 4.29019 10.4659 4.35778 10.248C4.50385 9.77699 4.69227 9.32463 4.91859 8.89534C5.025 8.69349 4.99485 8.44412 4.8335 8.28277L4.57538 8.02466C3.98959 7.43887 3.98959 6.48912 4.57538 5.90333L5.28249 5.19623C5.86827 4.61044 6.81802 4.61044 7.40381 5.19623L7.66193 5.45435C7.82327 5.6157 8.07264 5.64585 8.27449 5.53944C8.70379 5.31311 9.15618 5.12469 9.62719 4.97861C9.84509 4.91102 10.0001 4.7134 10.0001 4.48526V4.12085Z" fill="black"/>
<path d="M15 12.6208C15 14.2777 13.6569 15.6208 12 15.6208C10.3431 15.6208 9 14.2777 9 12.6208C9 10.964 10.3431 9.62085 12 9.62085C13.6569 9.62085 15 10.964 15 12.6208Z" fill="white"/>
</svg>
