<svg width="16" height="16" viewBox="0 0 16 16" fill="none" xmlns="http://www.w3.org/2000/svg">
<rect width="16" height="16" rx="2" fill="#44515E"/>
<path d="M10.7924 5.79864C10.7798 5.60334 10.6903 5.42206 10.5436 5.29465C10.3968 5.16723 10.2047 5.10408 10.0096 5.11908L6.08206 5.4223C5.88671 5.43744 5.70431 5.52963 5.57499 5.67859C5.44566 5.82756 5.38001 6.0211 5.39246 6.21663C5.40492 6.41217 5.49446 6.59368 5.6414 6.72125C5.78834 6.84881 5.98063 6.91197 6.17598 6.89684L8.32562 6.73065L4.57705 11.0486C4.44777 11.1975 4.38214 11.391 4.39459 11.5864C4.40704 11.7819 4.49656 11.9634 4.64345 12.0909C4.79034 12.2184 4.98257 12.2815 5.17786 12.2664C5.37314 12.2513 5.55548 12.1591 5.68476 12.0102L9.43332 7.6923L9.57036 9.84365C9.57653 9.94047 9.60169 10.0349 9.6444 10.1214C9.68711 10.208 9.74654 10.2851 9.8193 10.3483C9.89206 10.4114 9.97671 10.4594 10.0684 10.4896C10.1602 10.5197 10.2572 10.5313 10.3539 10.5239C10.4506 10.5164 10.5452 10.4899 10.6322 10.4459C10.7192 10.4019 10.7969 10.3413 10.8609 10.2676C10.925 10.1938 10.9741 10.1083 11.0054 10.016C11.0367 9.92369 11.0496 9.82634 11.0435 9.72952L10.7924 5.79864Z" fill="white"/>
</svg>
