<svg width="16" height="16" viewBox="0 0 16 16" fill="none" xmlns="http://www.w3.org/2000/svg">
<g clip-path="url(#clip0_17_3308)">
<path d="M15.9215 8.53014L14.9785 7.04264L15.5379 5.37323C15.5748 5.26282 15.5724 5.14304 15.5311 5.0342C15.4898 4.92536 15.4121 4.83414 15.3113 4.77599L13.7853 3.89628L13.5047 2.15796C13.4858 2.04302 13.4279 1.93811 13.3407 1.86088C13.2535 1.78364 13.1424 1.73881 13.026 1.73393L11.266 1.66502L10.2099 0.255737C10.1402 0.162476 10.0402 0.0962851 9.92714 0.0684378C9.81405 0.0405904 9.6948 0.0528091 9.58972 0.103013L7.99977 0.859182L6.40921 0.102392C6.30396 0.0527294 6.18481 0.0408646 6.07184 0.0687969C5.95887 0.0967291 5.85898 0.162751 5.789 0.255737L4.73297 1.66502L2.97292 1.73393C2.85664 1.73858 2.74555 1.78327 2.65843 1.86042C2.57132 1.93758 2.51354 2.04247 2.49488 2.15734L2.21427 3.89566L0.688272 4.77537C0.587309 4.83342 0.509528 4.9246 0.468115 5.03345C0.426702 5.1423 0.424205 5.26213 0.461049 5.37261L1.02042 7.04202L0.0779977 8.53014C0.0158302 8.62864 -0.0104021 8.7456 0.00373895 8.86121C0.01788 8.97683 0.0715262 9.08401 0.155601 9.16463L1.42644 10.3833L1.28365 12.1378C1.27415 12.2539 1.30505 12.3697 1.37111 12.4656C1.43718 12.5616 1.53436 12.6317 1.64621 12.6642L3.33797 13.1516L4.02647 14.7726C4.07167 14.88 4.15279 14.9684 4.25595 15.0226C4.35911 15.0769 4.47792 15.0936 4.59204 15.07L6.31795 14.7161L7.68005 15.8317C7.77255 15.9068 7.88616 15.9459 7.99977 15.9459C8.11338 15.9459 8.22637 15.9068 8.3195 15.8317L9.6816 14.7161L11.4075 15.07C11.6416 15.1196 11.8793 14.9936 11.9731 14.7726L12.6616 13.1516L14.3533 12.6642C14.4652 12.6318 14.5625 12.5617 14.6286 12.4657C14.6947 12.3698 14.7255 12.2539 14.7159 12.1378L14.5731 10.3833L15.8439 9.16463C15.928 9.08401 15.9817 8.97683 15.9958 8.86121C16.0099 8.7456 15.9837 8.62864 15.9215 8.53014ZM11.6484 6.10208L8.11525 11.3953C7.98177 11.5927 7.77503 11.7249 7.56954 11.7249C7.36466 11.7249 7.13558 11.6101 6.98968 11.4636L4.39586 8.82814C4.31084 8.74095 4.26326 8.62399 4.26326 8.5022C4.26326 8.38042 4.31084 8.26346 4.39586 8.17627L5.03594 7.5244C5.07788 7.48222 5.12775 7.44875 5.18267 7.42591C5.23759 7.40307 5.29649 7.39131 5.35597 7.39131C5.41546 7.39131 5.47435 7.40307 5.52928 7.42591C5.5842 7.44875 5.63407 7.48222 5.67601 7.5244L7.36404 9.23913L10.1478 5.0684C10.1808 5.01867 10.2234 4.976 10.2731 4.94289C10.3227 4.90978 10.3785 4.8869 10.4371 4.87557C10.4957 4.86425 10.556 4.8647 10.6144 4.87692C10.6728 4.88913 10.7282 4.91286 10.7774 4.94672L11.5279 5.46263C11.7347 5.60542 11.7881 5.89286 11.6484 6.10208Z" fill="#00A652"/>
</g>
<defs>
<clipPath id="clip0_17_3308">
<rect width="16" height="16" fill="white"/>
</clipPath>
</defs>
</svg>
