<svg width="24" height="24" viewBox="0 0 24 24" fill="none" xmlns="http://www.w3.org/2000/svg">
<g clip-path="url(#clip0_34_1494)">
<path d="M15 6.5C14.7348 6.5 14.4804 6.39464 14.2929 6.20711C14.1054 6.01957 14 5.76522 14 5.5V4H10V5.5C10 5.76522 9.89464 6.01957 9.70711 6.20711C9.51957 6.39464 9.26522 6.5 9 6.5C8.73478 6.5 8.48043 6.39464 8.29289 6.20711C8.10536 6.01957 8 5.76522 8 5.5V4C8 2.897 8.897 2 10 2H14C15.103 2 16 2.897 16 4V5.5C16 5.76522 15.8946 6.01957 15.7071 6.20711C15.5196 6.39464 15.2652 6.5 15 6.5ZM12.71 15.38C12.2293 15.5452 11.7061 15.5381 11.23 15.36L0 11.62V19.25C0 20.77 1.23 22 2.75 22H21.25C22.77 22 24 20.77 24 19.25V11.62L12.71 15.38Z" fill="#00A652"/>
<path d="M24 7.75V10.04L12.24 13.96C12.16 13.99 12.08 14 12 14C11.92 14 11.84 13.99 11.76 13.96L0 10.04V7.75C0 6.23 1.23 5 2.75 5H21.25C22.77 5 24 6.23 24 7.75Z" fill="#00A652"/>
</g>
<defs>
<clipPath id="clip0_34_1494">
<rect width="24" height="24" fill="white"/>
</clipPath>
</defs>
</svg>