<svg width="158" height="146" viewBox="0 0 158 146" fill="none" xmlns="http://www.w3.org/2000/svg">
<g clip-path="url(#clip0_1_9622)">
<path d="M68.9198 75.9592C69.4578 76.0722 71.2687 76.7634 71.6521 76.9481C72.7458 77.4758 73.9091 77.8842 74.9555 78.509C75.72 78.966 76.5671 79.3111 77.3446 79.7511C77.9772 80.1044 78.5798 80.4991 79.1473 80.9321C80.1064 81.6708 81.0255 82.4624 81.9504 83.2423C82.1427 83.4037 82.4011 83.5705 82.2536 83.8111C82.4424 83.8966 82.6441 83.9377 82.7597 84.0496C83.0339 84.3266 83.2903 84.6173 83.5278 84.9203C83.864 85.334 84.2285 85.7371 84.5046 86.1867C84.8845 86.7999 85.203 87.4447 85.5263 88.0863C85.7245 88.481 85.9416 88.88 86.0477 89.2979C86.2129 89.9459 86.5197 90.5749 86.4548 91.264C86.4417 91.4151 86.4548 91.5671 86.4937 91.7147C86.7084 92.5042 86.7084 93.3282 86.4937 94.1177C86.4682 94.1991 86.4558 94.2833 86.4571 94.3678C86.5197 95.3504 86.1728 96.2675 85.8 97.1582C85.5782 97.6859 85.4307 98.2695 84.9741 98.7201C84.7606 98.9312 84.6969 99.2478 84.5223 99.4979C84.1825 99.9749 83.8144 100.44 83.4499 100.9C83.2559 101.144 83.0413 101.375 82.8081 101.59C82.355 102.001 81.9598 102.461 81.5103 102.87C80.8367 103.482 80.0769 104.021 79.3313 104.568C78.9868 104.819 78.5892 105.011 78.2164 105.232C77.4472 105.687 77.4507 105.746 78.2577 106.115C78.9585 106.432 79.6793 106.727 80.3494 107.092C80.9228 107.409 81.4112 107.831 81.9834 108.155C82.8423 108.644 83.4688 109.339 84.0988 110.018C84.5846 110.553 85.0036 111.134 85.3481 111.751C85.7077 112.377 86.0023 113.032 86.2282 113.707C86.6005 114.763 86.7914 115.863 86.7945 116.969C86.7839 117.965 86.7945 118.961 86.7686 119.956C86.7568 120.275 86.7173 120.592 86.6506 120.906C86.4147 122.054 86.2058 123.205 85.8248 124.324C85.7141 124.612 85.5857 124.894 85.4402 125.168C84.9568 126.184 84.3507 127.15 83.6327 128.048C83.1989 128.563 82.7208 129.046 82.2029 129.494C82.0117 129.666 81.8194 129.877 81.5268 129.945C81.0691 130.737 80.1335 131.029 79.4033 131.538C79.0812 131.765 78.6529 131.869 78.2943 132.061C78.0809 132.181 77.8582 132.287 77.6277 132.377C77.1251 132.566 76.606 132.732 76.12 132.938C75.3614 133.255 74.5662 133.456 73.7793 133.677C73.108 133.864 72.3954 133.936 71.7005 134.059C71.6253 134.06 71.5507 134.072 71.4799 134.095C70.9643 134.378 70.3886 134.293 69.8282 134.329C69.5522 134.347 69.2796 134.415 69.0024 134.458C68.7287 134.517 68.4502 134.556 68.1695 134.575C66.2488 134.588 64.3281 134.59 62.4074 134.59H37.2169C37.1886 134.333 37.1438 134.106 37.1414 133.878C37.1162 131.345 37.0958 128.813 37.0801 126.28C37.0588 122.281 37.0411 118.283 37.027 114.283C37.027 113.473 37.0565 112.659 36.9821 111.856C36.7957 109.834 36.9302 107.81 36.8925 105.787C36.8453 103.222 36.806 100.657 36.7745 98.0922C36.7627 97.2479 36.7533 96.4036 36.7745 95.5593C36.7981 94.2464 36.8488 92.9336 36.8724 91.6207C36.8724 91.4097 36.7792 91.1986 36.7639 90.9875C36.7284 90.7384 36.7331 90.4861 36.778 90.2382C36.9023 89.7634 36.9023 89.2693 36.778 88.7945C36.6919 88.4557 36.7132 88.0948 36.6837 87.7117C36.1598 87.5935 35.6419 87.4806 35.1275 87.3592C35.0037 87.3232 34.8823 87.2805 34.7642 87.2315L34.3064 87.0679C34.1377 87.0057 33.9678 86.9434 33.8003 86.878C33.733 86.8505 33.6705 86.7851 33.6056 86.7861C33.0913 86.7935 32.7515 86.44 32.3079 86.2944C32.2029 86.2595 32.0991 86.2215 31.9929 86.1888C31.7038 86.1065 31.7038 86.1076 31.6389 85.7667C31.4348 85.8606 31.2732 85.9091 31.0561 85.7213C30.7848 85.4881 30.3884 85.3751 30.0887 85.162C29.3903 84.6659 28.6966 84.1625 28.043 83.6211C27.669 83.3119 27.3752 82.9235 26.9682 82.4866C27.3316 82.4581 27.5994 82.418 27.866 82.418C28.6777 82.418 29.4882 82.4507 30.2987 82.4423C32.5403 82.4191 34.7819 82.3927 37.0317 82.3441C37.7042 82.3294 38.3743 82.2312 39.0456 82.1816C39.7169 82.132 40.361 82.0761 41.0181 82.0666C41.9199 82.059 42.8202 82.0012 43.7139 81.8935C44.4395 81.8038 45.1792 81.8028 45.913 81.7648C46.6079 81.7278 47.3016 81.6898 47.9965 81.6592C49.5031 81.5938 51.0097 81.5168 52.5162 81.4756C54.2859 81.4281 56.0555 81.292 57.8193 81.3869C59.7128 81.4925 61.6253 81.3489 63.4987 81.7373C63.8987 81.8196 64.3246 81.7933 64.7304 81.8629C65.5338 82.0001 66.3314 82.1658 67.1301 82.3273C67.7908 82.4602 68.4444 82.6186 69.1074 82.7346C69.3308 82.7592 69.5575 82.7397 69.7716 82.6776C69.8271 82.6556 69.8761 82.6224 69.915 82.5807C69.9538 82.539 69.9815 82.4898 69.9957 82.437C70.0099 82.3737 69.8778 82.2165 69.8164 82.2207C69.3127 82.2534 68.9906 81.7299 68.4573 81.8661C68.3889 81.884 67.5076 81.5379 67.4687 81.4777C67.2115 81.4154 66.9519 81.3595 66.6971 81.2899C66.2334 81.1622 65.7733 81.0239 65.3097 80.8983C65.0454 80.8255 64.7764 80.7632 64.5086 80.7041C64.3812 80.6756 64.2337 80.6936 64.1205 80.644C63.5554 80.3949 62.949 80.4234 62.3508 80.4012C62.2562 80.4046 62.1614 80.3972 62.0688 80.3791C61.2312 80.1363 60.3511 80.1976 59.4958 80.0857C58.9531 80.016 58.4163 79.9168 57.8771 79.8282C57.8063 79.8166 55.855 79.7121 54.9501 79.6403C54.6882 79.6192 54.4263 79.5928 54.1644 79.5781C53.4695 79.5401 52.7687 79.5401 52.0797 79.462C51.6078 79.4082 51.1536 79.2509 50.6899 79.1369C50.6201 79.113 50.5444 79.1058 50.4705 79.1158C49.4807 79.3818 48.5121 79.1739 47.5317 79.0472C46.9418 78.9702 46.3354 79.0018 45.7372 78.9712C44.6212 78.9142 43.4957 78.9586 42.3938 78.7296C42.1704 78.6997 41.9448 78.6852 41.7189 78.6863C41.234 78.6546 40.7492 78.6177 40.2643 78.5924C40.1144 78.5839 39.9634 78.6135 39.8124 78.6114C39.2131 78.605 38.6126 78.6114 38.0144 78.5786C37.4364 78.548 36.863 78.4626 36.2849 78.4288C35.5346 78.3866 34.7819 78.3876 34.0339 78.3359C33.8085 78.3201 33.5962 78.1808 33.372 78.1153C33.221 78.0569 33.0575 78.0287 32.893 78.033C31.6437 78.2008 30.4061 78.2209 29.1744 77.9127C28.9255 77.8504 28.6529 77.8663 28.3899 77.8536C27.866 77.8262 27.3139 77.8874 26.8231 77.7586C26.2877 77.6137 25.7308 77.5426 25.1714 77.5476C25.0018 77.5486 24.8345 77.5124 24.6842 77.442C24.3822 77.2911 24.0943 77.1645 23.7274 77.2489C23.5988 77.2784 23.4218 77.1602 23.2744 77.0969C23.1269 77.0336 22.9594 76.8637 22.8508 76.8922C22.2609 77.0536 21.8268 76.5123 21.2593 76.641C20.9537 76.2949 20.365 76.5608 20.0571 76.1956C20.0064 76.1355 19.8436 76.1577 19.7386 76.127C19.6024 76.0869 19.4692 76.039 19.3398 75.9835C19.2479 75.9306 19.153 75.882 19.0555 75.8379C18.6756 75.7218 18.2414 75.6828 17.917 75.4928C17.1997 75.0706 16.3833 74.8395 15.6353 74.4775C14.3765 73.8696 13.1578 73.2174 12.0818 72.3869C11.7421 72.1251 11.3445 71.9415 11.0259 71.6756C10.37 71.1299 9.74825 70.5495 9.13831 69.9648C8.6664 69.5184 8.18033 69.0752 7.79219 68.5728C7.2023 67.8161 6.56286 67.0953 6.11809 66.251C5.78893 65.6315 5.41022 65.031 5.11882 64.3978C4.78376 63.6644 4.32601 62.9752 4.15848 62.1816C4.08062 61.8101 3.85882 61.465 3.73966 61.0988C3.59101 60.6344 3.48011 60.1606 3.3291 59.6023C3.94376 60.0635 4.4664 60.4856 5.02208 60.8687C5.95764 61.5135 6.90145 62.1489 7.86651 62.7578C8.59443 63.2169 9.3542 63.6369 10.1081 64.057C10.5605 64.3205 11.0336 64.5543 11.5238 64.7567C11.7786 64.8559 11.6843 65.0944 11.8188 65.1609C11.9532 65.2273 12.201 65.125 12.3591 65.183C12.9867 65.4141 13.5979 65.6801 14.2161 65.9313C14.8708 66.1983 15.5197 66.4758 16.1839 66.7228C16.5744 66.8674 16.9885 66.9634 17.3932 67.0784C17.4651 67.0985 17.5548 67.0869 17.6114 67.1217C17.9146 67.3127 18.265 67.3476 18.6131 67.4225C19.1357 67.5365 19.6289 67.8024 20.1539 67.8562C20.7756 67.9196 21.3147 68.2509 21.9495 68.2246C22.0545 68.2246 22.1595 68.2921 22.2692 68.3132C22.6514 68.3871 23.036 68.4536 23.4206 68.5243C23.4572 68.5317 23.5032 68.5179 23.5315 68.5327C24.3255 68.9401 25.2941 68.6731 26.0917 69.0678C26.1611 69.0945 26.2369 69.1054 26.3123 69.0994C26.9726 69.1053 27.6287 69.1945 28.2613 69.3643C28.7261 69.4762 29.2346 69.4393 29.7183 69.4994C30.7577 69.6282 31.7947 69.777 32.8329 69.9152C32.9509 69.93 33.0582 69.9342 33.1703 69.9427C33.5643 69.9712 33.9607 69.9881 34.3501 70.0282C35.2845 70.1242 36.2177 70.2234 37.1485 70.3363C38.4132 70.4883 39.6767 70.6529 40.9415 70.8144C40.9972 70.8228 41.0536 70.8271 41.1102 70.8271C41.8062 70.8224 42.5002 70.8933 43.1771 71.0381C43.7446 71.1437 44.3463 71.1057 44.9138 71.2133C45.637 71.3495 46.3838 71.3189 47.0893 71.4497C47.9965 71.6186 48.9274 71.5932 49.8169 71.8043C50.3265 71.9178 50.8502 71.9731 51.3754 71.969C51.6391 71.9649 51.9005 72.0144 52.1399 72.1135C52.4643 72.2613 52.7899 72.2655 53.1297 72.2592C53.5817 72.2368 54.0331 72.3113 54.4463 72.4766C54.4628 72.484 54.4805 72.4998 54.4959 72.4987C55.2792 72.4534 55.9859 72.7879 56.7481 72.8544C57.0418 72.8928 57.3323 72.9489 57.6176 73.0222C57.6895 73.037 57.7532 73.0961 57.824 73.0992C58.388 73.1298 58.9283 73.3209 59.4757 73.3599C60.0656 73.4021 60.5434 73.647 61.0861 73.7514C61.2041 73.7726 61.3162 73.7799 61.4318 73.7937C61.5194 73.7962 61.6065 73.8075 61.6913 73.8274C61.7774 73.857 61.8589 73.9604 61.9273 73.952C62.5172 73.8749 62.9891 74.2549 63.5495 74.2823C63.7157 74.3068 63.8781 74.349 64.0332 74.4079C64.2432 74.4649 64.4544 74.5197 64.6644 74.5778C64.8236 74.6221 64.9841 74.6643 65.1363 74.7171C65.2413 74.753 65.3333 74.8226 65.4383 74.8501C65.9173 74.9809 66.4045 75.0896 66.88 75.2321C67.425 75.3946 67.9618 75.5783 68.4974 75.7661C68.6462 75.8155 68.788 75.8803 68.9198 75.9592ZM48.9545 125.295C49.4995 125.578 49.9974 125.478 50.4882 125.479C55.2073 125.486 59.9264 125.486 64.6384 125.506C65.6916 125.51 66.743 125.427 67.779 125.257C68.7959 125.091 69.7539 124.754 70.6871 124.344C71.6725 123.902 72.5109 123.236 73.1186 122.413C73.9566 121.307 74.4158 120.006 74.44 118.671C74.4506 118.354 74.4683 118.029 74.46 117.709C74.4459 117.154 74.5308 116.567 74.3562 116.053C74.1816 115.539 74.178 114.966 73.7923 114.502C73.4737 114.117 73.226 113.684 72.9145 113.292C72.4874 112.756 71.8385 112.448 71.2345 112.113C70.8641 111.901 70.4712 111.681 70.0547 111.599C69.5156 111.493 69.0626 111.096 68.4573 111.227C68.3806 111.232 68.3044 111.212 68.2438 111.169C67.9311 110.969 67.5737 110.98 67.215 110.975C66.9519 110.975 66.6664 111.014 66.4281 110.939C65.8217 110.747 65.2106 110.78 64.5877 110.781C60.2095 110.781 55.8326 110.781 51.4556 110.771C50.8138 110.771 50.1724 110.775 49.5314 110.782C49.0819 110.782 48.9769 110.887 48.971 111.293C48.971 111.609 48.9604 111.933 48.9604 112.254C48.9604 116.44 48.9604 120.626 48.9604 124.813L48.9545 125.295ZM72.5358 92.8471C72.3081 92.636 72.1418 92.4872 71.9837 92.331C71.8598 92.2086 71.7678 92.0492 71.6227 91.9542C71.0705 91.5922 70.5325 91.1975 69.9297 90.9168C69.5498 90.7395 69.1675 90.4947 68.6862 90.4947C68.5517 90.4947 68.4184 90.3817 68.278 90.3385C68.1138 90.2725 67.9383 90.2322 67.7589 90.2192C67.4206 90.2243 67.0852 90.1631 66.7761 90.0398C66.4701 89.9189 66.1426 89.8474 65.8087 89.8287C65.2719 89.815 64.7328 89.8921 64.1936 89.8952C63.704 89.8952 63.2144 89.833 62.7248 89.8319C58.8575 89.8228 54.9894 89.8178 51.1205 89.8171C50.5979 89.8171 50.0753 89.8171 49.5526 89.7929C49.1232 89.777 49.0276 89.8235 48.997 90.215C48.9651 90.6371 48.9568 91.0593 48.958 91.4814C48.9667 94.7045 48.9777 97.9279 48.9911 101.152C48.9911 101.444 48.9911 101.737 48.9911 102.019C49.4825 101.854 50.0202 101.835 50.5248 101.964C50.8813 102.052 51.2497 102.096 51.6196 102.093C54.9784 102.093 58.3372 102.105 61.696 102.093C62.4169 102.093 63.1601 102.237 63.8597 101.936C63.9331 101.919 64.0094 101.917 64.0839 101.928C64.6502 101.928 65.2165 101.928 65.7816 101.928C65.9506 101.943 66.1212 101.933 66.2865 101.899C67.1678 101.614 68.1105 101.548 68.9847 101.217C70.4559 100.661 71.6639 99.8799 72.373 98.5586C72.8614 97.65 73.1682 96.7107 73.128 95.6923C73.1033 95.0749 73.2212 94.448 72.8319 93.8707C72.6821 93.6481 72.6207 93.3747 72.5405 93.1193C72.5225 93.0294 72.5209 92.9374 72.5358 92.8471Z" fill="white"/>
<path d="M8.50236 38.9543C8.38438 38.7875 8.27466 38.6092 8.16376 38.4361C7.5675 37.5232 7.0508 36.5706 6.61826 35.5866C6.41298 35.1075 6.25489 34.6073 6.05669 34.1281C5.63669 33.1118 5.5659 32.029 5.20607 31.0064C5.16578 30.8587 5.15145 30.7063 5.1636 30.5547C5.16243 30.0509 5.11587 29.548 5.02438 29.0508C4.93362 28.4147 4.93719 27.7706 5.035 27.1353C5.10697 26.5866 5.24029 26.0473 5.17776 25.489C5.18623 25.3893 5.21334 25.2915 5.25798 25.1998C5.30753 25.0373 5.3677 24.8832 5.40781 24.7133C5.53995 24.1592 5.665 23.602 5.79478 23.0469C5.8632 22.7546 6.08146 22.5192 6.14871 22.2089C6.24191 21.7435 6.50264 21.3024 6.715 20.8581C6.94506 20.3716 7.18691 19.8872 7.44764 19.4165C7.67298 19.0186 7.94551 18.6418 8.22157 18.2165C8.33955 18.3126 8.45753 18.3632 8.48348 18.4403C8.79809 19.2627 9.10326 20.0877 9.39899 20.9151C9.655 21.6243 9.89449 22.3377 10.154 23.0448C10.2236 23.2348 10.3605 23.4047 10.436 23.5925C10.6849 24.2046 10.8879 24.8315 11.1675 25.4309C11.4553 26.0483 11.8128 26.6383 12.1396 27.2409C12.2883 27.5132 12.4511 27.7802 12.5785 28.0609C12.6304 28.1759 12.6033 28.3184 12.6162 28.5115C12.9702 28.5949 13.1389 28.9432 13.3465 29.2503C13.5825 29.5933 13.7618 29.969 14.0048 30.3056C14.4177 30.8808 14.8637 31.4359 15.2931 32.0016C15.4925 32.2633 15.6789 32.5293 15.883 32.7921C16.001 32.9387 16.1473 33.0654 16.2723 33.2079C16.7938 33.7989 17.2893 34.411 17.8367 34.9819C18.5532 35.727 19.2926 36.4545 20.0547 37.1644C21.054 38.0942 22.0674 39.0123 23.1091 39.9083C23.6872 40.4022 24.3349 40.8286 24.9484 41.2898C25.1454 41.4386 25.3248 41.6064 25.523 41.7562C26.1459 42.2248 26.7546 42.7113 27.4106 43.1493C28.5479 43.9166 29.6935 44.6754 30.8697 45.394C32.0648 46.1244 33.2988 46.8029 34.5187 47.5048C35.1534 47.8667 35.7787 48.2435 36.4394 48.5664C37.1296 48.9031 37.8551 49.1743 38.563 49.4814C38.8096 49.587 39.0432 49.7189 39.285 49.835C39.8065 50.083 40.3256 50.3342 40.8541 50.5737C40.9532 50.6181 41.0901 50.5906 41.2812 50.503C41.1888 50.3771 41.0816 50.2603 40.9615 50.1548C40.1439 49.5806 39.3098 49.0245 38.4946 48.4493C37.7773 47.9438 37.0788 47.4161 36.3651 46.9074C35.2413 46.092 34.1729 45.2173 33.1655 44.288C32.394 43.5883 31.6153 42.8929 30.8614 42.1773C30.3765 41.7161 29.9176 41.2275 29.4681 40.741C28.7603 39.9695 28.0642 39.1886 27.374 38.4034C27.1687 38.1701 27.0024 37.9095 26.7841 37.6224L26.9222 37.2889L26.4503 37.2604C26.1282 36.8383 25.7919 36.4383 25.4982 36.0109C25.3637 35.8146 25.3153 35.5719 25.2209 35.3323C25.0381 35.1571 24.7856 34.9798 24.631 34.7508C24.1591 34.0669 23.7073 33.3714 23.2861 32.6622C22.7658 31.7874 22.2491 30.9072 21.7972 30.0027C21.3454 29.0983 20.9714 28.1791 20.5844 27.2588C20.2859 26.557 19.9945 25.852 19.7373 25.1376C19.5663 24.6637 19.4625 24.1709 19.3244 23.6875C19.2973 23.5915 19.2501 23.4986 19.2206 23.4026C19.1439 23.1461 19.0708 22.8897 18.9988 22.6321C18.9858 22.5825 18.9988 22.5266 18.9752 22.4823C18.6661 21.9884 18.7204 21.409 18.5033 20.8908C18.4292 20.6998 18.3774 20.5025 18.3487 20.3019C18.2803 19.8872 18.2685 19.4629 18.1647 19.0577C17.9677 18.2894 18.029 17.5126 18.0137 16.7359C17.9913 15.69 18.0137 14.6431 18.0503 13.5972C18.0669 13.2608 18.1271 12.9272 18.2296 12.6031C18.39 12.0754 18.3405 11.5129 18.6272 10.9884C18.8631 10.5663 18.8572 10.0386 19.0189 9.58267C19.151 9.20591 19.3728 8.85342 19.5498 8.48827C19.6002 8.38231 19.6397 8.27245 19.6677 8.16006C19.8022 7.63238 20.2989 6.8778 20.7189 6.58652C20.6906 6.44088 20.6363 6.31846 20.8216 6.16438C21.0316 5.99236 21.1307 5.71269 21.2687 5.49317H21.7772C21.5495 5.01087 21.7996 4.70904 22.1476 4.40193C22.5452 4.05261 22.8814 3.64735 23.2531 3.2727C23.3334 3.21457 23.4223 3.16663 23.5173 3.13023C23.5728 3.09963 23.6742 3.06163 23.6719 3.03314C23.6271 2.54873 24.1119 2.38621 24.4069 2.16247C25.2268 1.51638 26.103 0.929848 27.0272 0.40847C27.1817 0.325097 27.361 0.278662 27.5191 0.197399C27.6293 0.133444 27.7345 0.0629274 27.8341 -0.0136719C27.8738 0.0525143 27.902 0.123673 27.9179 0.197399C27.9934 1.69178 28.1067 3.18616 28.1173 4.6816C28.1232 5.56388 28.3462 6.41661 28.3886 7.28939C28.3969 7.45719 28.4511 7.62499 28.4452 7.79068C28.4301 8.44436 28.53 9.09609 28.7414 9.72198C28.7933 9.88029 28.7709 10.0565 28.8015 10.2233C28.8452 10.4692 28.903 10.713 28.9608 10.962C28.996 11.0401 29.0225 11.121 29.0399 11.2037C29.0328 11.8644 29.3938 12.4585 29.4563 13.1033C29.4782 13.218 29.515 13.3299 29.566 13.4368C29.6403 13.5918 29.701 13.7516 29.7477 13.9149C29.8748 14.5362 30.0697 15.1449 30.3294 15.7322C30.6208 16.434 30.8131 17.1696 31.0809 17.8799C31.2649 18.3675 31.5079 18.8371 31.7203 19.3162C32.1002 20.1732 32.4671 21.0354 32.8588 21.8881C33.116 22.4475 33.4015 22.9962 33.6846 23.5461C34.0669 24.2848 34.4503 25.032 34.8502 25.7687C35.026 26.0927 35.2525 26.3945 35.4401 26.7185C35.4897 26.804 35.4602 26.9296 35.4684 27.0583C35.9404 27.2936 36.1032 27.7865 36.3438 28.2002C36.8338 29.0685 37.3729 29.9138 37.9589 30.7331C38.3589 31.2766 38.6668 31.8718 39.0538 32.4216C39.357 32.8585 39.7156 33.2659 40.0354 33.688C40.2949 34.0353 40.5332 34.3941 40.781 34.7487C40.8989 34.9175 41.0087 35.0917 41.1349 35.2542C41.4475 35.6468 41.8121 36.013 42.0787 36.4288C42.5058 37.1 43.065 37.6773 43.5806 38.2873C44.1528 38.9648 44.6742 39.6761 45.2452 40.3547C45.7006 40.8972 46.2008 41.4101 46.6739 41.9378C47.4895 42.8524 48.3016 43.767 49.1102 44.6817C49.1456 44.7218 49.1798 44.7619 49.2175 44.7999C49.7366 45.3276 50.2534 45.8552 50.7795 46.3713C51.3329 46.919 51.898 47.4573 52.4525 48.0018C52.7238 48.2688 52.9987 48.5295 53.1438 48.8841C53.1934 49.0044 53.3585 49.0878 53.473 49.187C53.952 49.6018 54.4404 50.0091 54.9099 50.4323C55.7452 51.1816 56.5793 51.932 57.3969 52.6971C58.4339 53.667 59.57 54.5493 60.5953 55.5265C61.5049 56.3951 62.5702 57.0979 63.527 57.9116C63.9435 58.2662 64.3528 58.6261 64.787 58.967C65.7721 59.7321 66.7572 60.4983 67.7659 61.2381C69.2343 62.3272 70.7114 63.3963 72.1972 64.4453C72.8826 64.9287 73.6129 65.3582 74.2971 65.8468C74.7938 66.2036 75.2705 66.5856 75.8049 66.9022C76.0409 67.0415 76.3334 67.1798 76.2509 67.547C77.0083 67.471 77.3917 67.9818 77.8789 68.2858C78.8369 68.8905 79.7501 69.5522 80.6785 70.197C81.4607 70.7384 82.2335 71.2904 83.0169 71.8318C83.4522 72.1325 83.9064 72.4143 84.3417 72.7162C85.1522 73.2776 85.9628 73.838 86.7567 74.4184C87.0311 74.6433 87.2914 74.8815 87.5366 75.1319C87.5842 75.1777 87.6372 75.2187 87.6947 75.2543C87.9695 75.4179 88.2586 75.5635 88.5205 75.7408C89.0974 76.1334 89.6602 76.545 90.2359 76.9386C90.2937 76.9777 90.4718 76.9766 90.4836 76.9513C90.5226 76.8721 90.5568 76.7402 90.5108 76.6843C90.2099 76.3001 89.8867 75.9297 89.567 75.554C88.3895 74.1306 87.0698 72.806 85.6241 71.5964C85.3484 71.3716 85.0594 71.1602 84.7582 70.9632C84.6119 70.8661 84.3878 70.8397 84.4668 70.6012C84.4087 70.5865 84.3522 70.5671 84.2981 70.5432C84.0362 70.3743 83.779 70.2002 83.5194 70.0271L83.5548 69.9216H84.0975C86.0229 69.9353 87.9471 69.9585 89.8713 69.9596C91.5112 69.9596 93.1511 69.9469 94.791 69.9131C95.4458 69.8994 96.0982 69.8013 96.753 69.7633C97.5989 69.7137 98.4471 69.6925 99.2942 69.6472C99.667 69.6271 100.039 69.5786 100.41 69.5416C100.446 69.5321 100.482 69.5244 100.519 69.5184C101.263 69.548 102.009 69.6092 102.753 69.6007C103.498 69.5923 104.169 69.7622 104.852 69.9406C106.068 70.2572 107.174 70.7722 108.023 71.6713C108.547 72.2354 108.947 72.8822 109.203 73.5784C109.286 73.7894 109.297 74.0279 109.353 74.3171C108.771 74.3013 108.371 74.7931 107.776 74.5039C107.559 74.7994 107.225 74.8585 106.877 74.9546C106.335 75.1044 105.748 75.1804 105.253 75.496C105.379 75.7608 105.607 75.687 105.796 75.688C107.004 75.6944 108.212 75.7123 109.419 75.6817C110.222 75.6616 111 75.7324 111.738 76.0068C112.352 76.2347 112.905 76.565 113.264 77.0779C113.623 77.5908 113.651 78.1808 113.457 78.795C113.233 78.6504 112.996 78.5216 112.75 78.4098C112.235 78.2177 111.718 78.0098 111.179 77.9022C110.615 77.7903 110.024 77.7565 109.459 77.9644C109.071 78.1069 108.682 78.203 108.252 78.0921C108.134 78.0605 107.97 78.1143 107.842 78.1586C107.669 78.2198 107.509 78.3771 107.345 78.3697C106.803 78.3634 106.346 78.623 105.831 78.7032C105.492 78.7559 105.168 78.9143 104.849 79.0409C103.957 79.3992 103.093 79.8092 102.261 80.2683C100.922 81.007 99.8404 81.9896 98.8093 83.0386C98.1797 83.6974 97.6148 84.4036 97.1211 85.1493C96.6149 85.888 96.0876 86.611 95.5685 87.3402C95.5094 87.4267 95.444 87.5095 95.3726 87.5882C95.0541 87.9238 94.7178 88.2341 94.4937 88.6436C94.2802 89.0404 93.9038 89.3676 93.6065 89.7274C93.0378 90.4081 92.4739 91.092 91.9029 91.7706C91.7118 91.9986 91.5266 92.2286 91.1809 92.2983C91.0936 92.3162 91.0322 92.4355 90.9449 92.5199C90.5981 92.3774 90.6099 92.084 90.5532 91.835C90.3329 90.7997 90.0305 89.7798 89.6484 88.7829C89.2921 87.9089 88.8581 87.0619 88.3506 86.25C87.9436 85.5852 87.4493 84.9562 86.9892 84.3166C86.2966 83.351 85.3292 82.6281 84.5116 81.7838C83.5772 80.8139 82.434 80.0604 81.3262 79.2731C80.7364 78.8509 80.0934 78.489 79.4823 78.09C79.4114 78.0228 79.3578 77.9424 79.3253 77.8547C79.3074 77.8116 79.2944 77.7671 79.2864 77.7217C78.9242 77.8367 78.8523 77.4114 78.4924 77.3988C78.1892 77.3872 77.9025 77.0938 77.5993 76.9365C77.2961 76.7793 76.9835 76.6368 76.6756 76.488C76.6045 76.465 76.5377 76.4326 76.4774 76.3919C76.0055 75.9698 75.3306 75.8273 74.8033 75.496C74.0636 75.0316 73.1823 74.8459 72.4343 74.4079C72.1476 74.2411 71.7783 74.1894 71.4504 74.0765C71.2757 74.0153 71.0174 73.99 71.2014 73.6765C70.8369 73.6829 70.3673 73.9836 70.2364 73.38C69.6996 73.6069 69.3032 73.2438 68.8549 73.1256C68.1611 72.9441 67.5217 72.561 66.8209 72.4481C66.2487 72.3563 65.7874 71.9552 65.1692 72.0418C65.0772 72.0544 64.971 71.9573 64.866 71.9236C64.6938 71.8676 64.518 71.818 64.3422 71.7727C64.1299 71.7167 63.9151 71.6671 63.704 71.6144C63.6686 71.6049 63.6426 71.57 63.6072 71.5616C63.0515 71.4318 62.4971 71.302 61.939 71.1774C61.67 71.1183 61.3951 71.0719 61.125 71.0191C60.9799 70.9885 60.8383 70.9136 60.6967 70.9136C60.3121 70.922 59.9417 70.9136 59.6349 70.673C59.6194 70.6676 59.6023 70.6673 59.5866 70.6719C58.7961 70.7912 58.1154 70.311 57.3367 70.3448C57.089 70.3553 56.8353 70.2751 56.5427 70.2297L56.689 70.006C56.6572 69.9933 56.6241 69.9691 56.5947 69.9712C56.4637 69.9807 56.3339 70.0039 56.203 70.0123C55.9788 70.0282 55.7169 70.1105 55.5364 70.0366C54.7105 69.6957 53.7325 69.91 52.9409 69.4562C52.85 69.4044 52.6943 69.4456 52.5693 69.4372C52.2533 69.4273 51.9383 69.4019 51.6254 69.3612C51.4921 69.339 51.38 69.2176 51.2102 69.1121C50.6963 69.2157 50.1596 69.1789 49.6694 69.0066C49.5082 68.9635 49.3426 68.9349 49.1751 68.9211C48.8412 68.8725 48.5073 68.8282 48.1722 68.7828C47.7841 68.7301 47.3948 68.6773 47.0066 68.6245C46.8769 68.6066 46.7471 68.5855 46.6173 68.5644C45.9153 68.4504 45.2134 68.3417 44.5138 68.2214C44.0206 68.137 43.5275 68.0462 43.039 67.9396C42.8692 67.9027 42.5884 67.9776 42.6002 67.681C42.3642 67.6747 42.1082 67.6135 41.8923 67.6737C41.4794 67.7876 41.1101 67.6304 40.7279 67.585C40.5969 67.5692 40.4919 67.3982 40.3397 67.2684C39.9929 67.4911 39.6142 67.414 39.226 67.336C38.8992 67.2684 38.5618 67.2431 38.2291 67.1945C38.0996 67.1754 37.9715 67.149 37.8457 67.1154C37.7058 67.0663 37.5633 67.0237 37.4186 66.9877C36.6293 66.8547 35.8365 66.7312 35.0461 66.6056C35.0272 66.6056 35.0072 66.6056 34.9895 66.6056C34.1778 66.3798 33.2965 66.4051 32.5119 66.0569C32.322 65.9724 32.0589 65.9081 31.8701 65.9587C31.5799 66.0379 31.3628 65.9587 31.1151 65.8743C30.8947 65.7854 30.658 65.7335 30.4167 65.7213C30.077 65.7292 29.7412 65.6564 29.4433 65.5102C29.3254 65.4542 29.1838 65.3846 29.0717 65.4046C28.6493 65.4838 28.306 65.2991 27.9415 65.1809C27.6843 65.0944 27.4401 64.9498 27.1357 65.0754C27.0661 65.1039 26.9375 64.9994 26.8313 64.9783C26.2945 64.8723 25.7644 64.7405 25.2433 64.5836C24.9661 64.4981 24.6334 64.5456 24.355 64.3725C24.2453 64.3018 24.0671 64.3208 23.922 64.2891C23.7439 64.249 23.5681 64.2026 23.3935 64.1519C23.2189 64.1013 23.0832 64.0464 22.9215 64.0021C22.7469 63.9483 22.5676 63.8965 22.3977 63.8469C22.2278 63.7973 22.0816 63.7108 21.9258 63.7055C21.6804 63.7106 21.4414 63.6356 21.2534 63.4945C21.2107 63.4612 21.1608 63.4362 21.1067 63.4212C21.0527 63.4061 20.9958 63.4012 20.9395 63.4069C20.634 63.4807 20.4428 63.3288 20.2317 63.1852C20.1517 63.1208 20.0466 63.0871 19.9391 63.0913C19.7031 63.1546 19.6005 63.0238 19.4672 62.9035C19.3693 62.818 19.2029 62.705 19.1062 62.7293C18.8372 62.7958 18.6413 62.7019 18.4148 62.6122C17.353 62.1974 16.2664 61.8386 15.2294 61.3806C14.6778 61.1527 14.1448 60.8903 13.6344 60.5954C13.0445 60.2366 12.372 59.9959 11.7338 59.7036C11.6842 59.6804 11.604 59.6635 11.5922 59.6297C11.486 59.3057 11.1203 59.3205 10.8843 59.1802C10.541 58.9828 10.2201 58.758 9.88977 58.5406L9.62432 58.3718C9.27865 58.1491 8.92472 57.937 8.58966 57.7027C8.19916 57.4293 7.81219 57.1497 7.44764 56.8499C6.85775 56.3634 6.26787 55.8737 5.70747 55.3566C5.31238 54.9812 4.94359 54.5844 4.60321 54.1683C4.45338 53.9899 4.38613 53.7577 4.24928 53.4876C3.87175 53.4517 3.68062 53.0855 3.48478 52.79C3.03175 52.1029 2.63062 51.3853 2.25192 50.6624C1.87321 49.9395 1.55113 49.2292 1.23378 48.501C1.10754 48.2097 1.06978 47.8868 0.976582 47.5818C0.818492 47.0689 0.646246 46.5592 0.486976 46.0473C0.421912 45.8538 0.373015 45.6563 0.340686 45.4563C0.230967 44.6564 0.121248 43.8543 0.0386638 43.0512C-0.00262824 42.6491 0.0103481 42.2428 0.00798857 41.8375C0.00798857 41.1156 0.00798857 40.3948 0.00798857 39.673C0.00798857 38.8625 0.00798857 38.0519 0.00798857 37.2457C0.0180121 37.1861 0.038727 37.1283 0.0693355 37.0747C0.335964 37.0504 0.367818 37.2298 0.430346 37.3565C0.653323 37.8187 0.853887 38.2894 1.08158 38.7495C1.20229 38.9731 1.33619 39.1908 1.48271 39.4017C2.01832 40.2291 2.53035 41.0703 3.10254 41.8787C4.1077 43.3002 5.35708 44.5466 6.68905 45.7275C7.31079 46.2784 7.91011 46.8547 8.57669 47.357C9.41196 47.9902 10.2944 48.5643 11.1828 49.1321C11.9792 49.6408 12.7967 50.1273 13.6332 50.5811C14.2679 50.9252 14.9463 51.2038 15.607 51.5077C16.5213 51.9299 17.4297 52.352 18.3546 52.7583C18.994 53.0561 19.6527 53.3194 20.3272 53.5467C20.9867 53.7514 21.6085 54.0501 22.2562 54.2854C22.6667 54.4374 23.1327 54.4965 23.5008 54.7076C23.8984 54.9292 24.4293 54.8511 24.7502 55.2057C24.7868 55.2447 24.8906 55.2426 24.9637 55.2479C25.0569 55.2368 25.1513 55.2368 25.2445 55.2479C25.6917 55.3967 26.1329 55.5645 26.5777 55.7154C26.6901 55.7712 26.8134 55.8071 26.941 55.821C27.3197 55.8083 27.5769 55.9634 27.7539 56.2695C28.0689 56.1407 28.3544 56.1165 28.6033 56.3402C28.6457 56.3744 28.6997 56.3949 28.7567 56.3982C29.6817 56.4426 30.4945 56.8658 31.3923 57.0125C31.9704 57.1074 32.5167 57.3502 33.0865 57.4979C33.6233 57.6372 34.1742 57.7364 34.7169 57.8589C35.1334 57.9538 35.5428 58.0562 35.9616 58.1586C36.6317 58.3222 37.2912 58.5438 37.9672 58.6356C38.5642 58.7158 39.0986 58.9596 39.705 59.0229C40.3114 59.0862 40.873 59.3395 41.4582 59.5031C41.5804 59.5435 41.709 59.5666 41.8392 59.5717C42.1483 59.5717 42.4433 59.5812 42.678 59.7944C42.704 59.8198 42.7399 59.8353 42.7783 59.8376C43.4237 59.7574 43.9581 60.1701 44.5798 60.1743C44.7463 60.1932 44.9093 60.2316 45.0647 60.2883C45.224 60.3284 45.3821 60.4075 45.5366 60.4065C45.821 60.392 46.1022 60.4667 46.3318 60.6176C46.3471 60.6271 46.3625 60.6461 46.3778 60.6461C46.983 60.6461 47.5175 60.9173 48.0967 61.0123C48.2619 61.0397 48.4507 61.0123 48.5934 61.0766C48.9645 61.2458 49.3785 61.3251 49.7944 61.3067C49.9124 61.3067 50.0304 61.3954 50.1484 61.4355C50.3031 61.4945 50.4634 61.5411 50.6274 61.5748C50.9813 61.6307 51.3352 61.6729 51.6892 61.7046C51.8054 61.6949 51.9195 61.67 52.0277 61.6307C51.7068 61.0777 50.8244 61.2909 50.6427 60.6883C50.1708 60.8339 49.8452 60.5595 49.4983 60.4149C48.8813 60.1574 48.2631 59.9073 47.6272 59.6867C47.2921 59.5696 46.9913 59.3849 46.6185 59.3311C46.5099 59.3152 46.4285 59.1443 46.3271 59.0356C46.2268 59.0535 46.0416 59.1337 45.9873 59.0883C45.723 58.8667 45.3302 58.8984 45.0836 58.7295C44.7698 58.5185 44.2908 58.5913 44.082 58.2293C44.0655 58.1997 43.977 58.1871 43.9262 58.1924C43.4449 58.2409 43.0921 57.9686 42.6922 57.8082C42.3123 57.6562 41.9242 57.518 41.5372 57.3797C41.2128 57.2636 40.8824 57.1613 40.558 57.0431C40.2996 56.9481 40.0448 56.8436 39.7935 56.7349C38.5901 56.2146 37.3348 55.8041 36.102 55.3461C35.761 55.2194 35.4708 55.0189 35.0992 54.9176C34.4479 54.7392 33.8333 54.4532 33.2115 54.1999C32.8281 54.0448 32.4588 53.8633 32.0778 53.7018C31.9744 53.6667 31.8667 53.6429 31.7569 53.6311C31.666 53.6142 31.5563 53.6311 31.4843 53.5899C30.7965 53.2037 30.0379 52.9652 29.2829 52.7129C28.929 52.5958 28.6187 52.2834 28.2754 52.2644C27.8471 52.2423 27.61 51.932 27.2065 51.8887C26.8785 51.8539 26.5753 51.6386 26.2627 51.5098C25.8438 51.3399 25.418 51.1837 25.0027 51.0085C24.5308 50.8101 24.0589 50.6075 23.6058 50.3869C22.8732 50.0334 22.1405 49.6809 21.4291 49.2968C20.6399 48.8693 19.8659 48.4155 19.1003 47.9543C18.5328 47.6135 18.0172 47.1987 17.4297 46.8927C16.303 46.3048 15.3262 45.5481 14.3623 44.7819C13.7524 44.2996 13.0811 43.8786 12.5218 43.3456C12.1526 42.9942 11.7845 42.6406 11.4258 42.2797C10.8088 41.657 10.2001 41.028 9.58775 40.4022C9.3164 40.074 8.86455 39.444 8.50236 38.9543Z" fill="white"/>
<path d="M155.64 129.038L154.963 128.948C155.03 129.143 155.065 129.245 155.114 129.389C154.722 129.336 154.517 129.901 154.039 129.543C153.734 130.086 153.191 130.046 152.697 129.991C152.251 129.941 151.858 130.097 151.436 130.124C151.18 130.139 150.928 130.252 150.675 130.253C147.637 130.263 144.6 130.259 141.563 130.253C141.436 130.247 141.309 130.235 141.183 130.216C141.05 129.825 141.039 112.17 141.174 111.684C141.294 111.664 141.416 111.65 141.539 111.644C144.915 111.638 148.292 111.617 151.667 111.644C152.916 111.652 154.127 111.895 155.193 112.528C155.515 112.72 155.86 112.916 156.092 113.182C156.286 113.402 156.486 113.619 156.682 113.838C156.878 114.058 157.01 114.366 157.154 114.639C157.216 114.744 157.256 114.857 157.272 114.975C157.363 116.151 157.467 117.332 156.828 118.432C156.719 118.583 156.589 118.721 156.441 118.844C156.354 118.928 156.22 118.987 156.169 119.083C155.959 119.488 155.546 119.688 155.16 119.913C154.882 120.075 154.85 120.185 155.113 120.355C155.428 120.558 155.76 120.74 156.091 120.923C156.791 121.309 157.347 121.873 157.686 122.543C157.916 122.982 158.02 123.466 157.989 123.95C157.974 124.405 157.966 124.862 157.989 125.316C158.021 125.851 157.871 126.327 157.65 126.825C157.314 127.587 156.767 128.197 156.146 128.76C156.019 128.885 155.814 128.948 155.64 129.038ZM144.993 121.955C144.974 122.156 144.952 122.288 144.952 122.421C144.952 123.63 144.952 124.837 144.952 126.045C144.946 126.162 144.931 126.279 144.904 126.394C144.786 127.027 145.015 127.273 145.73 127.276C146.86 127.276 147.991 127.286 149.12 127.276C150.115 127.269 151.115 127.295 152.076 126.994C152.792 126.769 153.346 126.39 153.69 125.766C154.035 125.141 154.01 124.499 153.976 123.839C153.96 123.705 153.921 123.575 153.858 123.453C153.642 122.981 153.348 122.576 152.784 122.369C152.22 122.161 151.682 121.889 151.042 121.893C149.326 121.901 147.611 121.901 145.895 121.908C145.608 121.914 145.329 121.938 144.993 121.955ZM148.215 119.027C149.268 118.991 150.132 118.985 150.992 118.929C152.306 118.843 153.105 118.32 153.427 117.328C153.614 116.756 153.589 116.151 153.231 115.67C152.816 115.109 152.187 114.733 151.372 114.72C151.242 114.72 151.112 114.683 150.981 114.673C150.392 114.623 149.793 114.477 149.188 114.612C149.096 114.631 149.001 114.631 148.909 114.612C147.771 114.39 146.625 114.515 145.487 114.554C145.007 114.57 144.851 114.804 144.868 115.229C144.909 116.22 144.932 117.212 144.961 118.204C144.961 118.338 144.949 118.474 144.961 118.608C144.989 118.912 145.091 118.993 145.422 118.981C145.591 118.974 145.76 118.942 145.928 118.947C146.751 118.971 147.578 119.007 148.215 119.027Z" fill="white"/>
<path d="M120.109 111.119C120.673 111.143 121.246 111.119 121.8 111.197C123.002 111.372 124.167 111.64 125.236 112.219C126.011 112.641 126.738 113.092 127.333 113.697C127.655 114.039 127.953 114.4 128.226 114.775C128.509 115.149 128.828 115.514 129.023 115.925C129.517 116.96 129.95 118.015 129.948 119.167C129.947 119.403 129.976 119.638 130.034 119.867C130.204 120.518 130.158 121.17 130.081 121.823C130.032 122.224 129.963 122.625 129.95 123.027C129.943 123.363 129.874 123.695 129.748 124.012C129.605 124.354 129.57 124.729 129.448 125.08C129.229 125.713 128.809 126.264 128.475 126.85C127.99 127.704 127.269 128.363 126.401 128.907C126.112 129.089 125.851 129.305 125.557 129.481C125.147 129.726 124.694 129.907 124.217 130.018C124.115 130.052 124.019 130.099 123.932 130.157C123.869 130.192 123.814 130.262 123.751 130.269C122.975 130.309 122.269 130.712 121.46 130.612C121.194 130.579 120.911 130.674 120.634 130.692C120.372 130.713 120.108 130.717 119.845 130.706C119.228 130.669 118.613 130.61 117.996 130.571C117.733 130.554 117.476 130.561 117.278 130.352C117.236 130.319 117.188 130.294 117.135 130.279C117.082 130.264 117.026 130.259 116.971 130.266C116.692 130.303 116.451 130.287 116.254 130.078C116.226 130.055 116.194 130.038 116.158 130.028C116.123 130.017 116.085 130.013 116.048 130.017C115.585 130.055 115.31 129.751 114.955 129.574C114.411 129.305 113.952 128.955 113.481 128.606C112.905 128.158 112.401 127.642 111.983 127.071C111.696 126.725 111.456 126.35 111.265 125.954C110.969 125.273 110.738 124.568 110.509 123.865C110.413 123.523 110.338 123.177 110.285 122.827C110.123 122.032 110.116 121.217 110.266 120.419C110.285 120.319 110.285 120.217 110.266 120.116C110.069 119.137 110.408 118.204 110.691 117.297C110.988 116.327 111.478 115.413 112.138 114.599C112.723 113.882 113.411 113.239 114.185 112.684C114.893 112.174 115.719 111.776 116.571 111.607C117.726 111.379 118.857 110.867 120.109 111.119ZM117.72 127.413C117.91 127.273 118.14 127.284 118.394 127.435C118.54 127.507 118.705 127.546 118.873 127.547C119.211 127.567 119.551 127.572 119.891 127.565C120.727 127.545 121.588 127.67 122.368 127.266C122.821 127.032 123.303 126.828 123.709 126.54C124.702 125.834 125.235 124.846 125.619 123.796C125.79 123.319 125.908 122.828 125.973 122.329C126.039 121.831 125.994 121.321 126.022 120.818C126.065 119.892 125.922 118.968 125.601 118.087C125.223 117.021 124.684 116.005 123.651 115.264C123.096 114.866 122.565 114.475 121.828 114.411C121.752 114.409 121.678 114.386 121.617 114.346C121.321 114.095 120.957 114.135 120.601 114.135C120.167 114.135 119.733 114.123 119.303 114.135C119.12 114.151 118.939 114.186 118.764 114.24C118.554 114.295 118.346 114.36 118.14 114.424C118.015 114.454 117.894 114.494 117.778 114.545C117.366 114.759 116.972 114.999 116.598 115.263C115.745 115.851 115.217 116.635 114.883 117.5C114.656 118.03 114.508 118.584 114.44 119.148C114.369 119.983 114.124 120.799 114.288 121.655C114.428 122.394 114.472 123.153 114.723 123.883C115.175 125.198 115.957 126.277 117.304 126.996C117.46 127.09 117.562 127.259 117.714 127.413H117.72Z" fill="white"/>
<path d="M98.4015 114.775C97.7031 114.719 97.1273 114.642 96.5504 114.633C95.2869 114.613 94.0222 114.633 92.7586 114.625C92.2101 114.625 92.0508 114.514 92.0508 114.045C92.0626 113.273 92.131 112.504 92.1758 111.738C92.6324 111.612 106.54 111.548 108.737 111.657C108.885 112.004 108.929 114.325 108.768 114.753C106.674 114.566 104.553 114.632 102.397 114.659C102.683 115.342 102.531 116.065 102.533 116.777C102.548 121.046 102.533 125.315 102.533 129.584C102.533 129.635 102.533 129.69 102.533 129.736C102.513 130.148 102.415 130.249 101.962 130.255C101.265 130.266 100.566 130.255 99.8691 130.255C99.5482 130.255 99.2273 130.266 98.9076 130.255C98.5006 130.234 98.4263 130.157 98.4015 129.79C98.3944 129.69 98.4015 129.588 98.4015 129.487V115.567V114.775Z" fill="white"/>
<path d="M36.3711 139.36H39.2946C40.5723 139.36 41.3993 139.974 41.3993 140.973C41.3993 141.742 40.9168 142.231 40.1865 142.414V142.461C41.1091 142.557 41.7969 143.12 41.7969 144.071C41.7969 145.232 40.7717 145.915 39.2415 145.915H36.3746L36.3711 139.36ZM37.5839 142.13H38.615C39.7051 142.13 40.1877 141.804 40.1877 141.156C40.1877 140.574 39.7641 140.224 39.0397 140.224H37.5839V142.13ZM37.5839 145.05H38.7495C40.0319 145.05 40.5534 144.723 40.5534 144.032C40.5534 143.341 40.0426 142.951 39.1377 142.951H37.5839V145.05Z" fill="white"/>
<path d="M47.671 145.919H46.5007V145.213H46.4476C46.2588 145.612 45.7327 145.996 44.8101 145.996C43.6445 145.996 42.8398 145.395 42.8398 144.219V140.841H44.0314V143.925C44.0314 144.813 44.6001 145.072 45.2395 145.072C45.9533 145.072 46.4794 144.664 46.4794 143.911V140.842H47.671V145.919Z" fill="white"/>
<path d="M51.1717 140.747C52.5131 140.747 53.2705 141.391 53.2705 142.289H52.1969C52.1592 141.934 51.9126 141.54 51.1351 141.54C50.5287 141.54 50.1158 141.785 50.1158 142.212C50.1158 142.74 50.9051 142.845 51.5492 142.951C52.6016 143.119 53.4274 143.412 53.4274 144.373C53.4274 145.4 52.5155 145.996 51.0879 145.996C49.7241 145.996 48.8652 145.419 48.8652 144.512H50.0309C50.0946 144.925 50.4969 145.203 51.1682 145.203C51.9256 145.203 52.2748 144.887 52.2748 144.507C52.2748 143.979 51.6141 143.892 50.8591 143.757C49.8232 143.561 48.9808 143.243 48.9808 142.317C48.9761 141.222 50.0226 140.747 51.1717 140.747Z" fill="white"/>
<path d="M55.2782 138.995C55.41 139 55.537 139.041 55.6436 139.11C55.7501 139.18 55.8314 139.276 55.8775 139.387C55.9236 139.497 55.9324 139.618 55.9028 139.733C55.8733 139.848 55.8067 139.953 55.7112 140.034C55.6158 140.116 55.4957 140.17 55.3658 140.191C55.236 140.213 55.1021 140.199 54.9807 140.153C54.8592 140.107 54.7556 140.029 54.6827 139.931C54.6098 139.833 54.5707 139.717 54.5703 139.599C54.5707 139.518 54.5895 139.437 54.6257 139.362C54.6618 139.287 54.7144 139.219 54.7805 139.162C54.8466 139.106 54.9247 139.062 55.0103 139.033C55.0958 139.004 55.1869 138.991 55.2782 138.995ZM54.6812 140.838H55.874V145.919H54.6812V140.838Z" fill="white"/>
<path d="M57.4404 140.838H58.6108V141.55H58.6544C58.8467 141.213 59.3623 140.762 60.3061 140.762C61.4658 140.762 62.2987 141.415 62.2987 142.654V145.919H61.1072V142.874C61.1072 142.058 60.581 141.693 59.8719 141.693C59.0355 141.693 58.6273 142.221 58.6273 142.893V145.919H57.4404V140.838Z" fill="white"/>
<path d="M63.501 143.597V143.083C63.501 141.667 64.4448 140.749 65.9384 140.749C67.452 140.749 68.3652 141.698 68.3652 143.13V143.616H64.6772V143.736C64.6772 144.591 65.1928 145.158 66.0033 145.158C66.6097 145.158 67.0226 144.889 67.1677 144.452H68.3003C68.1292 145.273 67.3883 145.998 65.9868 145.998C64.4672 146.001 63.501 145.103 63.501 143.597ZM67.1996 142.872V142.862C67.1996 142.142 66.7005 141.575 65.9443 141.575C65.1881 141.575 64.6772 142.142 64.6772 142.862V142.872H67.1996Z" fill="white"/>
<path d="M71.6201 140.747C72.9627 140.747 73.719 141.391 73.719 142.289H72.6454C72.6076 141.934 72.361 141.54 71.5836 141.54C70.9772 141.54 70.5631 141.785 70.5631 142.212C70.5631 142.74 71.3523 142.845 71.9965 142.951C73.0488 143.119 73.8759 143.412 73.8759 144.373C73.8759 145.4 72.9627 145.996 71.5352 145.996C70.1714 145.996 69.3125 145.419 69.3125 144.512H70.4722C70.5359 144.925 70.9441 145.203 71.6107 145.203C72.3669 145.203 72.7161 144.887 72.7161 144.507C72.7161 143.979 72.0555 143.892 71.3004 143.757C70.2634 143.561 69.421 143.243 69.421 142.317C69.4222 141.222 70.4687 140.747 71.6201 140.747Z" fill="white"/>
<path d="M77.0615 140.747C78.4029 140.747 79.1604 141.391 79.1604 142.289H78.0868C78.049 141.934 77.8024 141.54 77.025 141.54C76.4174 141.54 76.0045 141.785 76.0045 142.212C76.0045 142.74 76.7937 142.845 77.4379 142.951C78.4902 143.119 79.3173 143.412 79.3173 144.373C79.3173 145.4 78.4041 145.996 76.9766 145.996C75.6128 145.996 74.7539 145.419 74.7539 144.512H75.9136C75.9773 144.925 76.3855 145.203 77.0509 145.203C77.8083 145.203 78.1575 144.887 78.1575 144.507C78.1575 143.979 77.4969 143.892 76.7418 143.757C75.706 143.561 74.8636 143.243 74.8636 142.317C74.866 141.222 75.9124 140.747 77.0615 140.747Z" fill="white"/>
<path d="M82.4678 143.124C82.4678 141.736 83.3797 140.752 84.9158 140.752C86.295 140.752 87.1326 141.55 87.1751 142.44H86.0484C86.0017 142.217 85.8695 142.014 85.6746 141.868C85.4796 141.722 85.234 141.64 84.9795 141.638C84.1537 141.638 83.6641 142.214 83.6641 143.151V143.582C83.6641 144.524 84.1749 145.12 84.9854 145.12C85.6449 145.12 86 144.778 86.0803 144.381H87.2081C87.0571 145.394 86.236 146 84.9158 146C83.375 146 82.4678 145.001 82.4678 143.579V143.124Z" fill="white"/>
<path d="M93.1984 143.163V143.571C93.1984 145.002 92.3172 145.998 90.6808 145.998C89.0445 145.998 88.1514 144.998 88.1514 143.571V143.163C88.1514 141.785 89.048 140.752 90.6808 140.752C92.3136 140.752 93.1984 141.78 93.1984 143.163ZM89.3547 143.177V143.566C89.3547 144.474 89.7889 145.141 90.6808 145.141C91.5727 145.141 92.001 144.478 92.001 143.566V143.175C92.001 142.248 91.5656 141.604 90.6808 141.604C89.796 141.604 89.3547 142.256 89.3547 143.175V143.177Z" fill="white"/>
<path d="M94.4854 140.838H95.6557V141.52H95.7147C95.8822 141.16 96.3753 140.762 97.1811 140.762C98.0553 140.762 98.5815 141.094 98.7915 141.607H98.8399C99.0381 141.175 99.6292 140.762 100.568 140.762C101.754 140.762 102.446 141.429 102.446 142.451V145.919H101.255V142.721C101.255 142.077 100.858 141.674 100.166 141.674C99.4734 141.674 99.044 142.111 99.044 142.783V145.919H97.8843V142.788C97.8843 142.034 97.4442 141.678 96.7835 141.678C96.1665 141.678 95.6722 142.044 95.6722 142.778V145.919H94.4854V140.838Z" fill="white"/>
<path d="M103.935 140.838H105.105V141.52H105.164C105.33 141.16 105.823 140.762 106.629 140.762C107.505 140.762 108.03 141.094 108.24 141.607H108.288C108.486 141.175 109.077 140.762 110.016 140.762C111.203 140.762 111.896 141.429 111.896 142.451V145.919H110.703V142.721C110.703 142.077 110.307 141.674 109.614 141.674C108.921 141.674 108.492 142.111 108.492 142.783V145.919H107.332V142.788C107.332 142.034 106.892 141.678 106.232 141.678C105.615 141.678 105.12 142.044 105.12 142.778V145.919H103.94L103.935 140.838Z" fill="white"/>
<path d="M118.138 145.919H116.967V145.213H116.914C116.727 145.612 116.201 145.996 115.277 145.996C114.112 145.996 113.307 145.395 113.307 144.219V140.841H114.498V143.925C114.498 144.813 115.068 145.072 115.706 145.072C116.414 145.072 116.946 144.664 116.946 143.911V140.842H118.138V145.919Z" fill="white"/>
<path d="M119.651 140.838H120.817V141.55H120.861C121.054 141.213 121.568 140.762 122.512 140.762C123.671 140.762 124.504 141.415 124.504 142.654V145.919H123.318V142.874C123.318 142.058 122.792 141.693 122.084 141.693C121.246 141.693 120.838 142.221 120.838 142.893V145.919H119.651V140.838Z" fill="white"/>
<path d="M126.598 138.995C126.729 139 126.856 139.041 126.963 139.11C127.069 139.18 127.151 139.276 127.197 139.387C127.243 139.497 127.252 139.618 127.222 139.733C127.193 139.848 127.126 139.953 127.031 140.034C126.935 140.116 126.815 140.17 126.685 140.191C126.555 140.213 126.421 140.199 126.3 140.153C126.179 140.107 126.075 140.029 126.002 139.931C125.929 139.833 125.89 139.717 125.89 139.599C125.89 139.518 125.909 139.437 125.945 139.362C125.981 139.287 126.034 139.219 126.1 139.162C126.166 139.106 126.244 139.062 126.33 139.033C126.415 139.004 126.506 138.991 126.598 138.995ZM126.008 140.838H127.187V145.919H125.996L126.008 140.838Z" fill="white"/>
<path d="M128.525 143.124C128.525 141.736 129.437 140.752 130.973 140.752C132.353 140.752 133.19 141.55 133.233 142.44H132.106C132.059 142.217 131.927 142.014 131.732 141.868C131.537 141.722 131.292 141.64 131.037 141.638C130.211 141.638 129.722 142.214 129.722 143.151V143.582C129.722 144.524 130.233 145.12 131.043 145.12C131.703 145.12 132.058 144.778 132.138 144.381H133.266C133.115 145.394 132.294 146 130.973 146C129.433 146 128.525 145.001 128.525 143.579V143.124Z" fill="white"/>
<path d="M135.976 145.992C134.875 145.992 134.119 145.401 134.119 144.455C134.119 143.552 134.816 142.977 136.125 142.977H137.564V142.492C137.564 141.912 137.177 141.59 136.512 141.59C135.846 141.59 135.491 141.891 135.45 142.343H134.333C134.381 141.479 135.025 140.76 136.539 140.76C137.801 140.76 138.74 141.322 138.74 142.455V145.919H137.608V145.285H137.565C137.313 145.679 136.814 145.992 135.976 145.992ZM137.561 144.243V143.681H136.325C135.633 143.681 135.317 143.975 135.317 144.397C135.317 144.925 135.81 145.18 136.336 145.18C137.028 145.18 137.561 144.796 137.561 144.243Z" fill="white"/>
<path d="M140.588 139.605H141.758V140.838H142.864V141.693H141.758V144.402C141.758 144.954 141.994 145.107 142.628 145.107C142.717 145.109 142.807 145.106 142.896 145.098V145.919C142.709 145.942 142.521 145.953 142.333 145.953C140.953 145.953 140.571 145.51 140.571 144.493V141.697H139.788V140.843H140.588V139.605Z" fill="white"/>
<path d="M144.823 138.995C144.955 139 145.082 139.041 145.188 139.11C145.295 139.18 145.376 139.276 145.422 139.387C145.469 139.497 145.477 139.618 145.448 139.733C145.418 139.848 145.352 139.953 145.256 140.034C145.161 140.116 145.041 140.17 144.911 140.191C144.781 140.213 144.647 140.199 144.526 140.153C144.404 140.107 144.301 140.029 144.228 139.931C144.155 139.833 144.116 139.717 144.115 139.599C144.116 139.518 144.134 139.437 144.171 139.362C144.207 139.287 144.259 139.219 144.325 139.162C144.392 139.106 144.47 139.062 144.555 139.033C144.641 139.004 144.732 138.991 144.823 138.995ZM144.233 140.838H145.425V145.919H144.233V140.838Z" fill="white"/>
<path d="M151.802 143.163V143.571C151.802 145.002 150.922 145.998 149.284 145.998C147.647 145.998 146.756 144.998 146.756 143.571V143.163C146.756 141.785 147.652 140.752 149.284 140.752C150.916 140.752 151.802 141.78 151.802 143.163ZM147.958 143.177V143.566C147.958 144.474 148.393 145.141 149.284 145.141C150.175 145.141 150.604 144.478 150.604 143.566V143.175C150.604 142.248 150.17 141.604 149.284 141.604C148.398 141.604 147.958 142.256 147.958 143.175V143.177Z" fill="white"/>
<path d="M153.09 140.838H154.26V141.55H154.303C154.496 141.213 155.016 140.762 155.954 140.762C157.114 140.762 157.946 141.415 157.946 142.654V145.919H156.766V142.874C156.766 142.058 156.24 141.693 155.531 141.693C154.693 141.693 154.286 142.221 154.286 142.893V145.919H153.099L153.09 140.838Z" fill="white"/>
</g>
<defs>
<clipPath id="clip0_1_9622">
<rect width="158" height="146" fill="white"/>
</clipPath>
</defs>
</svg>
